<svg xmlns="http://www.w3.org/2000/svg" xmlns:xlink="http://www.w3.org/1999/xlink" width="1080" zoomAndPan="magnify" viewBox="0 0 810 809.999993" height="1080" preserveAspectRatio="xMidYMid meet" version="1.0"><path fill="#363336" d="M 406.5 731.910156 C 227.019531 731.910156 81 585.890625 81 406.5 C 81 227.109375 227.019531 81 406.5 81 C 585.980469 81 731.910156 227.019531 731.910156 406.5 C 731.910156 585.980469 585.886719 732 406.5 732 Z M 406.5 108.277344 C 242.023438 108.277344 108.277344 242.023438 108.277344 406.5 C 108.277344 570.976562 242.023438 704.722656 406.5 704.722656 C 570.976562 704.722656 704.632812 570.976562 704.632812 406.5 C 704.632812 242.023438 570.886719 108.277344 406.5 108.277344 Z M 406.5 108.277344 " fill-opacity="1" fill-rule="nonzero"/><path fill="#363336" d="M 413.957031 556.613281 C 410.5 556.613281 406.953125 555.246094 404.316406 552.613281 C 398.953125 547.246094 398.953125 538.609375 404.316406 533.335938 L 523.242188 414.410156 L 404.316406 295.484375 C 398.953125 290.121094 398.953125 281.484375 404.316406 276.210938 C 409.683594 270.84375 418.320312 270.84375 423.59375 276.210938 L 546.335938 398.953125 C 550.519531 403.136719 552.792969 408.589844 552.792969 414.410156 C 552.792969 420.230469 550.519531 425.777344 546.335938 429.867188 L 423.59375 552.613281 C 420.957031 555.25 417.410156 556.613281 413.957031 556.613281 Z M 527.0625 418.136719 Z M 527.0625 418.136719 " fill-opacity="1" fill-rule="nonzero"/><path fill="#363336" d="M 538.972656 428.046875 L 276.027344 428.046875 C 268.480469 428.046875 262.390625 421.957031 262.390625 414.410156 C 262.390625 406.863281 268.480469 400.773438 276.027344 400.773438 L 538.972656 400.773438 C 546.519531 400.773438 552.609375 406.863281 552.609375 414.410156 C 552.609375 421.957031 546.519531 428.046875 538.972656 428.046875 Z M 538.972656 428.046875 " fill-opacity="1" fill-rule="nonzero"/></svg>