<svg xmlns="http://www.w3.org/2000/svg" xmlns:xlink="http://www.w3.org/1999/xlink" width="1080" zoomAndPan="magnify" viewBox="0 0 810 809.999993" height="1080" preserveAspectRatio="xMidYMid meet" version="1.0"><defs><clipPath id="eb6586c97f"><path d="M 39.511719 394 L 751.261719 394 L 751.261719 415.746094 L 39.511719 415.746094 Z M 39.511719 394 " clip-rule="nonzero"/></clipPath></defs><g clip-path="url(#eb6586c97f)"><path fill="#73b51c" d="M 494.929688 397.664062 C 511.804688 397.425781 538.011719 397.042969 564.203125 396.660156 C 578.820312 396.4375 593.449219 396.28125 608.066406 395.960938 C 625.398438 395.578125 642.71875 395.039062 660.054688 394.609375 C 664.1875 394.5 668.339844 394.578125 672.472656 394.53125 C 682.046875 394.417969 691.621094 394.164062 701.195312 394.179688 C 714.710938 394.195312 728.230469 394.386719 741.765625 394.5625 C 743.496094 394.578125 745.261719 394.832031 746.933594 395.261719 C 749.859375 395.992188 751.511719 398.042969 751.511719 400.542969 C 751.511719 403.023438 749.84375 405.183594 746.917969 405.820312 C 744.46875 406.347656 741.90625 406.695312 739.425781 406.617188 C 729.597656 406.3125 719.785156 405.804688 709.972656 405.390625 C 705.1875 405.183594 700.414062 404.882812 695.628906 404.867188 C 678.546875 404.773438 661.515625 403.625 644.484375 402.257812 C 640.621094 401.941406 636.722656 402.066406 632.84375 402.101562 C 614.921875 402.226562 596.996094 402.148438 579.074219 402.59375 C 562.390625 403.007812 545.726562 404.007812 529.058594 404.707031 C 518.195312 405.167969 507.351562 405.582031 496.488281 405.996094 C 478.265625 406.679688 460.039062 407.238281 441.8125 408.015625 C 423.207031 408.8125 404.601562 409.828125 386.011719 410.734375 C 363.460938 411.832031 340.925781 413.328125 318.375 413.933594 C 295.871094 414.519531 273.351562 414.234375 250.832031 414.296875 C 229.554688 414.363281 208.277344 414.296875 186.980469 414.457031 C 167.644531 414.601562 148.304688 415.171875 128.96875 415.15625 C 113.128906 415.15625 97.273438 414.378906 81.433594 414.265625 C 70.824219 414.1875 60.234375 414.664062 49.625 414.949219 C 47.496094 415.011719 45.394531 415.363281 43.265625 415.554688 C 42.5 415.617188 41.691406 415.714844 40.960938 415.539062 C 40.433594 415.410156 40.003906 414.886719 39.542969 414.519531 C 39.988281 414.203125 40.386719 413.675781 40.863281 413.597656 C 46.714844 412.644531 52.554688 411.324219 58.453125 410.910156 C 74.386719 409.796875 90.339844 408.96875 106.289062 408.238281 C 117.007812 407.746094 127.757812 407.746094 138.492188 407.285156 C 151.996094 406.695312 165.480469 405.835938 178.984375 405.121094 C 187.125 404.691406 195.25 404.152344 203.394531 403.914062 C 229.714844 403.132812 256.035156 402.65625 282.351562 401.734375 C 307.113281 400.875 331.84375 399.492188 356.605469 398.523438 C 368.882812 398.042969 381.175781 397.789062 393.46875 397.742188 C 424.195312 397.632812 454.933594 397.710938 494.980469 397.710938 Z M 494.929688 397.664062 " fill-opacity="1" fill-rule="nonzero"/></g></svg>