<svg xmlns="http://www.w3.org/2000/svg" xmlns:xlink="http://www.w3.org/1999/xlink" width="1080" zoomAndPan="magnify" viewBox="0 0 810 809.999993" height="1080" preserveAspectRatio="xMidYMid meet" version="1.0"><defs><clipPath id="705ba6d9da"><path d="M 26 293.261719 L 786 293.261719 L 786 532.511719 L 26 532.511719 Z M 26 293.261719 " clip-rule="nonzero"/></clipPath></defs><g clip-path="url(#705ba6d9da)"><path fill="#000000" d="M 353.117188 295.933594 C 354.265625 295.699219 355.394531 295.289062 356.542969 295.273438 C 367.519531 295.179688 378.511719 295.210938 389.488281 295.085938 C 394.464844 295.023438 399.457031 294.582031 404.4375 294.488281 C 412.414062 294.347656 420.390625 294.378906 428.367188 294.316406 C 430.03125 294.300781 431.695312 294.191406 433.363281 294.175781 C 442.625 294.113281 451.890625 294.144531 461.15625 293.984375 C 468.097656 293.859375 475.054688 293.324219 481.996094 293.308594 C 487.710938 293.292969 493.441406 293.84375 499.15625 294 C 505.296875 294.160156 511.4375 293.96875 517.5625 294.238281 C 532.070312 294.851562 546.597656 295.449219 561.089844 296.421875 C 575.003906 297.351562 588.980469 298.074219 602.75 300.101562 C 619.476562 302.570312 636.355469 304.171875 652.78125 308.636719 C 663.898438 311.65625 675.347656 313.507812 686.339844 316.875 C 698.039062 320.457031 709.453125 325.046875 720.839844 329.558594 C 727.199219 332.089844 733.542969 334.917969 739.417969 338.394531 C 747.863281 343.40625 756.0625 348.785156 763.441406 355.480469 C 770.617188 361.988281 776.320312 369.390625 780.667969 377.945312 C 784.027344 384.53125 786.117188 391.460938 785.128906 398.945312 C 784.171875 406.144531 782.175781 412.871094 777.890625 419.050781 C 769.488281 431.136719 758.652344 440.335938 746.796875 448.839844 C 732.113281 459.355469 716.003906 466.945312 699.578125 473.988281 C 690.234375 477.996094 680.480469 481.09375 670.839844 484.394531 C 661.199219 487.695312 651.558594 490.964844 641.773438 493.796875 C 633.578125 496.167969 625.191406 497.851562 616.898438 499.910156 C 614.574219 500.492188 612.332031 501.453125 609.992188 502 C 600.664062 504.1875 591.351562 506.542969 581.945312 508.335938 C 570.464844 510.519531 558.894531 512.171875 547.367188 514.152344 C 542.609375 514.96875 537.929688 516.226562 533.171875 516.917969 C 526.984375 517.816406 520.71875 518.160156 514.53125 519.042969 C 507.714844 520.015625 500.996094 521.589844 494.179688 522.453125 C 487.019531 523.363281 479.796875 523.695312 472.605469 524.386719 C 470.21875 524.605469 467.894531 525.296875 465.507812 525.503906 C 451.625 526.695312 437.726562 527.9375 423.828125 528.898438 C 411.394531 529.761719 398.941406 530.296875 386.503906 530.925781 C 378.558594 531.335938 370.628906 531.820312 362.679688 531.945312 C 349.113281 532.167969 335.53125 532.574219 321.996094 532.042969 C 313.90625 531.726562 305.851562 531.960938 297.796875 531.757812 C 292.253906 531.601562 286.726562 530.894531 281.167969 530.53125 C 277.351562 530.28125 273.503906 530.203125 269.6875 530.109375 C 267.472656 530.046875 265.210938 530.421875 263.0625 530.078125 C 254.535156 528.707031 245.898438 529.433594 237.355469 528.394531 C 228.6875 527.339844 220.019531 526.476562 211.335938 525.519531 C 206.199219 524.953125 201.03125 524.511719 195.914062 523.710938 C 186.601562 522.25 177.382812 520.09375 168.023438 519.105469 C 160 518.253906 152.398438 515.898438 144.644531 514.074219 C 134.78125 511.761719 124.871094 509.65625 115.105469 507.015625 C 109.296875 505.445312 103.703125 502.992188 98.003906 500.980469 C 96.605469 500.492188 95.164062 500.148438 93.734375 499.769531 C 92.132812 499.34375 90.386719 499.21875 88.929688 498.527344 C 81.71875 495.164062 74.480469 491.863281 67.460938 488.121094 C 60.503906 484.410156 53.863281 480.308594 48.019531 474.726562 C 44 470.894531 39.621094 467.464844 36.132812 463.082031 C 24.96875 449.042969 23.539062 433.464844 30.527344 417.507812 C 33.007812 411.835938 36.070312 405.847656 41.457031 401.632812 C 44.300781 399.417969 46.105469 395.910156 48.726562 393.347656 C 58.085938 384.230469 68.449219 376.449219 80.210938 370.648438 C 81.21875 370.164062 82.160156 369.550781 83.132812 369 C 89.839844 365.164062 96.449219 361.15625 103.28125 357.539062 C 107.332031 355.386719 111.652344 353.734375 115.921875 352.039062 C 124.007812 348.816406 132.066406 345.515625 140.261719 342.621094 C 149.195312 339.460938 158.257812 336.648438 167.300781 333.851562 C 173.097656 332.058594 178.953125 330.425781 184.84375 328.945312 C 187.339844 328.316406 190.039062 328.441406 192.554688 327.847656 C 199.792969 326.148438 206.921875 324.042969 214.191406 322.53125 C 222.921875 320.710938 231.75 319.324219 240.527344 317.800781 C 245.097656 317.015625 249.679688 316.261719 254.28125 315.617188 C 265.667969 314.011719 277.035156 312.285156 288.46875 310.996094 C 301.40625 309.53125 314.363281 308.324219 327.347656 307.300781 C 338.796875 306.40625 350.261719 305.886719 361.722656 305.242188 C 362.949219 305.179688 364.171875 305.367188 365.617188 306.421875 C 363.089844 307.175781 360.625 308.195312 358.050781 308.652344 C 338.453125 312.203125 318.808594 315.539062 299.210938 319.152344 C 288.972656 321.039062 278.84375 323.429688 268.636719 325.457031 C 263.925781 326.398438 259.152344 326.996094 254.40625 327.832031 C 252.964844 328.082031 251.566406 328.648438 250.121094 328.945312 C 246.683594 329.683594 243.226562 330.265625 239.804688 331.050781 C 236.742188 331.761719 233.742188 332.6875 230.695312 333.441406 C 222.75 335.390625 214.664062 336.867188 206.90625 339.335938 C 201.03125 341.207031 194.78125 341.898438 189.207031 343.957031 C 179.800781 347.433594 170.097656 349.648438 160.675781 352.839844 C 155.085938 354.726562 149.636719 357.066406 144.09375 359.113281 C 136.492188 361.910156 128.765625 364.378906 121.292969 367.457031 C 116.878906 369.28125 112.96875 372.269531 108.621094 374.296875 C 99.96875 378.335938 91.238281 382.203125 83.195312 387.40625 C 79.316406 389.921875 75.800781 392.988281 71.96875 395.566406 C 63.675781 401.160156 57.632812 409.101562 50.597656 416.015625 C 48.242188 418.34375 47 422.066406 45.917969 425.371094 C 41.144531 439.863281 45.632812 452.015625 57.976562 460.894531 C 61.257812 463.253906 63.660156 466.570312 67.617188 468.238281 C 73.019531 470.515625 78.109375 473.519531 83.304688 476.269531 C 85.238281 477.289062 86.949219 478.816406 88.960938 479.570312 C 95.335938 481.945312 101.789062 484.097656 108.242188 486.234375 C 117.367188 489.269531 126.488281 492.351562 135.691406 495.117188 C 140.589844 496.59375 145.648438 497.585938 150.6875 498.527344 C 157.441406 499.800781 164.257812 500.855469 171.039062 501.96875 C 179.785156 503.402344 188.582031 504.625 197.296875 506.292969 C 204.347656 507.644531 211.445312 508.382812 218.589844 508.933594 C 220.035156 509.042969 221.460938 509.5625 222.890625 509.910156 C 223.976562 510.175781 225.089844 510.773438 226.125 510.664062 C 236.585938 509.59375 246.777344 511.761719 257.03125 513.164062 C 258.867188 513.414062 260.769531 513.273438 262.636719 513.382812 C 270.613281 513.839844 278.574219 514.484375 286.550781 514.75 C 292.800781 514.96875 299.082031 514.640625 305.332031 514.765625 C 311.820312 514.890625 318.289062 515.410156 324.773438 515.503906 C 331.652344 515.597656 338.53125 515.378906 345.421875 515.347656 C 349.523438 515.332031 353.621094 515.238281 357.71875 515.488281 C 365.492188 515.960938 373.1875 515.441406 380.960938 514.875 C 391.464844 514.105469 402.066406 514.671875 412.601562 514.292969 C 419.246094 514.058594 425.871094 513.019531 432.511719 512.503906 C 437.851562 512.09375 443.207031 511.921875 448.546875 511.636719 C 452.03125 511.449219 455.535156 511.371094 458.988281 511.023438 C 469.714844 509.925781 480.441406 508.746094 491.164062 507.503906 C 499.644531 506.511719 508.109375 505.238281 516.605469 504.34375 C 527.453125 503.195312 538.226562 501.75 548.9375 499.613281 C 555.109375 498.371094 561.390625 497.726562 567.59375 496.578125 C 575.992188 495.007812 584.363281 493.308594 592.703125 491.484375 C 603.726562 489.082031 614.765625 486.769531 625.679688 483.957031 C 637.171875 481 648.589844 477.652344 659.957031 474.195312 C 679.902344 468.140625 699.292969 460.503906 718.027344 451.464844 C 733.953125 443.792969 749.089844 434.613281 761.496094 421.707031 C 767.652344 415.292969 772.363281 407.699219 773.351562 398.789062 C 774.136719 391.746094 772.550781 384.640625 768.6875 378.460938 C 760.472656 365.367188 748.949219 355.746094 735.554688 348.421875 C 725.941406 343.15625 716.207031 337.96875 706.046875 333.960938 C 694.488281 329.402344 682.429688 326.070312 670.527344 322.421875 C 664.714844 320.644531 658.765625 319.324219 652.84375 317.941406 C 639.96875 314.957031 627.15625 311.859375 613.917969 310.601562 C 602.625 309.53125 591.414062 307.535156 580.15625 306.121094 C 573.683594 305.304688 567.167969 304.816406 560.683594 304.21875 C 549.03125 303.167969 537.394531 301.910156 525.726562 301.203125 C 516.289062 300.636719 506.804688 300.808594 497.351562 300.605469 C 483.40625 300.304688 469.449219 299.851562 455.503906 299.644531 C 441.230469 299.441406 426.9375 299.535156 412.664062 299.332031 C 397.417969 299.109375 382.152344 298.6875 366.90625 298.371094 C 363.8125 298.308594 360.6875 298.433594 357.609375 298.230469 C 356.070312 298.121094 354.5625 297.445312 353.039062 297.035156 C 353.054688 296.660156 353.085938 296.296875 353.117188 295.933594 Z M 353.117188 295.933594 " fill-opacity="1" fill-rule="nonzero"/></g></svg>