<svg xmlns="http://www.w3.org/2000/svg" xmlns:xlink="http://www.w3.org/1999/xlink" width="1080" zoomAndPan="magnify" viewBox="0 0 810 809.999993" height="1080" preserveAspectRatio="xMidYMid meet" version="1.0"><defs><clipPath id="30fff950dc"><path d="M 138.554688 291 L 671.804688 291 L 671.804688 329 L 138.554688 329 Z M 138.554688 291 " clip-rule="nonzero"/></clipPath><clipPath id="501c0ad1ee"><path d="M 172 710 L 288 710 L 288 763.429688 L 172 763.429688 Z M 172 710 " clip-rule="nonzero"/></clipPath><clipPath id="d6702e6b55"><path d="M 145 336 L 314 336 L 314 763.429688 L 145 763.429688 Z M 145 336 " clip-rule="nonzero"/></clipPath><clipPath id="6bb798e6a3"><path d="M 303 338 L 507 338 L 507 763.429688 L 303 763.429688 Z M 303 338 " clip-rule="nonzero"/></clipPath><clipPath id="5553d8e2c0"><path d="M 341 71.929688 L 465 71.929688 L 465 97 L 341 97 Z M 341 71.929688 " clip-rule="nonzero"/></clipPath></defs><path fill="#000000" d="M 647.160156 241.898438 L 647.160156 285.28125 L 163.585938 285.28125 C 162.875 271.183594 163.351562 256.847656 163.308594 241.941406 Z M 647.160156 241.898438 " fill-opacity="1" fill-rule="nonzero"/><g clip-path="url(#30fff950dc)"><path fill="#000000" d="M 163.585938 328.953125 L 163.585938 306.710938 C 157.019531 298.34375 147.855469 304.3125 139.527344 301.386719 C 139.289062 298.597656 138.984375 295.320312 138.621094 291.46875 L 671.75 291.46875 L 671.75 300.953125 C 664.316406 304.914062 655.152344 298.820312 647.691406 305.570312 L 647.691406 328.9375 Z M 163.585938 328.953125 " fill-opacity="1" fill-rule="nonzero"/></g><path fill="#000000" d="M 174.886719 235.679688 L 174.886719 218.457031 C 174.886719 217.457031 174.984375 216.46875 175.179688 215.488281 C 175.375 214.507812 175.660156 213.558594 176.042969 212.632812 C 176.425781 211.710938 176.894531 210.832031 177.449219 210.003906 C 178.003906 209.171875 178.636719 208.402344 179.34375 207.695312 C 180.050781 206.988281 180.816406 206.359375 181.648438 205.800781 C 182.480469 205.246094 183.355469 204.777344 184.28125 204.394531 C 185.203125 204.011719 186.15625 203.722656 187.132812 203.527344 C 188.113281 203.332031 189.105469 203.230469 190.105469 203.230469 L 620.601562 203.230469 C 621.601562 203.230469 622.59375 203.328125 623.574219 203.523438 C 624.554688 203.71875 625.507812 204.007812 626.429688 204.390625 C 627.355469 204.773438 628.230469 205.242188 629.0625 205.796875 C 629.894531 206.351562 630.664062 206.984375 631.371094 207.691406 C 632.078125 208.398438 632.710938 209.167969 633.265625 210 C 633.820312 210.828125 634.292969 211.707031 634.671875 212.632812 C 635.054688 213.554688 635.34375 214.507812 635.539062 215.488281 C 635.734375 216.46875 635.832031 217.457031 635.832031 218.457031 L 635.832031 234.523438 C 622.175781 237.03125 260.585938 237.867188 174.886719 235.679688 Z M 174.886719 235.679688 " fill-opacity="1" fill-rule="nonzero"/><path fill="#000000" d="M 221.585938 118.183594 L 589.46875 118.183594 L 589.46875 144.679688 L 221.585938 144.679688 Z M 221.585938 118.183594 " fill-opacity="1" fill-rule="nonzero"/><path fill="#000000" d="M 525.179688 173.710938 C 525.179688 174.582031 525.09375 175.445312 524.921875 176.300781 C 524.753906 177.15625 524.5 177.984375 524.167969 178.789062 C 523.835938 179.597656 523.425781 180.359375 522.941406 181.085938 C 522.457031 181.8125 521.90625 182.480469 521.289062 183.097656 C 520.671875 183.714844 520.003906 184.265625 519.277344 184.75 C 518.550781 185.234375 517.785156 185.640625 516.980469 185.976562 C 516.175781 186.308594 515.34375 186.5625 514.488281 186.730469 C 513.636719 186.902344 512.769531 186.984375 511.898438 186.984375 C 511.027344 186.984375 510.164062 186.902344 509.308594 186.730469 C 508.453125 186.5625 507.625 186.308594 506.816406 185.976562 C 506.011719 185.640625 505.246094 185.234375 504.523438 184.75 C 503.796875 184.265625 503.125 183.714844 502.511719 183.097656 C 501.894531 182.480469 501.34375 181.8125 500.859375 181.085938 C 500.375 180.359375 499.964844 179.597656 499.632812 178.789062 C 499.296875 177.984375 499.046875 177.15625 498.875 176.300781 C 498.707031 175.445312 498.621094 174.582031 498.621094 173.710938 C 498.621094 172.839844 498.707031 171.976562 498.875 171.121094 C 499.046875 170.265625 499.296875 169.4375 499.632812 168.628906 C 499.964844 167.824219 500.375 167.058594 500.859375 166.335938 C 501.34375 165.609375 501.894531 164.941406 502.511719 164.324219 C 503.125 163.707031 503.796875 163.15625 504.523438 162.671875 C 505.246094 162.1875 506.011719 161.78125 506.816406 161.445312 C 507.625 161.113281 508.453125 160.859375 509.308594 160.691406 C 510.164062 160.519531 511.027344 160.4375 511.898438 160.4375 C 512.769531 160.4375 513.636719 160.519531 514.488281 160.691406 C 515.34375 160.859375 516.175781 161.113281 516.980469 161.445312 C 517.785156 161.78125 518.550781 162.1875 519.277344 162.671875 C 520.003906 163.15625 520.671875 163.707031 521.289062 164.324219 C 521.90625 164.941406 522.457031 165.609375 522.941406 166.335938 C 523.425781 167.058594 523.835938 167.824219 524.167969 168.628906 C 524.5 169.4375 524.753906 170.265625 524.921875 171.121094 C 525.09375 171.976562 525.179688 172.839844 525.179688 173.710938 Z M 525.179688 173.710938 " fill-opacity="1" fill-rule="nonzero"/><path fill="#000000" d="M 307.511719 173.710938 C 307.511719 174.582031 307.425781 175.445312 307.253906 176.300781 C 307.085938 177.15625 306.832031 177.984375 306.5 178.789062 C 306.164062 179.597656 305.757812 180.359375 305.273438 181.085938 C 304.789062 181.8125 304.238281 182.480469 303.621094 183.097656 C 303.003906 183.714844 302.332031 184.265625 301.609375 184.75 C 300.882812 185.234375 300.117188 185.640625 299.3125 185.976562 C 298.507812 186.308594 297.675781 186.5625 296.820312 186.730469 C 295.964844 186.902344 295.101562 186.984375 294.230469 186.984375 C 293.359375 186.984375 292.496094 186.902344 291.640625 186.730469 C 290.785156 186.5625 289.953125 186.308594 289.148438 185.976562 C 288.34375 185.640625 287.578125 185.234375 286.851562 184.75 C 286.128906 184.265625 285.457031 183.714844 284.839844 183.097656 C 284.222656 182.480469 283.675781 181.8125 283.191406 181.085938 C 282.707031 180.359375 282.296875 179.597656 281.960938 178.789062 C 281.628906 177.984375 281.378906 177.15625 281.207031 176.300781 C 281.035156 175.445312 280.953125 174.582031 280.953125 173.710938 C 280.953125 172.839844 281.035156 171.976562 281.207031 171.121094 C 281.378906 170.265625 281.628906 169.4375 281.960938 168.628906 C 282.296875 167.824219 282.707031 167.058594 283.191406 166.335938 C 283.675781 165.609375 284.222656 164.941406 284.839844 164.324219 C 285.457031 163.707031 286.128906 163.15625 286.851562 162.671875 C 287.578125 162.1875 288.34375 161.78125 289.148438 161.445312 C 289.953125 161.113281 290.785156 160.859375 291.640625 160.691406 C 292.496094 160.519531 293.359375 160.4375 294.230469 160.4375 C 295.101562 160.4375 295.964844 160.519531 296.820312 160.691406 C 297.675781 160.859375 298.507812 161.113281 299.3125 161.445312 C 300.117188 161.78125 300.882812 162.1875 301.609375 162.671875 C 302.332031 163.15625 303.003906 163.707031 303.621094 164.324219 C 304.238281 164.941406 304.789062 165.609375 305.273438 166.335938 C 305.757812 167.058594 306.164062 167.824219 306.5 168.628906 C 306.832031 169.4375 307.085938 170.265625 307.253906 171.121094 C 307.425781 171.976562 307.511719 172.839844 307.511719 173.710938 Z M 307.511719 173.710938 " fill-opacity="1" fill-rule="nonzero"/><path fill="#000000" d="M 630.894531 703.273438 L 532.792969 703.75 C 533.324219 656.011719 533.851562 608.28125 534.371094 560.554688 L 628.398438 559.4375 C 629.207031 607.378906 630.039062 655.324219 630.894531 703.273438 Z M 630.894531 703.273438 " fill-opacity="1" fill-rule="nonzero"/><path fill="#000000" d="M 526.390625 762.175781 C 525.4375 759.6875 524.839844 757.117188 524.605469 754.464844 C 524.367188 751.8125 524.5 749.175781 524.996094 746.558594 C 526.140625 741.121094 528.609375 738.527344 530.660156 734.148438 C 532.949219 729.265625 534.941406 721.738281 533.046875 710.441406 L 631.078125 709.855469 C 628.707031 722.183594 630.742188 730.398438 633.183594 735.738281 C 635.625 741.078125 639.433594 745.652344 638.832031 752.46875 C 638.429688 756.101562 637.105469 759.355469 634.855469 762.230469 Z M 526.390625 762.175781 " fill-opacity="1" fill-rule="nonzero"/><path fill="#000000" d="M 537.84375 515.90625 L 537.84375 477.265625 L 624.9375 476.46875 L 624.9375 516.03125 Z M 537.84375 515.90625 " fill-opacity="1" fill-rule="nonzero"/><path fill="#000000" d="M 622.09375 447.1875 C 625.886719 454.882812 625.886719 454.882812 625.261719 472.523438 L 538.542969 473.277344 C 536.644531 458.355469 536.882812 454.871094 541.023438 447.1875 Z M 622.09375 447.1875 " fill-opacity="1" fill-rule="nonzero"/><path fill="#000000" d="M 619.847656 426.84375 L 619.847656 442.179688 L 543.855469 442.179688 L 542.851562 426.84375 Z M 619.847656 426.84375 " fill-opacity="1" fill-rule="nonzero"/><path fill="#000000" d="M 661.902344 552.285156 C 664.429688 548.101562 664.984375 543.011719 665.238281 538.214844 C 665.726562 528.734375 661.050781 518.289062 650.464844 517.984375 C 649.070312 503.746094 651.148438 489.480469 650.242188 476.148438 L 650.242188 475.871094 C 650.972656 475.542969 651.652344 475.128906 652.277344 474.628906 C 655.722656 471.839844 658.542969 468.242188 658.835938 463.667969 C 658.917969 462.613281 658.863281 461.566406 658.667969 460.527344 C 658.46875 459.488281 658.136719 458.492188 657.671875 457.542969 C 657.207031 456.589844 656.625 455.71875 655.925781 454.925781 C 655.226562 454.128906 654.433594 453.441406 653.546875 452.863281 C 653.261719 452.34375 652.902344 451.878906 652.472656 451.46875 L 651.078125 450.394531 C 650.289062 449.933594 649.445312 449.644531 648.539062 449.515625 C 648.332031 449.402344 648.117188 449.300781 647.898438 449.210938 L 647.648438 449.097656 C 647.648438 448.316406 647.648438 447.535156 647.648438 446.726562 L 647.648438 338.269531 L 515.371094 338.269531 L 515.371094 434.148438 L 514.953125 449.222656 C 514.757812 449.222656 514.589844 449.390625 514.410156 449.472656 C 513.503906 449.601562 512.652344 449.894531 511.859375 450.351562 L 510.460938 451.425781 C 510.035156 451.835938 509.675781 452.300781 509.390625 452.820312 C 508.503906 453.402344 507.710938 454.089844 507.011719 454.882812 C 506.3125 455.675781 505.730469 456.550781 505.265625 457.5 C 504.800781 458.449219 504.46875 459.445312 504.269531 460.484375 C 504.074219 461.523438 504.015625 462.574219 504.101562 463.628906 C 504.394531 468.203125 507.210938 471.8125 510.65625 474.585938 C 511.308594 475.109375 512.015625 475.539062 512.777344 475.871094 C 511.828125 489.328125 513.878906 503.691406 512.542969 517.996094 C 501.925781 518.304688 497.28125 528.746094 497.769531 538.230469 C 498.019531 543.027344 498.578125 548.101562 501.101562 552.300781 C 502.578125 554.6875 504.582031 556.484375 507.113281 557.695312 C 507.226562 598.328125 507.9375 639.367188 506.597656 680.292969 C 506.054688 696.902344 504.703125 713.539062 504.410156 730.214844 C 504.410156 732.738281 502.804688 735.207031 502.066406 737.746094 C 499.722656 745.832031 496.808594 753.894531 499.511719 762.246094 L 517.285156 762.246094 C 517.117188 761.757812 516.976562 761.296875 516.835938 760.851562 L 518.023438 760.851562 C 516.234375 756.425781 515.589844 751.835938 516.085938 747.089844 C 516.34375 744.96875 516.859375 742.914062 517.632812 740.925781 C 519.363281 738.21875 521.21875 736.671875 523.308594 731.957031 C 524.144531 730.070312 524.789062 728.117188 525.25 726.101562 C 527.382812 719.828125 528.371094 711.015625 526.113281 698.421875 C 527.675781 650.761719 527.3125 602.917969 528.902344 555.253906 C 524.425781 552.941406 523.324219 548.742188 523.324219 543.722656 L 523.324219 532.261719 C 523.351562 530.984375 523.558594 529.734375 523.945312 528.515625 C 524.332031 527.296875 524.882812 526.15625 525.59375 525.09375 C 526.308594 524.035156 527.15625 523.09375 528.136719 522.277344 C 529.121094 521.457031 530.199219 520.792969 531.371094 520.285156 L 531.972656 483.289062 L 531.972656 483.050781 C 531.972656 482.578125 531.972656 482.105469 531.972656 481.65625 C 531.359375 475.800781 530.738281 469.941406 530.117188 464.074219 C 530.453125 462.011719 530.773438 460.058594 531.09375 458.160156 C 531.679688 455.078125 532.347656 451.566406 533.101562 447.535156 L 537.832031 441.859375 L 537.832031 441.59375 L 538.011719 441.359375 L 538.011719 420.105469 L 625.050781 420.105469 L 625.050781 441.34375 L 625.246094 441.582031 L 625.246094 441.847656 L 629.976562 447.523438 C 630.726562 451.550781 631.371094 455.066406 631.984375 458.148438 L 632.945312 464.058594 L 631.007812 481.644531 C 631.007812 482.117188 631.007812 482.59375 631.007812 483.039062 L 631.007812 483.273438 L 631.59375 520.242188 C 632.765625 520.75 633.84375 521.414062 634.824219 522.234375 C 635.808594 523.050781 636.65625 523.992188 637.371094 525.054688 C 638.082031 526.113281 638.632812 527.253906 639.019531 528.472656 C 639.40625 529.691406 639.613281 530.941406 639.640625 532.21875 L 639.640625 543.683594 C 639.640625 548.703125 638.246094 552.898438 633.753906 555.214844 C 635.332031 602.875 635.273438 650.71875 636.851562 698.378906 C 634.59375 710.929688 635.582031 719.785156 637.714844 726.058594 C 638.175781 728.074219 638.820312 730.027344 639.65625 731.917969 C 641.746094 736.628906 643.601562 738.175781 645.320312 740.882812 C 646.105469 742.871094 646.625 744.925781 646.878906 747.046875 C 647.375 751.785156 646.734375 756.363281 644.957031 760.78125 L 646.128906 760.78125 C 645.972656 761.226562 645.835938 761.6875 645.679688 762.175781 L 663.453125 762.175781 C 666.15625 753.808594 663.242188 745.761719 660.886719 737.675781 C 660.144531 735.136719 658.554688 732.667969 658.554688 730.144531 C 658.25 713.414062 656.910156 696.832031 656.367188 680.226562 C 654.972656 639.296875 655.738281 598.261719 655.847656 557.625 C 658.390625 556.4375 660.410156 554.660156 661.902344 552.285156 Z M 612.441406 379.917969 C 612.425781 380.953125 612.363281 381.984375 612.246094 383.007812 C 612.132812 384.035156 611.96875 385.054688 611.753906 386.066406 C 611.539062 387.078125 611.273438 388.074219 610.960938 389.058594 C 610.648438 390.042969 610.289062 391.011719 609.882812 391.960938 C 609.472656 392.910156 609.019531 393.835938 608.523438 394.742188 C 608.023438 395.648438 607.484375 396.527344 606.898438 397.378906 C 606.3125 398.230469 605.691406 399.050781 605.023438 399.84375 C 604.359375 400.632812 603.65625 401.390625 602.917969 402.113281 C 602.179688 402.835938 601.40625 403.519531 600.601562 404.167969 C 599.792969 404.8125 598.957031 405.417969 598.09375 405.984375 C 597.226562 406.546875 596.335938 407.070312 595.421875 407.546875 C 594.503906 408.023438 593.566406 408.457031 592.605469 408.839844 C 591.648438 409.226562 590.671875 409.5625 589.679688 409.855469 C 588.6875 410.144531 587.683594 410.386719 586.667969 410.578125 C 585.652344 410.769531 584.632812 410.910156 583.601562 411.003906 C 582.574219 411.09375 581.542969 411.136719 580.507812 411.125 C 579.472656 411.117188 578.445312 411.054688 577.414062 410.945312 C 576.386719 410.835938 575.367188 410.675781 574.355469 410.464844 C 573.34375 410.253906 572.34375 409.996094 571.359375 409.6875 C 570.371094 409.378906 569.402344 409.023438 568.453125 408.621094 C 567.5 408.21875 566.570312 407.769531 565.664062 407.277344 C 564.753906 406.78125 563.875 406.246094 563.019531 405.664062 C 562.164062 405.085938 561.339844 404.464844 560.542969 403.800781 C 559.75 403.140625 558.988281 402.441406 558.265625 401.707031 C 557.539062 400.972656 556.851562 400.203125 556.199219 399.398438 C 555.550781 398.597656 554.9375 397.765625 554.371094 396.902344 C 553.800781 396.039062 553.277344 395.152344 552.792969 394.238281 C 552.3125 393.324219 551.875 392.386719 551.488281 391.429688 C 551.097656 390.472656 550.753906 389.5 550.460938 388.507812 C 550.164062 387.519531 549.917969 386.515625 549.722656 385.503906 C 549.527344 384.488281 549.378906 383.46875 549.285156 382.4375 C 549.1875 381.410156 549.140625 380.378906 549.144531 379.34375 C 549.148438 378.3125 549.207031 377.28125 549.3125 376.253906 C 549.417969 375.226562 549.574219 374.207031 549.777344 373.191406 C 549.984375 372.179688 550.238281 371.179688 550.542969 370.191406 C 550.84375 369.207031 551.195312 368.234375 551.59375 367.28125 C 551.992188 366.328125 552.4375 365.398438 552.929688 364.488281 C 553.417969 363.578125 553.953125 362.695312 554.527344 361.835938 C 555.105469 360.980469 555.722656 360.152344 556.378906 359.355469 C 557.039062 358.558594 557.730469 357.792969 558.464844 357.066406 C 559.195312 356.335938 559.964844 355.644531 560.761719 354.992188 C 561.5625 354.335938 562.394531 353.722656 563.253906 353.152344 C 564.113281 352.578125 565 352.050781 565.914062 351.5625 C 566.824219 351.078125 567.757812 350.636719 568.714844 350.242188 C 569.667969 349.847656 570.640625 349.503906 571.628906 349.203125 C 572.621094 348.902344 573.621094 348.652344 574.636719 348.453125 C 575.648438 348.25 576.671875 348.101562 577.699219 348 C 578.726562 347.898438 579.757812 347.847656 580.792969 347.847656 C 581.832031 347.863281 582.871094 347.925781 583.90625 348.042969 C 584.941406 348.15625 585.96875 348.320312 586.988281 348.535156 C 588.007812 348.753906 589.015625 349.015625 590.007812 349.328125 C 591.003906 349.644531 591.976562 350.003906 592.9375 350.410156 C 593.894531 350.820312 594.832031 351.273438 595.746094 351.773438 C 596.660156 352.273438 597.546875 352.816406 598.410156 353.402344 C 599.269531 353.988281 600.101562 354.613281 600.902344 355.28125 C 601.699219 355.949219 602.464844 356.652344 603.199219 357.394531 C 603.929688 358.132812 604.625 358.910156 605.28125 359.71875 C 605.9375 360.527344 606.550781 361.367188 607.125 362.234375 C 607.699219 363.105469 608.230469 364 608.71875 364.917969 C 609.203125 365.839844 609.644531 366.78125 610.042969 367.746094 C 610.4375 368.707031 610.785156 369.6875 611.085938 370.6875 C 611.382812 371.683594 611.632812 372.695312 611.835938 373.714844 C 612.039062 374.738281 612.1875 375.765625 612.289062 376.804688 C 612.390625 377.839844 612.441406 378.878906 612.441406 379.917969 Z M 612.441406 379.917969 " fill-opacity="1" fill-rule="nonzero"/><path fill="#000000" d="M 529.867188 543.082031 L 529.867188 532.820312 C 529.867188 526.195312 535.75 520.800781 543.046875 520.757812 L 622.316406 520.226562 C 629.683594 520.226562 635.679688 525.597656 635.679688 532.304688 L 635.679688 543.25 C 635.679688 549.914062 629.738281 555.324219 622.402344 555.3125 L 543.128906 555.160156 C 535.808594 555.144531 529.867188 549.746094 529.867188 543.082031 Z M 529.867188 543.082031 " fill-opacity="1" fill-rule="nonzero"/><path fill="#000000" d="M 601.464844 379.429688 C 601.464844 380.039062 601.433594 380.648438 601.375 381.253906 C 601.3125 381.859375 601.222656 382.457031 601.105469 383.054688 C 600.984375 383.652344 600.835938 384.242188 600.660156 384.824219 C 600.480469 385.40625 600.273438 385.976562 600.039062 386.539062 C 599.808594 387.101562 599.546875 387.652344 599.257812 388.1875 C 598.96875 388.722656 598.652344 389.246094 598.3125 389.75 C 597.972656 390.257812 597.609375 390.746094 597.222656 391.214844 C 596.832031 391.683594 596.421875 392.136719 595.988281 392.566406 C 595.554688 392.996094 595.101562 393.402344 594.628906 393.789062 C 594.15625 394.175781 593.664062 394.539062 593.15625 394.875 C 592.648438 395.214844 592.125 395.527344 591.582031 395.8125 C 591.042969 396.097656 590.492188 396.359375 589.925781 396.589844 C 589.359375 396.824219 588.785156 397.027344 588.199219 397.207031 C 587.613281 397.382812 587.019531 397.53125 586.417969 397.648438 C 585.820312 397.765625 585.214844 397.855469 584.605469 397.917969 C 583.996094 397.976562 583.386719 398.003906 582.773438 398.003906 C 582.160156 398.003906 581.550781 397.976562 580.941406 397.917969 C 580.332031 397.855469 579.726562 397.765625 579.125 397.648438 C 578.527344 397.53125 577.933594 397.382812 577.347656 397.207031 C 576.761719 397.027344 576.183594 396.824219 575.621094 396.589844 C 575.054688 396.359375 574.5 396.097656 573.960938 395.8125 C 573.421875 395.527344 572.898438 395.214844 572.386719 394.875 C 571.878906 394.539062 571.386719 394.175781 570.914062 393.789062 C 570.441406 393.402344 569.988281 392.996094 569.554688 392.566406 C 569.125 392.136719 568.710938 391.683594 568.324219 391.214844 C 567.9375 390.746094 567.570312 390.257812 567.230469 389.75 C 566.890625 389.246094 566.578125 388.722656 566.289062 388.1875 C 566 387.652344 565.738281 387.101562 565.503906 386.539062 C 565.269531 385.976562 565.0625 385.40625 564.886719 384.824219 C 564.707031 384.242188 564.558594 383.652344 564.441406 383.054688 C 564.320312 382.457031 564.230469 381.859375 564.171875 381.253906 C 564.113281 380.648438 564.082031 380.039062 564.082031 379.429688 C 564.082031 378.824219 564.113281 378.214844 564.171875 377.609375 C 564.230469 377.003906 564.320312 376.40625 564.441406 375.808594 C 564.558594 375.210938 564.707031 374.621094 564.886719 374.039062 C 565.0625 373.457031 565.269531 372.886719 565.503906 372.324219 C 565.738281 371.761719 566 371.210938 566.289062 370.675781 C 566.578125 370.140625 566.890625 369.617188 567.230469 369.113281 C 567.570312 368.605469 567.9375 368.117188 568.324219 367.648438 C 568.710938 367.179688 569.125 366.726562 569.554688 366.296875 C 569.988281 365.867188 570.441406 365.460938 570.914062 365.074219 C 571.386719 364.6875 571.878906 364.324219 572.386719 363.988281 C 572.898438 363.648438 573.421875 363.335938 573.960938 363.050781 C 574.5 362.765625 575.054688 362.503906 575.621094 362.273438 C 576.183594 362.039062 576.761719 361.835938 577.347656 361.65625 C 577.933594 361.480469 578.527344 361.332031 579.125 361.214844 C 579.726562 361.097656 580.332031 361.007812 580.941406 360.945312 C 581.550781 360.886719 582.160156 360.859375 582.773438 360.859375 C 583.386719 360.859375 583.996094 360.886719 584.605469 360.945312 C 585.214844 361.007812 585.820312 361.097656 586.417969 361.214844 C 587.019531 361.332031 587.613281 361.480469 588.199219 361.65625 C 588.785156 361.835938 589.359375 362.039062 589.925781 362.273438 C 590.492188 362.503906 591.042969 362.765625 591.582031 363.050781 C 592.125 363.335938 592.648438 363.648438 593.15625 363.988281 C 593.664062 364.324219 594.15625 364.6875 594.628906 365.074219 C 595.101562 365.460938 595.554688 365.867188 595.988281 366.296875 C 596.421875 366.726562 596.832031 367.179688 597.222656 367.648438 C 597.609375 368.117188 597.972656 368.605469 598.3125 369.113281 C 598.652344 369.617188 598.96875 370.140625 599.257812 370.675781 C 599.546875 371.210938 599.808594 371.761719 600.039062 372.324219 C 600.273438 372.886719 600.480469 373.457031 600.660156 374.039062 C 600.835938 374.621094 600.984375 375.210938 601.105469 375.808594 C 601.222656 376.40625 601.3125 377.003906 601.375 377.609375 C 601.433594 378.214844 601.464844 378.824219 601.464844 379.429688 Z M 601.464844 379.429688 " fill-opacity="1" fill-rule="nonzero"/><path fill="#000000" d="M 279.097656 704.125 L 180.996094 704.613281 C 181.515625 656.570312 182.042969 608.542969 182.570312 560.527344 L 276.585938 559.410156 Z M 279.097656 704.125 " fill-opacity="1" fill-rule="nonzero"/><g clip-path="url(#501c0ad1ee)"><path fill="#000000" d="M 174.621094 763.445312 C 173.667969 760.941406 173.070312 758.359375 172.835938 755.691406 C 172.597656 753.023438 172.726562 750.375 173.226562 747.742188 C 174.371094 742.261719 176.824219 739.65625 178.890625 735.195312 C 181.164062 730.285156 183.171875 722.714844 181.273438 711.320312 L 279.304688 710.722656 C 276.933594 723.117188 278.957031 731.402344 281.398438 736.769531 C 283.839844 742.136719 287.660156 746.738281 287.0625 753.503906 C 286.664062 757.160156 285.339844 760.441406 283.085938 763.347656 Z M 174.621094 763.445312 " fill-opacity="1" fill-rule="nonzero"/></g><path fill="#000000" d="M 186.046875 515.597656 L 186.046875 476.722656 L 273.140625 475.925781 L 273.140625 515.738281 Z M 186.046875 515.597656 " fill-opacity="1" fill-rule="nonzero"/><path fill="#000000" d="M 270.296875 446.460938 C 274.089844 454.214844 274.089844 454.214844 273.460938 471.953125 L 186.742188 472.71875 C 184.84375 457.703125 185.070312 454.199219 189.226562 446.460938 Z M 270.296875 446.460938 " fill-opacity="1" fill-rule="nonzero"/><path fill="#000000" d="M 268.019531 425.992188 L 268.019531 441.457031 L 192.058594 441.457031 C 191.722656 436.296875 191.382812 431.132812 191.039062 425.964844 Z M 268.019531 425.992188 " fill-opacity="1" fill-rule="nonzero"/><g clip-path="url(#d6702e6b55)"><path fill="#000000" d="M 310.089844 552.214844 C 312.628906 548.03125 313.1875 542.886719 313.425781 538.046875 C 313.914062 528.511719 309.238281 517.996094 298.652344 517.703125 C 297.257812 503.382812 299.351562 489.019531 298.445312 475.550781 C 298.4375 475.457031 298.4375 475.363281 298.445312 475.269531 C 299.167969 474.941406 299.84375 474.527344 300.464844 474.03125 C 303.910156 471.242188 306.742188 467.585938 307.035156 463 C 307.121094 461.941406 307.0625 460.886719 306.867188 459.84375 C 306.667969 458.796875 306.339844 457.796875 305.875 456.84375 C 305.410156 455.886719 304.828125 455.007812 304.128906 454.207031 C 303.425781 453.40625 302.636719 452.710938 301.75 452.125 C 301.464844 451.597656 301.101562 451.132812 300.660156 450.730469 L 299.265625 449.640625 C 298.476562 449.183594 297.632812 448.890625 296.726562 448.761719 C 296.519531 448.664062 296.308594 448.539062 296.085938 448.457031 L 295.835938 448.34375 C 295.835938 447.5625 295.835938 446.769531 295.835938 445.960938 L 295.835938 336.875 L 163.558594 336.875 L 163.558594 433.355469 L 163.140625 448.429688 L 162.597656 448.679688 C 161.695312 448.804688 160.847656 449.097656 160.058594 449.558594 L 158.664062 450.644531 C 158.230469 451.050781 157.871094 451.515625 157.589844 452.039062 C 156.703125 452.625 155.90625 453.320312 155.207031 454.121094 C 154.503906 454.921875 153.921875 455.796875 153.453125 456.753906 C 152.988281 457.710938 152.65625 458.710938 152.460938 459.757812 C 152.261719 460.804688 152.203125 461.855469 152.289062 462.917969 C 152.582031 467.503906 155.414062 471.144531 158.859375 473.945312 C 159.503906 474.46875 160.207031 474.898438 160.964844 475.230469 C 160.03125 488.769531 162.082031 503.214844 160.742188 517.621094 C 150.128906 517.914062 145.484375 528.425781 145.972656 537.964844 C 146.222656 542.804688 146.765625 547.90625 149.304688 552.132812 C 150.78125 554.527344 152.785156 556.339844 155.316406 557.570312 C 155.429688 598.441406 156.140625 639.730469 154.800781 680.921875 C 154.257812 697.65625 152.902344 714.386719 152.597656 731.121094 C 152.597656 733.660156 151.007812 736.140625 150.265625 738.707031 C 147.921875 746.835938 144.996094 754.953125 147.714844 763.347656 L 165.472656 763.347656 C 165.304688 762.875 165.164062 762.414062 165.023438 761.953125 L 166.183594 761.953125 C 164.421875 757.535156 163.78125 752.960938 164.257812 748.230469 C 164.507812 746.097656 165.027344 744.027344 165.804688 742.027344 C 167.535156 739.308594 169.390625 737.757812 171.484375 733.019531 C 172.335938 731.101562 173.003906 729.121094 173.492188 727.078125 C 175.625 720.773438 176.601562 711.90625 174.355469 699.1875 C 175.917969 651.234375 175.542969 603.097656 177.144531 555.144531 C 172.667969 552.816406 171.566406 548.589844 171.566406 543.542969 L 171.566406 532.09375 C 171.59375 530.808594 171.800781 529.554688 172.1875 528.332031 C 172.570312 527.105469 173.121094 525.960938 173.835938 524.890625 C 174.550781 523.824219 175.398438 522.878906 176.386719 522.054688 C 177.371094 521.230469 178.453125 520.5625 179.628906 520.046875 C 179.824219 507.636719 180.015625 495.234375 180.199219 482.84375 L 180.199219 482.605469 C 180.199219 482.132812 180.199219 481.65625 180.199219 481.210938 L 178.359375 463.515625 C 178.695312 461.453125 179.015625 459.484375 179.320312 457.574219 L 181.34375 446.878906 L 186.046875 441.09375 L 186.046875 440.816406 L 186.242188 440.578125 L 186.242188 419.214844 L 273.28125 419.214844 L 273.28125 440.578125 L 273.476562 440.816406 L 273.476562 441.09375 L 278.191406 446.796875 L 280.210938 457.492188 C 280.519531 459.402344 280.839844 461.367188 281.175781 463.433594 L 279.332031 481.128906 C 279.332031 481.617188 279.332031 482.089844 279.332031 482.523438 L 279.332031 482.757812 L 279.917969 519.960938 C 281.09375 520.488281 282.167969 521.167969 283.144531 522.003906 C 284.121094 522.839844 284.964844 523.792969 285.667969 524.867188 C 286.371094 525.941406 286.910156 527.09375 287.285156 528.324219 C 287.660156 529.550781 287.855469 530.808594 287.871094 532.09375 L 287.871094 543.625 C 287.871094 548.675781 286.476562 552.898438 281.984375 555.226562 C 283.546875 603.183594 283.503906 651.320312 285.082031 699.273438 C 282.820312 711.949219 283.8125 720.816406 285.945312 727.160156 C 286.402344 729.191406 287.042969 731.164062 287.871094 733.074219 C 289.976562 737.816406 291.832031 739.363281 293.546875 742.082031 C 294.332031 744.066406 294.859375 746.113281 295.125 748.230469 C 295.628906 753.007812 294.984375 757.621094 293.199219 762.078125 L 294.355469 762.078125 C 294.21875 762.539062 294.078125 763 293.925781 763.472656 L 311.695312 763.472656 C 314.402344 755.105469 311.484375 746.960938 309.128906 738.832031 C 308.390625 736.265625 306.796875 733.785156 306.796875 731.246094 C 306.492188 714.515625 305.152344 697.78125 304.59375 681.046875 C 303.199219 639.855469 303.96875 598.566406 304.078125 557.695312 C 306.621094 556.457031 308.625 554.632812 310.089844 552.214844 Z M 260.640625 378.789062 C 260.644531 379.832031 260.59375 380.875 260.492188 381.910156 C 260.390625 382.949219 260.238281 383.980469 260.039062 385.003906 C 259.835938 386.027344 259.585938 387.039062 259.285156 388.039062 C 258.988281 389.035156 258.640625 390.019531 258.246094 390.984375 C 257.851562 391.949219 257.410156 392.894531 256.921875 393.816406 C 256.4375 394.738281 255.90625 395.636719 255.332031 396.507812 C 254.757812 397.378906 254.144531 398.21875 253.488281 399.03125 C 252.832031 399.839844 252.136719 400.617188 251.40625 401.363281 C 250.675781 402.105469 249.910156 402.8125 249.109375 403.484375 C 248.3125 404.152344 247.480469 404.78125 246.617188 405.371094 C 245.757812 405.957031 244.871094 406.503906 243.957031 407.007812 C 243.042969 407.507812 242.105469 407.96875 241.148438 408.378906 C 240.1875 408.789062 239.210938 409.15625 238.21875 409.472656 C 237.222656 409.789062 236.21875 410.054688 235.195312 410.273438 C 234.175781 410.492188 233.148438 410.664062 232.113281 410.78125 C 231.074219 410.902344 230.035156 410.96875 228.992188 410.988281 C 227.953125 410.964844 226.914062 410.894531 225.878906 410.773438 C 224.847656 410.648438 223.820312 410.476562 222.804688 410.257812 C 221.785156 410.035156 220.78125 409.765625 219.789062 409.445312 C 218.800781 409.125 217.824219 408.761719 216.871094 408.347656 C 215.914062 407.933594 214.980469 407.476562 214.070312 406.972656 C 213.160156 406.46875 212.273438 405.921875 211.414062 405.332031 C 210.558594 404.742188 209.730469 404.113281 208.933594 403.441406 C 208.136719 402.773438 207.371094 402.066406 206.644531 401.320312 C 205.914062 400.578125 205.222656 399.800781 204.570312 398.992188 C 203.917969 398.179688 203.304688 397.339844 202.734375 396.46875 C 202.160156 395.597656 201.632812 394.703125 201.148438 393.78125 C 200.664062 392.859375 200.222656 391.917969 199.832031 390.953125 C 199.4375 389.992188 199.089844 389.011719 198.792969 388.011719 C 198.496094 387.015625 198.246094 386.007812 198.046875 384.984375 C 197.84375 383.964844 197.695312 382.933594 197.59375 381.898438 C 197.492188 380.863281 197.441406 379.824219 197.441406 378.78125 C 197.441406 377.742188 197.492188 376.703125 197.59375 375.667969 C 197.695312 374.632812 197.84375 373.601562 198.046875 372.582031 C 198.246094 371.558594 198.496094 370.550781 198.792969 369.554688 C 199.089844 368.554688 199.4375 367.574219 199.832031 366.613281 C 200.222656 365.648438 200.664062 364.707031 201.148438 363.785156 C 201.632812 362.863281 202.160156 361.96875 202.734375 361.097656 C 203.304688 360.226562 203.917969 359.386719 204.570312 358.574219 C 205.222656 357.765625 205.914062 356.988281 206.644531 356.246094 C 207.371094 355.5 208.136719 354.792969 208.933594 354.125 C 209.730469 353.453125 210.558594 352.824219 211.414062 352.234375 C 212.273438 351.644531 213.160156 351.097656 214.070312 350.59375 C 214.980469 350.089844 215.914062 349.632812 216.871094 349.21875 C 217.824219 348.804688 218.800781 348.441406 219.789062 348.121094 C 220.78125 347.800781 221.785156 347.53125 222.804688 347.308594 C 223.820312 347.089844 224.847656 346.917969 225.878906 346.792969 C 226.914062 346.671875 227.953125 346.601562 228.992188 346.578125 C 230.035156 346.597656 231.078125 346.667969 232.113281 346.785156 C 233.148438 346.90625 234.179688 347.074219 235.199219 347.292969 C 236.21875 347.511719 237.226562 347.78125 238.21875 348.097656 C 239.214844 348.417969 240.191406 348.78125 241.148438 349.191406 C 242.105469 349.605469 243.042969 350.0625 243.957031 350.566406 C 244.871094 351.066406 245.757812 351.613281 246.621094 352.203125 C 247.480469 352.792969 248.3125 353.421875 249.113281 354.09375 C 249.910156 354.761719 250.675781 355.46875 251.410156 356.214844 C 252.140625 356.957031 252.832031 357.734375 253.488281 358.546875 C 254.144531 359.359375 254.757812 360.199219 255.332031 361.070312 C 255.90625 361.941406 256.4375 362.839844 256.921875 363.761719 C 257.410156 364.683594 257.851562 365.628906 258.246094 366.59375 C 258.640625 367.558594 258.988281 368.542969 259.289062 369.542969 C 259.585938 370.539062 259.835938 371.550781 260.039062 372.574219 C 260.238281 373.597656 260.390625 374.628906 260.492188 375.667969 C 260.59375 376.707031 260.644531 377.746094 260.640625 378.789062 Z M 260.640625 378.789062 " fill-opacity="1" fill-rule="nonzero"/></g><path fill="#000000" d="M 178.066406 542.957031 L 178.066406 532.625 C 178.066406 525.957031 183.953125 520.535156 191.246094 520.492188 L 270.519531 519.960938 C 277.882812 519.960938 283.882812 525.359375 283.882812 532.109375 L 283.882812 543.039062 C 283.882812 549.761719 277.925781 555.199219 270.589844 555.1875 L 191.316406 555.101562 C 183.996094 555.089844 178.066406 549.664062 178.066406 542.957031 Z M 178.066406 542.957031 " fill-opacity="1" fill-rule="nonzero"/><path fill="#000000" d="M 249.664062 378.300781 C 249.664062 378.914062 249.636719 379.523438 249.574219 380.132812 C 249.515625 380.742188 249.425781 381.347656 249.304688 381.949219 C 249.1875 382.546875 249.039062 383.140625 248.859375 383.726562 C 248.683594 384.3125 248.476562 384.886719 248.242188 385.453125 C 248.007812 386.019531 247.746094 386.570312 247.457031 387.109375 C 247.167969 387.648438 246.855469 388.175781 246.515625 388.683594 C 246.175781 389.191406 245.8125 389.683594 245.421875 390.15625 C 245.035156 390.628906 244.625 391.082031 244.191406 391.515625 C 243.757812 391.949219 243.304688 392.359375 242.832031 392.746094 C 242.359375 393.132812 241.867188 393.5 241.359375 393.839844 C 240.847656 394.179688 240.324219 394.492188 239.785156 394.78125 C 239.246094 395.070312 238.691406 395.332031 238.125 395.566406 C 237.5625 395.800781 236.984375 396.003906 236.398438 396.183594 C 235.8125 396.359375 235.21875 396.507812 234.621094 396.628906 C 234.019531 396.746094 233.414062 396.835938 232.804688 396.898438 C 232.195312 396.957031 231.585938 396.988281 230.972656 396.988281 C 230.363281 396.988281 229.75 396.957031 229.140625 396.898438 C 228.53125 396.835938 227.925781 396.746094 227.328125 396.628906 C 226.726562 396.507812 226.132812 396.359375 225.546875 396.183594 C 224.960938 396.003906 224.386719 395.800781 223.820312 395.566406 C 223.253906 395.332031 222.703125 395.070312 222.164062 394.78125 C 221.621094 394.492188 221.097656 394.179688 220.589844 393.839844 C 220.082031 393.5 219.589844 393.132812 219.117188 392.746094 C 218.644531 392.359375 218.191406 391.949219 217.757812 391.515625 C 217.324219 391.082031 216.914062 390.628906 216.523438 390.15625 C 216.136719 389.683594 215.773438 389.191406 215.433594 388.683594 C 215.09375 388.175781 214.777344 387.648438 214.488281 387.109375 C 214.199219 386.570312 213.941406 386.019531 213.707031 385.453125 C 213.472656 384.886719 213.265625 384.3125 213.085938 383.726562 C 212.910156 383.140625 212.761719 382.546875 212.640625 381.949219 C 212.523438 381.347656 212.433594 380.742188 212.371094 380.132812 C 212.3125 379.523438 212.28125 378.914062 212.28125 378.300781 C 212.28125 377.691406 212.3125 377.078125 212.371094 376.46875 C 212.433594 375.863281 212.523438 375.257812 212.640625 374.65625 C 212.761719 374.054688 212.910156 373.464844 213.085938 372.878906 C 213.265625 372.292969 213.472656 371.71875 213.707031 371.152344 C 213.941406 370.585938 214.199219 370.035156 214.488281 369.492188 C 214.777344 368.953125 215.09375 368.429688 215.433594 367.921875 C 215.773438 367.414062 216.136719 366.921875 216.523438 366.449219 C 216.914062 365.976562 217.324219 365.523438 217.757812 365.089844 C 218.191406 364.65625 218.644531 364.246094 219.117188 363.859375 C 219.589844 363.46875 220.082031 363.105469 220.589844 362.765625 C 221.097656 362.425781 221.621094 362.113281 222.164062 361.824219 C 222.703125 361.535156 223.253906 361.273438 223.820312 361.039062 C 224.386719 360.804688 224.960938 360.597656 225.546875 360.421875 C 226.132812 360.242188 226.726562 360.09375 227.328125 359.976562 C 227.925781 359.855469 228.53125 359.765625 229.140625 359.707031 C 229.75 359.648438 230.363281 359.617188 230.972656 359.617188 C 231.585938 359.617188 232.195312 359.648438 232.804688 359.707031 C 233.414062 359.765625 234.019531 359.855469 234.621094 359.976562 C 235.21875 360.09375 235.8125 360.242188 236.398438 360.421875 C 236.984375 360.597656 237.5625 360.804688 238.125 361.039062 C 238.691406 361.273438 239.246094 361.535156 239.785156 361.824219 C 240.324219 362.113281 240.847656 362.425781 241.359375 362.765625 C 241.867188 363.105469 242.359375 363.46875 242.832031 363.859375 C 243.304688 364.246094 243.757812 364.65625 244.191406 365.089844 C 244.625 365.523438 245.035156 365.976562 245.421875 366.449219 C 245.8125 366.921875 246.175781 367.414062 246.515625 367.921875 C 246.855469 368.429688 247.167969 368.953125 247.457031 369.492188 C 247.746094 370.035156 248.007812 370.585938 248.242188 371.152344 C 248.476562 371.71875 248.683594 372.292969 248.859375 372.878906 C 249.039062 373.464844 249.1875 374.054688 249.304688 374.65625 C 249.425781 375.257812 249.515625 375.863281 249.574219 376.46875 C 249.636719 377.078125 249.664062 377.691406 249.664062 378.300781 Z M 249.664062 378.300781 " fill-opacity="1" fill-rule="nonzero"/><g clip-path="url(#6bb798e6a3)"><path fill="#000000" d="M 495.707031 740.117188 C 496.402344 737.550781 497.894531 735.054688 497.894531 732.503906 C 498.1875 715.65625 499.457031 698.855469 499.972656 682.09375 C 501.230469 640.75 500.558594 599.304688 500.460938 558.269531 C 498.039062 557 496.148438 555.179688 494.796875 552.800781 C 492.414062 548.617188 491.882812 543.445312 491.644531 538.59375 C 491.199219 529.011719 495.566406 518.46875 505.59375 518.164062 C 506.863281 503.703125 504.925781 489.203125 505.816406 475.621094 C 505.089844 475.277344 504.425781 474.839844 503.824219 474.308594 C 500.574219 471.519531 497.910156 467.867188 497.644531 463.25 C 497.554688 462.203125 497.605469 461.15625 497.785156 460.121094 C 497.96875 459.082031 498.28125 458.085938 498.722656 457.128906 C 499.164062 456.171875 499.71875 455.289062 500.390625 454.476562 C 501.0625 453.660156 501.824219 452.949219 502.679688 452.332031 C 502.945312 451.8125 503.285156 451.347656 503.699219 450.9375 L 505.023438 449.835938 C 505.390625 449.621094 505.769531 449.433594 506.167969 449.277344 C 506.082031 410.765625 505.984375 376.671875 505.902344 338.140625 L 304.496094 338.378906 C 304.316406 376.40625 304.148438 410.011719 303.96875 448.039062 C 304.257812 448.148438 304.539062 448.28125 304.804688 448.441406 L 306.199219 449.542969 C 306.609375 449.953125 306.945312 450.417969 307.203125 450.9375 C 308.050781 451.558594 308.808594 452.273438 309.472656 453.089844 C 310.140625 453.902344 310.691406 454.789062 311.125 455.746094 C 311.5625 456.699219 311.875 457.695312 312.054688 458.730469 C 312.234375 459.765625 312.285156 460.808594 312.195312 461.855469 C 311.917969 466.472656 309.253906 470.113281 306.003906 472.929688 C 305.425781 473.433594 304.789062 473.851562 304.09375 474.183594 C 304.09375 474.28125 304.09375 474.363281 304.09375 474.460938 C 304.945312 487.972656 303.03125 502.351562 304.289062 516.785156 C 314.289062 517.078125 318.667969 527.632812 318.238281 537.210938 C 318 542.066406 317.484375 547.183594 315.097656 551.421875 C 313.746094 553.792969 311.855469 555.609375 309.433594 556.875 C 309.324219 597.910156 308.652344 639.367188 309.910156 680.699219 C 310.425781 697.433594 311.695312 714.277344 311.988281 731.121094 C 311.988281 733.671875 313.480469 736.15625 314.175781 738.734375 C 316.394531 746.863281 319.128906 754.996094 316.617188 763.390625 L 332.253906 763.457031 C 332.8125 754.742188 332.8125 754.742188 328.503906 748.121094 C 328.503906 656.625 328.503906 565.136719 328.503906 473.652344 C 329.535156 473.71875 330.542969 473.597656 331.527344 473.289062 C 332.511719 472.984375 333.410156 472.507812 334.222656 471.867188 C 338.53125 468.230469 338.671875 459.320312 334.375 455.664062 C 333.515625 455 332.5625 454.519531 331.515625 454.226562 C 330.46875 453.929688 329.402344 453.84375 328.320312 453.964844 C 330.789062 434.441406 334.554688 415.796875 346.957031 399.945312 C 359.804688 383.53125 376.320312 376.53125 396.097656 373.824219 L 392.765625 346.214844 C 393.738281 345.53125 394.761719 344.929688 395.828125 344.402344 C 396.898438 343.875 398 343.433594 399.132812 343.074219 C 400.269531 342.714844 401.425781 342.445312 402.601562 342.265625 C 403.78125 342.082031 404.964844 341.992188 406.15625 341.992188 C 407.34375 341.992188 408.53125 342.082031 409.707031 342.265625 C 410.882812 342.445312 412.039062 342.714844 413.175781 343.074219 C 414.3125 343.433594 415.414062 343.875 416.480469 344.402344 C 417.546875 344.929688 418.570312 345.53125 419.546875 346.214844 C 418.765625 355.585938 417.988281 364.957031 417.214844 374.328125 C 437.164062 376.183594 453.246094 385.234375 465.4375 400.738281 C 477.628906 416.246094 481.9375 434.859375 482.84375 454.675781 C 481.738281 454.464844 480.632812 454.46875 479.527344 454.6875 C 478.425781 454.90625 477.402344 455.320312 476.457031 455.929688 C 471.199219 459.710938 470.875 471.183594 476.234375 475.578125 C 477.34375 476.386719 478.570312 476.941406 479.910156 477.246094 C 481.25 477.554688 482.59375 477.582031 483.945312 477.335938 L 483.945312 748.105469 L 478.703125 755.648438 C 479.050781 758.4375 479.328125 761.089844 479.582031 763.320312 L 492.789062 762.734375 C 491.226562 755.050781 493.683594 747.589844 495.707031 740.117188 Z M 495.707031 740.117188 " fill-opacity="1" fill-rule="nonzero"/></g><path fill="#000000" d="M 323.816406 98.816406 L 482.328125 98.816406 C 482.914062 98.816406 483.496094 98.871094 484.070312 98.988281 C 484.644531 99.101562 485.203125 99.269531 485.746094 99.496094 C 486.285156 99.71875 486.800781 99.992188 487.289062 100.320312 C 487.777344 100.644531 488.226562 101.015625 488.640625 101.429688 C 489.054688 101.84375 489.425781 102.292969 489.75 102.78125 C 490.078125 103.269531 490.351562 103.785156 490.574219 104.324219 C 490.800781 104.867188 490.96875 105.425781 491.082031 106 C 491.199219 106.574219 491.253906 107.152344 491.253906 107.738281 L 491.253906 116.261719 L 314.890625 116.261719 L 314.890625 107.738281 C 314.890625 107.152344 314.945312 106.574219 315.058594 106 C 315.175781 105.425781 315.34375 104.867188 315.570312 104.324219 C 315.792969 103.785156 316.066406 103.269531 316.394531 102.78125 C 316.71875 102.292969 317.089844 101.84375 317.503906 101.429688 C 317.917969 101.015625 318.367188 100.644531 318.855469 100.320312 C 319.34375 99.992188 319.859375 99.71875 320.398438 99.496094 C 320.941406 99.269531 321.5 99.101562 322.074219 98.988281 C 322.648438 98.871094 323.230469 98.816406 323.816406 98.816406 Z M 323.816406 98.816406 " fill-opacity="1" fill-rule="nonzero"/><g clip-path="url(#5553d8e2c0)"><path fill="#000000" d="M 455.867188 79.433594 L 442.855469 79.433594 C 442.769531 78.914062 442.640625 78.40625 442.46875 77.910156 C 442.296875 77.414062 442.082031 76.9375 441.824219 76.476562 C 441.566406 76.019531 441.269531 75.585938 440.9375 75.179688 C 440.601562 74.777344 440.234375 74.402344 439.835938 74.0625 C 439.433594 73.71875 439.007812 73.417969 438.554688 73.152344 C 438.101562 72.886719 437.628906 72.660156 437.132812 72.480469 C 436.640625 72.296875 436.136719 72.160156 435.617188 72.070312 C 435.101562 71.976562 434.578125 71.929688 434.050781 71.929688 L 372.078125 71.929688 C 371.550781 71.929688 371.03125 71.976562 370.511719 72.070312 C 369.996094 72.160156 369.488281 72.296875 368.996094 72.480469 C 368.503906 72.660156 368.03125 72.886719 367.574219 73.152344 C 367.121094 73.417969 366.695312 73.71875 366.292969 74.0625 C 365.894531 74.402344 365.527344 74.777344 365.195312 75.179688 C 364.859375 75.585938 364.5625 76.019531 364.304688 76.476562 C 364.050781 76.9375 363.832031 77.414062 363.660156 77.910156 C 363.488281 78.40625 363.359375 78.914062 363.277344 79.433594 L 350.277344 79.433594 C 349.691406 79.433594 349.109375 79.488281 348.535156 79.605469 C 347.960938 79.71875 347.402344 79.886719 346.859375 80.113281 C 346.320312 80.335938 345.804688 80.613281 345.316406 80.9375 C 344.828125 81.261719 344.378906 81.632812 343.964844 82.046875 C 343.550781 82.460938 343.179688 82.910156 342.855469 83.398438 C 342.527344 83.886719 342.253906 84.402344 342.027344 84.941406 C 341.804688 85.484375 341.636719 86.042969 341.519531 86.617188 C 341.40625 87.191406 341.347656 87.769531 341.347656 88.355469 L 341.347656 96.878906 L 464.796875 96.878906 L 464.796875 88.355469 C 464.792969 87.773438 464.734375 87.191406 464.621094 86.617188 C 464.507812 86.042969 464.335938 85.484375 464.113281 84.945312 C 463.886719 84.402344 463.613281 83.890625 463.285156 83.402344 C 462.960938 82.914062 462.589844 82.464844 462.175781 82.050781 C 461.761719 81.636719 461.3125 81.265625 460.824219 80.941406 C 460.335938 80.617188 459.824219 80.339844 459.28125 80.117188 C 458.742188 79.890625 458.183594 79.722656 457.609375 79.605469 C 457.035156 79.492188 456.453125 79.433594 455.867188 79.433594 Z M 455.867188 79.433594 " fill-opacity="1" fill-rule="nonzero"/></g><path fill="#000000" d="M 215.65625 152.070312 L 215.65625 197.722656 L 467.625 197.722656 C 488.230469 197.722656 508.789062 197.640625 529.503906 197.722656 C 550.214844 197.804688 570.832031 197.417969 591.699219 198 L 591.699219 150.910156 C 532.304688 148.804688 228.324219 149.796875 215.65625 152.070312 Z M 313.980469 176.511719 C 313.898438 177.148438 313.785156 177.773438 313.644531 178.398438 C 313.503906 179.019531 313.335938 179.636719 313.136719 180.242188 C 312.9375 180.851562 312.710938 181.449219 312.457031 182.035156 C 312.203125 182.621094 311.921875 183.195312 311.613281 183.753906 C 311.308594 184.3125 310.976562 184.859375 310.617188 185.386719 C 310.261719 185.917969 309.878906 186.429688 309.472656 186.921875 C 309.066406 187.417969 308.640625 187.890625 308.191406 188.347656 C 307.742188 188.800781 307.273438 189.234375 306.785156 189.644531 C 306.292969 190.054688 305.785156 190.441406 305.261719 190.804688 C 304.734375 191.167969 304.195312 191.507812 303.636719 191.820312 C 303.082031 192.136719 302.511719 192.421875 301.925781 192.683594 C 301.34375 192.945312 300.75 193.175781 300.144531 193.382812 C 299.539062 193.585938 298.925781 193.765625 298.304688 193.914062 C 297.683594 194.0625 297.054688 194.179688 296.421875 194.273438 C 295.789062 194.363281 295.15625 194.421875 294.515625 194.453125 C 293.878906 194.484375 293.242188 194.488281 292.601562 194.460938 C 291.964844 194.433594 291.328125 194.375 290.695312 194.289062 C 290.0625 194.203125 289.433594 194.085938 288.8125 193.941406 C 288.1875 193.796875 287.574219 193.621094 286.96875 193.421875 C 286.363281 193.21875 285.765625 192.988281 285.179688 192.730469 C 284.597656 192.472656 284.023438 192.191406 283.464844 191.878906 C 282.90625 191.570312 282.363281 191.234375 281.835938 190.875 C 281.308594 190.511719 280.800781 190.128906 280.308594 189.71875 C 279.816406 189.3125 279.34375 188.882812 278.890625 188.429688 C 278.441406 187.980469 278.011719 187.507812 277.601562 187.015625 C 277.195312 186.523438 276.808594 186.015625 276.449219 185.488281 C 276.089844 184.960938 275.753906 184.417969 275.441406 183.859375 C 275.132812 183.300781 274.847656 182.730469 274.589844 182.144531 C 274.332031 181.558594 274.101562 180.964844 273.902344 180.359375 C 273.699219 179.75 273.527344 179.136719 273.378906 178.515625 C 273.234375 177.894531 273.121094 177.265625 273.03125 176.632812 C 272.945312 176 272.890625 175.363281 272.859375 174.726562 C 272.832031 174.085938 272.835938 173.449219 272.867188 172.8125 C 272.898438 172.171875 272.960938 171.539062 273.050781 170.90625 C 273.140625 170.273438 273.257812 169.644531 273.410156 169.023438 C 273.558594 168.402344 273.734375 167.789062 273.941406 167.183594 C 274.144531 166.582031 274.378906 165.984375 274.640625 165.402344 C 274.898438 164.820312 275.1875 164.25 275.5 163.691406 C 275.8125 163.136719 276.152344 162.59375 276.515625 162.070312 C 276.878906 161.542969 277.269531 161.039062 277.679688 160.546875 C 278.089844 160.058594 278.523438 159.589844 278.976562 159.140625 C 279.433594 158.691406 279.90625 158.265625 280.398438 157.859375 C 280.894531 157.453125 281.40625 157.074219 281.9375 156.714844 C 282.464844 156.359375 283.011719 156.023438 283.570312 155.71875 C 284.132812 155.410156 284.703125 155.128906 285.292969 154.875 C 285.878906 154.625 286.476562 154.398438 287.082031 154.199219 C 287.691406 154 288.304688 153.828125 288.929688 153.6875 C 289.550781 153.546875 290.179688 153.433594 290.8125 153.351562 C 291.59375 153.25 292.382812 153.195312 293.167969 153.183594 C 293.957031 153.171875 294.746094 153.207031 295.53125 153.285156 C 296.3125 153.363281 297.09375 153.484375 297.863281 153.652344 C 298.632812 153.820312 299.390625 154.03125 300.136719 154.285156 C 300.886719 154.539062 301.613281 154.835938 302.328125 155.175781 C 303.039062 155.511719 303.730469 155.890625 304.402344 156.304688 C 305.070312 156.722656 305.714844 157.175781 306.332031 157.667969 C 306.949219 158.15625 307.535156 158.679688 308.09375 159.238281 C 308.652344 159.796875 309.175781 160.382812 309.667969 161 C 310.15625 161.617188 310.609375 162.261719 311.027344 162.929688 C 311.445312 163.601562 311.820312 164.289062 312.160156 165.003906 C 312.496094 165.714844 312.792969 166.445312 313.046875 167.191406 C 313.300781 167.9375 313.511719 168.695312 313.679688 169.464844 C 313.847656 170.238281 313.972656 171.015625 314.050781 171.800781 C 314.128906 172.582031 314.164062 173.371094 314.152344 174.15625 C 314.140625 174.945312 314.082031 175.730469 313.980469 176.511719 Z M 481.757812 180.167969 C 481.757812 180.625 481.710938 181.078125 481.621094 181.527344 C 481.53125 181.976562 481.402344 182.414062 481.226562 182.835938 C 481.050781 183.257812 480.835938 183.660156 480.582031 184.039062 C 480.328125 184.421875 480.039062 184.773438 479.714844 185.097656 C 479.390625 185.421875 479.039062 185.710938 478.65625 185.964844 C 478.277344 186.21875 477.875 186.433594 477.449219 186.609375 C 477.027344 186.785156 476.59375 186.914062 476.144531 187.003906 C 475.695312 187.09375 475.238281 187.140625 474.78125 187.140625 L 333.480469 187.140625 C 333.023438 187.140625 332.570312 187.09375 332.121094 187.003906 C 331.671875 186.914062 331.238281 186.785156 330.8125 186.609375 C 330.390625 186.433594 329.988281 186.21875 329.609375 185.964844 C 329.226562 185.710938 328.875 185.421875 328.550781 185.097656 C 328.226562 184.773438 327.9375 184.421875 327.683594 184.039062 C 327.429688 183.660156 327.214844 183.257812 327.039062 182.835938 C 326.863281 182.414062 326.730469 181.976562 326.640625 181.527344 C 326.550781 181.078125 326.507812 180.625 326.507812 180.167969 L 326.507812 167.617188 C 326.507812 167.160156 326.550781 166.707031 326.640625 166.257812 C 326.730469 165.808594 326.863281 165.371094 327.039062 164.949219 C 327.214844 164.527344 327.429688 164.125 327.683594 163.742188 C 327.9375 163.363281 328.226562 163.011719 328.550781 162.6875 C 328.875 162.363281 329.226562 162.074219 329.609375 161.820312 C 329.988281 161.566406 330.390625 161.351562 330.8125 161.175781 C 331.238281 161 331.671875 160.867188 332.121094 160.777344 C 332.570312 160.691406 333.023438 160.644531 333.480469 160.644531 L 474.78125 160.644531 C 475.238281 160.644531 475.695312 160.691406 476.144531 160.777344 C 476.59375 160.867188 477.027344 161 477.449219 161.175781 C 477.875 161.351562 478.277344 161.566406 478.65625 161.820312 C 479.039062 162.074219 479.390625 162.363281 479.714844 162.6875 C 480.039062 163.011719 480.328125 163.363281 480.582031 163.742188 C 480.835938 164.125 481.050781 164.527344 481.226562 164.949219 C 481.402344 165.371094 481.53125 165.808594 481.621094 166.257812 C 481.710938 166.707031 481.757812 167.160156 481.757812 167.617188 Z M 531.652344 176.511719 C 531.566406 177.148438 531.457031 177.773438 531.3125 178.398438 C 531.171875 179.019531 531.003906 179.636719 530.804688 180.242188 C 530.605469 180.851562 530.378906 181.449219 530.125 182.035156 C 529.871094 182.621094 529.589844 183.195312 529.285156 183.753906 C 528.976562 184.3125 528.644531 184.859375 528.285156 185.386719 C 527.929688 185.917969 527.546875 186.429688 527.140625 186.921875 C 526.738281 187.417969 526.308594 187.890625 525.859375 188.347656 C 525.410156 188.800781 524.941406 189.234375 524.453125 189.644531 C 523.960938 190.054688 523.457031 190.441406 522.929688 190.804688 C 522.40625 191.167969 521.863281 191.507812 521.308594 191.820312 C 520.75 192.136719 520.179688 192.421875 519.597656 192.683594 C 519.011719 192.945312 518.417969 193.175781 517.8125 193.382812 C 517.207031 193.585938 516.59375 193.765625 515.972656 193.914062 C 515.351562 194.0625 514.726562 194.179688 514.09375 194.273438 C 513.460938 194.363281 512.824219 194.421875 512.1875 194.453125 C 511.546875 194.484375 510.910156 194.488281 510.269531 194.460938 C 509.632812 194.433594 508.996094 194.375 508.363281 194.289062 C 507.730469 194.203125 507.101562 194.085938 506.480469 193.941406 C 505.859375 193.796875 505.242188 193.621094 504.636719 193.421875 C 504.03125 193.21875 503.433594 192.988281 502.851562 192.730469 C 502.265625 192.472656 501.691406 192.191406 501.132812 191.878906 C 500.574219 191.570312 500.03125 191.234375 499.503906 190.875 C 498.976562 190.511719 498.46875 190.128906 497.976562 189.722656 C 497.484375 189.3125 497.011719 188.882812 496.5625 188.429688 C 496.109375 187.980469 495.679688 187.507812 495.269531 187.015625 C 494.863281 186.523438 494.476562 186.015625 494.117188 185.488281 C 493.757812 184.960938 493.421875 184.417969 493.109375 183.859375 C 492.800781 183.300781 492.515625 182.730469 492.257812 182.144531 C 492 181.558594 491.773438 180.964844 491.570312 180.359375 C 491.367188 179.75 491.195312 179.136719 491.050781 178.515625 C 490.90625 177.894531 490.789062 177.265625 490.703125 176.632812 C 490.613281 176 490.558594 175.363281 490.53125 174.726562 C 490.503906 174.085938 490.503906 173.449219 490.535156 172.8125 C 490.566406 172.171875 490.628906 171.539062 490.71875 170.90625 C 490.808594 170.273438 490.929688 169.644531 491.078125 169.023438 C 491.226562 168.402344 491.402344 167.789062 491.609375 167.183594 C 491.8125 166.582031 492.046875 165.984375 492.308594 165.402344 C 492.570312 164.820312 492.855469 164.25 493.167969 163.691406 C 493.484375 163.136719 493.820312 162.59375 494.1875 162.070312 C 494.550781 161.542969 494.9375 161.039062 495.347656 160.546875 C 495.757812 160.058594 496.191406 159.589844 496.644531 159.140625 C 497.101562 158.691406 497.574219 158.265625 498.070312 157.859375 C 498.5625 157.453125 499.074219 157.074219 499.605469 156.714844 C 500.132812 156.359375 500.679688 156.023438 501.238281 155.71875 C 501.800781 155.410156 502.375 155.128906 502.960938 154.875 C 503.546875 154.625 504.144531 154.398438 504.75 154.199219 C 505.359375 154 505.972656 153.828125 506.597656 153.6875 C 507.21875 153.546875 507.847656 153.433594 508.480469 153.351562 C 509.265625 153.25 510.050781 153.195312 510.839844 153.183594 C 511.625 153.171875 512.414062 153.207031 513.199219 153.285156 C 513.984375 153.363281 514.761719 153.484375 515.53125 153.652344 C 516.300781 153.820312 517.0625 154.03125 517.808594 154.285156 C 518.554688 154.539062 519.285156 154.835938 519.996094 155.175781 C 520.707031 155.511719 521.398438 155.890625 522.070312 156.304688 C 522.738281 156.722656 523.382812 157.175781 524 157.667969 C 524.617188 158.15625 525.207031 158.679688 525.761719 159.238281 C 526.320312 159.796875 526.84375 160.382812 527.335938 161 C 527.824219 161.617188 528.28125 162.261719 528.695312 162.929688 C 529.113281 163.601562 529.492188 164.289062 529.828125 165.003906 C 530.167969 165.714844 530.460938 166.445312 530.714844 167.191406 C 530.972656 167.9375 531.183594 168.695312 531.347656 169.464844 C 531.515625 170.238281 531.640625 171.015625 531.71875 171.800781 C 531.796875 172.582031 531.832031 173.371094 531.820312 174.15625 C 531.808594 174.945312 531.753906 175.730469 531.652344 176.511719 Z M 531.652344 176.511719 " fill-opacity="1" fill-rule="nonzero"/><path fill="#000000" d="M 335.546875 164.242188 L 471.796875 164.242188 C 472.167969 164.242188 472.539062 164.277344 472.902344 164.351562 C 473.265625 164.421875 473.621094 164.53125 473.964844 164.671875 C 474.308594 164.816406 474.632812 164.988281 474.945312 165.195312 C 475.253906 165.402344 475.539062 165.636719 475.800781 165.902344 C 476.066406 166.164062 476.300781 166.449219 476.507812 166.757812 C 476.710938 167.066406 476.886719 167.394531 477.027344 167.738281 C 477.171875 168.082031 477.277344 168.433594 477.351562 168.800781 C 477.425781 169.164062 477.460938 169.53125 477.460938 169.902344 L 477.460938 177.851562 C 477.460938 178.222656 477.425781 178.59375 477.351562 178.957031 C 477.277344 179.320312 477.171875 179.675781 477.027344 180.019531 C 476.886719 180.363281 476.710938 180.6875 476.507812 180.996094 C 476.300781 181.304688 476.066406 181.59375 475.800781 181.855469 C 475.539062 182.117188 475.253906 182.351562 474.945312 182.558594 C 474.632812 182.765625 474.308594 182.941406 473.964844 183.082031 C 473.621094 183.226562 473.265625 183.332031 472.902344 183.40625 C 472.539062 183.476562 472.167969 183.511719 471.796875 183.511719 L 335.546875 183.511719 C 335.175781 183.511719 334.804688 183.476562 334.441406 183.40625 C 334.078125 183.332031 333.722656 183.226562 333.378906 183.082031 C 333.035156 182.941406 332.710938 182.765625 332.402344 182.558594 C 332.089844 182.351562 331.804688 182.117188 331.542969 181.855469 C 331.28125 181.59375 331.042969 181.304688 330.839844 180.996094 C 330.632812 180.6875 330.457031 180.363281 330.316406 180.019531 C 330.171875 179.675781 330.066406 179.320312 329.992188 178.957031 C 329.917969 178.59375 329.882812 178.222656 329.882812 177.851562 L 329.882812 169.902344 C 329.882812 169.53125 329.917969 169.164062 329.992188 168.800781 C 330.066406 168.433594 330.171875 168.082031 330.316406 167.738281 C 330.457031 167.394531 330.632812 167.066406 330.839844 166.757812 C 331.042969 166.449219 331.28125 166.164062 331.542969 165.902344 C 331.804688 165.636719 332.089844 165.402344 332.402344 165.195312 C 332.710938 164.988281 333.035156 164.816406 333.378906 164.671875 C 333.722656 164.53125 334.078125 164.421875 334.441406 164.351562 C 334.804688 164.277344 335.175781 164.242188 335.546875 164.242188 Z M 335.546875 164.242188 " fill-opacity="1" fill-rule="nonzero"/><path fill="#000000" d="M 400.546875 374.1875 L 398.148438 350.484375 C 398.75 350.085938 399.378906 349.730469 400.03125 349.425781 C 400.683594 349.117188 401.355469 348.863281 402.046875 348.65625 C 402.738281 348.449219 403.441406 348.292969 404.15625 348.191406 C 404.871094 348.085938 405.589844 348.035156 406.3125 348.039062 C 407.035156 348.042969 407.75 348.097656 408.464844 348.207031 C 409.179688 348.316406 409.878906 348.476562 410.570312 348.691406 C 411.257812 348.902344 411.929688 349.167969 412.582031 349.480469 C 413.230469 349.789062 413.855469 350.148438 414.453125 350.554688 C 413.832031 358.453125 413.199219 366.355469 412.558594 374.257812 Z M 400.546875 374.1875 " fill-opacity="1" fill-rule="nonzero"/></svg>