<svg xmlns="http://www.w3.org/2000/svg" xmlns:xlink="http://www.w3.org/1999/xlink" width="1080" zoomAndPan="magnify" viewBox="0 0 810 809.999993" height="1080" preserveAspectRatio="xMidYMid meet" version="1.0"><defs><clipPath id="2597fc7148"><path d="M 195.789062 118.210938 L 320 118.210938 L 320 646.210938 L 195.789062 646.210938 Z M 195.789062 118.210938 " clip-rule="nonzero"/></clipPath><clipPath id="536c212c56"><path d="M 539 118.210938 L 614.289062 118.210938 L 614.289062 646.210938 L 539 646.210938 Z M 539 118.210938 " clip-rule="nonzero"/></clipPath><clipPath id="dcf2753e84"><path d="M 408 118.210938 L 533 118.210938 L 533 646.210938 L 408 646.210938 Z M 408 118.210938 " clip-rule="nonzero"/></clipPath><clipPath id="82fad0233e"><path d="M 326 118.210938 L 402 118.210938 L 402 646.210938 L 326 646.210938 Z M 326 118.210938 " clip-rule="nonzero"/></clipPath></defs><g clip-path="url(#2597fc7148)"><path fill="#000000" d="M 304.148438 595.3125 L 278.660156 596.085938 L 278.660156 611.617188 L 304.148438 611.082031 Z M 270.515625 596.332031 L 245.042969 597.113281 L 245.042969 612.324219 L 270.515625 611.789062 Z M 236.894531 597.363281 L 211.410156 598.128906 L 211.410156 613.03125 L 236.894531 612.488281 Z M 304.148438 568.800781 L 278.660156 569.972656 L 278.660156 585.488281 L 304.148438 584.554688 Z M 270.515625 570.351562 L 245.042969 571.527344 L 245.042969 586.71875 L 270.515625 585.792969 Z M 236.894531 571.886719 L 211.410156 573.066406 L 211.410156 587.960938 L 236.894531 587.03125 Z M 304.148438 542.269531 L 278.660156 543.84375 L 278.660156 559.367188 L 304.148438 558.03125 Z M 270.515625 544.351562 L 245.042969 545.933594 L 245.042969 561.125 L 270.515625 559.792969 Z M 236.894531 546.429688 L 211.410156 548.007812 L 211.410156 562.902344 L 236.894531 561.550781 Z M 304.148438 515.738281 L 278.660156 517.71875 L 278.660156 533.234375 L 304.148438 531.515625 Z M 270.515625 518.347656 L 245.042969 520.324219 L 245.042969 535.535156 L 270.515625 533.804688 Z M 236.894531 520.953125 L 211.410156 522.929688 L 211.410156 537.832031 L 236.894531 536.09375 Z M 304.148438 489.210938 L 278.660156 491.59375 L 278.660156 507.128906 L 304.148438 504.988281 Z M 270.515625 492.359375 L 245.042969 494.738281 L 245.042969 509.949219 L 270.515625 507.816406 Z M 236.894531 495.492188 L 211.410156 497.871094 L 211.410156 512.773438 L 236.894531 510.628906 Z M 304.148438 462.695312 L 278.660156 465.480469 L 278.660156 481 L 304.148438 478.457031 Z M 270.515625 466.363281 L 245.042969 469.148438 L 245.042969 484.351562 L 270.515625 481.804688 Z M 236.894531 470.035156 L 211.410156 472.816406 L 211.410156 487.703125 L 236.894531 485.164062 Z M 304.148438 436.179688 L 278.660156 439.347656 L 278.660156 454.878906 L 304.148438 451.933594 Z M 270.515625 440.363281 L 245.042969 443.546875 L 245.042969 458.757812 L 270.515625 455.808594 Z M 236.894531 444.5625 L 211.410156 447.75 L 211.410156 462.632812 L 236.894531 459.691406 Z M 304.148438 409.636719 L 278.660156 413.21875 L 278.660156 428.765625 L 304.148438 425.414062 Z M 270.515625 414.375 L 245.042969 417.957031 L 245.042969 433.164062 L 270.515625 429.824219 Z M 236.894531 419.097656 L 211.410156 422.679688 L 211.410156 437.574219 L 236.894531 434.222656 Z M 304.148438 383.121094 L 278.660156 387.113281 L 278.660156 402.636719 L 304.148438 398.882812 Z M 270.515625 388.386719 L 245.042969 392.363281 L 245.042969 407.578125 L 270.515625 403.835938 Z M 236.894531 393.625 L 211.410156 397.621094 L 211.410156 412.511719 L 236.894531 408.773438 Z M 304.148438 356.605469 L 278.660156 360.980469 L 278.660156 376.503906 L 304.148438 372.359375 Z M 270.515625 362.386719 L 245.042969 366.769531 L 245.042969 381.980469 L 270.515625 377.835938 Z M 236.894531 368.175781 L 211.410156 372.550781 L 211.410156 387.441406 L 236.894531 383.292969 Z M 304.148438 330.070312 L 278.660156 334.863281 L 278.660156 350.382812 L 304.148438 345.832031 Z M 270.515625 336.394531 L 245.042969 341.179688 L 245.042969 356.378906 L 270.515625 351.839844 Z M 236.894531 342.699219 L 211.410156 347.5 L 211.410156 362.375 L 236.894531 357.835938 Z M 304.148438 303.550781 L 278.660156 308.730469 L 278.660156 324.261719 L 304.148438 319.316406 Z M 270.515625 310.390625 L 245.042969 315.585938 L 245.042969 330.789062 L 270.515625 325.847656 Z M 236.894531 317.238281 L 211.410156 322.421875 L 211.410156 337.324219 L 236.894531 332.367188 Z M 304.148438 277.015625 L 278.660156 282.609375 L 278.660156 298.136719 L 304.148438 292.796875 Z M 270.515625 284.398438 L 245.042969 289.984375 L 245.042969 305.207031 L 270.515625 299.855469 Z M 236.894531 291.769531 L 211.410156 297.355469 L 211.410156 312.261719 L 236.894531 306.902344 Z M 304.148438 250.5 L 278.660156 256.492188 L 278.660156 272.027344 L 304.148438 266.257812 Z M 270.515625 258.40625 L 245.042969 264.394531 L 245.042969 279.601562 L 270.515625 273.847656 Z M 236.894531 266.3125 L 211.410156 272.296875 L 211.410156 287.191406 L 236.894531 281.441406 Z M 304.148438 223.980469 L 278.660156 230.367188 L 278.660156 245.886719 L 304.148438 239.742188 Z M 270.515625 232.410156 L 245.042969 238.804688 L 245.042969 254.003906 L 270.515625 247.855469 Z M 236.894531 240.835938 L 211.410156 247.222656 L 211.410156 262.128906 L 236.894531 255.964844 Z M 304.148438 197.449219 L 278.660156 204.242188 L 278.660156 219.761719 L 304.148438 213.21875 Z M 270.515625 206.414062 L 245.042969 213.203125 L 245.042969 228.410156 L 270.515625 221.871094 Z M 236.894531 215.375 L 211.410156 222.164062 L 211.410156 237.058594 L 236.894531 230.507812 Z M 304.148438 170.941406 L 278.660156 178.117188 L 278.660156 193.660156 L 304.148438 186.695312 Z M 270.515625 180.417969 L 245.042969 187.617188 L 245.042969 202.828125 L 270.515625 195.867188 Z M 236.894531 189.90625 L 211.410156 197.109375 L 211.410156 212 L 236.894531 205.050781 Z M 319.714844 646.464844 L 195.828125 646.464844 L 195.828125 156.675781 L 319.714844 118.195312 L 319.714844 646.464844 " fill-opacity="1" fill-rule="nonzero"/></g><g clip-path="url(#536c212c56)"><path fill="#000000" d="M 548.886719 595.3125 L 564.253906 596.085938 L 564.253906 611.617188 L 548.886719 611.082031 Z M 569.179688 596.332031 L 584.527344 597.113281 L 584.527344 612.324219 L 569.179688 611.789062 Z M 589.441406 597.363281 L 604.804688 598.128906 L 604.804688 613.03125 L 589.441406 612.488281 Z M 548.886719 568.800781 L 564.253906 569.972656 L 564.253906 585.488281 L 548.886719 584.554688 Z M 569.179688 570.351562 L 584.527344 571.527344 L 584.527344 586.71875 L 569.179688 585.792969 Z M 589.441406 571.886719 L 604.804688 573.066406 L 604.804688 587.960938 L 589.441406 587.03125 Z M 548.886719 542.269531 L 564.253906 543.84375 L 564.253906 559.367188 L 548.886719 558.03125 Z M 569.179688 544.351562 L 584.527344 545.933594 L 584.527344 561.125 L 569.179688 559.792969 Z M 589.441406 546.429688 L 604.804688 548.007812 L 604.804688 562.902344 L 589.441406 561.550781 Z M 548.886719 515.738281 L 564.253906 517.71875 L 564.253906 533.234375 L 548.886719 531.515625 Z M 569.179688 518.347656 L 584.527344 520.324219 L 584.527344 535.535156 L 569.179688 533.804688 Z M 589.441406 520.953125 L 604.804688 522.929688 L 604.804688 537.832031 L 589.441406 536.09375 Z M 548.886719 489.210938 L 564.253906 491.59375 L 564.253906 507.128906 L 548.886719 504.988281 Z M 569.179688 492.359375 L 584.527344 494.738281 L 584.527344 509.949219 L 569.179688 507.816406 Z M 589.441406 495.492188 L 604.804688 497.871094 L 604.804688 512.773438 L 589.441406 510.628906 Z M 548.886719 462.695312 L 564.253906 465.480469 L 564.253906 481 L 548.886719 478.457031 Z M 569.179688 466.363281 L 584.527344 469.148438 L 584.527344 484.351562 L 569.179688 481.804688 Z M 589.441406 470.035156 L 604.804688 472.816406 L 604.804688 487.703125 L 589.441406 485.164062 Z M 548.886719 436.179688 L 564.253906 439.347656 L 564.253906 454.878906 L 548.886719 451.933594 Z M 569.179688 440.363281 L 584.527344 443.546875 L 584.527344 458.757812 L 569.179688 455.808594 Z M 589.441406 444.5625 L 604.804688 447.75 L 604.804688 462.632812 L 589.441406 459.691406 Z M 548.886719 409.636719 L 564.253906 413.21875 L 564.253906 428.765625 L 548.886719 425.414062 Z M 569.179688 414.375 L 584.527344 417.957031 L 584.527344 433.164062 L 569.179688 429.824219 Z M 589.441406 419.097656 L 604.804688 422.679688 L 604.804688 437.574219 L 589.441406 434.222656 Z M 548.886719 383.121094 L 564.253906 387.113281 L 564.253906 402.636719 L 548.886719 398.882812 Z M 569.179688 388.386719 L 584.527344 392.363281 L 584.527344 407.578125 L 569.179688 403.835938 Z M 589.441406 393.625 L 604.804688 397.621094 L 604.804688 412.511719 L 589.441406 408.773438 Z M 548.886719 356.605469 L 564.253906 360.980469 L 564.253906 376.503906 L 548.886719 372.359375 Z M 569.179688 362.386719 L 584.527344 366.769531 L 584.527344 381.980469 L 569.179688 377.835938 Z M 589.441406 368.175781 L 604.804688 372.550781 L 604.804688 387.441406 L 589.441406 383.292969 Z M 548.886719 330.070312 L 564.253906 334.863281 L 564.253906 350.382812 L 548.886719 345.832031 Z M 569.179688 336.394531 L 584.527344 341.179688 L 584.527344 356.378906 L 569.179688 351.839844 Z M 589.441406 342.699219 L 604.804688 347.5 L 604.804688 362.375 L 589.441406 357.835938 Z M 548.886719 303.550781 L 564.253906 308.730469 L 564.253906 324.261719 L 548.886719 319.316406 Z M 569.179688 310.390625 L 584.527344 315.585938 L 584.527344 330.789062 L 569.179688 325.847656 Z M 589.441406 317.238281 L 604.804688 322.421875 L 604.804688 337.324219 L 589.441406 332.367188 Z M 548.886719 277.015625 L 564.253906 282.609375 L 564.253906 298.136719 L 548.886719 292.796875 Z M 569.179688 284.398438 L 584.527344 289.984375 L 584.527344 305.207031 L 569.179688 299.855469 Z M 589.441406 291.769531 L 604.804688 297.355469 L 604.804688 312.261719 L 589.441406 306.902344 Z M 548.886719 250.5 L 564.253906 256.492188 L 564.253906 272.027344 L 548.886719 266.257812 Z M 569.179688 258.40625 L 584.527344 264.394531 L 584.527344 279.601562 L 569.179688 273.847656 Z M 589.441406 266.3125 L 604.804688 272.296875 L 604.804688 287.191406 L 589.441406 281.441406 Z M 548.886719 223.980469 L 564.253906 230.367188 L 564.253906 245.886719 L 548.886719 239.742188 Z M 569.179688 232.410156 L 584.527344 238.804688 L 584.527344 254.003906 L 569.179688 247.855469 Z M 589.441406 240.835938 L 604.804688 247.222656 L 604.804688 262.128906 L 589.441406 255.964844 Z M 548.886719 197.449219 L 564.253906 204.242188 L 564.253906 219.761719 L 548.886719 213.21875 Z M 569.179688 206.414062 L 584.527344 213.203125 L 584.527344 228.410156 L 569.179688 221.871094 Z M 589.441406 215.375 L 604.804688 222.164062 L 604.804688 237.058594 L 589.441406 230.507812 Z M 548.886719 170.941406 L 564.253906 178.117188 L 564.253906 193.660156 L 548.886719 186.695312 Z M 569.179688 180.417969 L 584.527344 187.617188 L 584.527344 202.828125 L 569.179688 195.867188 Z M 589.441406 189.90625 L 604.804688 197.109375 L 604.804688 212 L 589.441406 205.050781 Z M 539.515625 646.464844 L 614.191406 646.464844 L 614.191406 156.675781 L 539.515625 118.195312 L 539.515625 646.464844 " fill-opacity="1" fill-rule="nonzero"/></g><g clip-path="url(#dcf2753e84)"><path fill="#000000" d="M 516.867188 595.3125 L 491.378906 596.085938 L 491.378906 611.617188 L 516.867188 611.082031 Z M 483.242188 596.332031 L 457.753906 597.113281 L 457.753906 612.324219 L 483.242188 611.789062 Z M 449.613281 597.363281 L 424.128906 598.128906 L 424.128906 613.03125 L 449.613281 612.488281 Z M 516.867188 568.800781 L 491.378906 569.972656 L 491.378906 585.488281 L 516.867188 584.554688 Z M 483.242188 570.351562 L 457.753906 571.527344 L 457.753906 586.71875 L 483.242188 585.792969 Z M 449.613281 571.886719 L 424.128906 573.066406 L 424.128906 587.960938 L 449.613281 587.03125 Z M 516.867188 542.269531 L 491.378906 543.84375 L 491.378906 559.367188 L 516.867188 558.03125 Z M 483.242188 544.351562 L 457.753906 545.933594 L 457.753906 561.125 L 483.242188 559.792969 Z M 449.613281 546.429688 L 424.128906 548.007812 L 424.128906 562.902344 L 449.613281 561.550781 Z M 516.867188 515.738281 L 491.378906 517.71875 L 491.378906 533.234375 L 516.867188 531.515625 Z M 483.242188 518.347656 L 457.753906 520.324219 L 457.753906 535.535156 L 483.242188 533.804688 Z M 449.613281 520.953125 L 424.128906 522.929688 L 424.128906 537.832031 L 449.613281 536.09375 Z M 516.867188 489.210938 L 491.378906 491.59375 L 491.378906 507.128906 L 516.867188 504.988281 Z M 483.242188 492.359375 L 457.753906 494.738281 L 457.753906 509.949219 L 483.242188 507.816406 Z M 449.613281 495.492188 L 424.128906 497.871094 L 424.128906 512.773438 L 449.613281 510.628906 Z M 516.867188 462.695312 L 491.378906 465.480469 L 491.378906 481 L 516.867188 478.457031 Z M 483.242188 466.363281 L 457.753906 469.148438 L 457.753906 484.351562 L 483.242188 481.804688 Z M 449.613281 470.035156 L 424.128906 472.816406 L 424.128906 487.703125 L 449.613281 485.164062 Z M 516.867188 436.179688 L 491.378906 439.347656 L 491.378906 454.878906 L 516.867188 451.933594 Z M 483.242188 440.363281 L 457.753906 443.546875 L 457.753906 458.757812 L 483.242188 455.808594 Z M 449.613281 444.5625 L 424.128906 447.75 L 424.128906 462.632812 L 449.613281 459.691406 Z M 516.867188 409.636719 L 491.378906 413.21875 L 491.378906 428.765625 L 516.867188 425.414062 Z M 483.242188 414.375 L 457.753906 417.957031 L 457.753906 433.164062 L 483.242188 429.824219 Z M 449.613281 419.097656 L 424.128906 422.679688 L 424.128906 437.574219 L 449.613281 434.222656 Z M 516.867188 383.121094 L 491.378906 387.113281 L 491.378906 402.636719 L 516.867188 398.882812 Z M 483.242188 388.386719 L 457.753906 392.363281 L 457.753906 407.578125 L 483.242188 403.835938 Z M 449.613281 393.625 L 424.128906 397.621094 L 424.128906 412.511719 L 449.613281 408.773438 Z M 516.867188 356.605469 L 491.378906 360.980469 L 491.378906 376.503906 L 516.867188 372.359375 Z M 483.242188 362.386719 L 457.753906 366.769531 L 457.753906 381.980469 L 483.242188 377.835938 Z M 449.613281 368.175781 L 424.128906 372.550781 L 424.128906 387.441406 L 449.613281 383.292969 Z M 516.867188 330.070312 L 491.378906 334.863281 L 491.378906 350.382812 L 516.867188 345.832031 Z M 483.242188 336.394531 L 457.753906 341.179688 L 457.753906 356.378906 L 483.242188 351.839844 Z M 449.613281 342.699219 L 424.128906 347.5 L 424.128906 362.375 L 449.613281 357.835938 Z M 516.867188 303.550781 L 491.378906 308.730469 L 491.378906 324.261719 L 516.867188 319.316406 Z M 483.242188 310.390625 L 457.753906 315.585938 L 457.753906 330.789062 L 483.242188 325.847656 Z M 449.613281 317.238281 L 424.128906 322.421875 L 424.128906 337.324219 L 449.613281 332.367188 Z M 516.867188 277.015625 L 491.378906 282.609375 L 491.378906 298.136719 L 516.867188 292.796875 Z M 483.242188 284.398438 L 457.753906 289.984375 L 457.753906 305.207031 L 483.242188 299.855469 Z M 449.613281 291.769531 L 424.128906 297.355469 L 424.128906 312.261719 L 449.613281 306.902344 Z M 516.867188 250.5 L 491.378906 256.492188 L 491.378906 272.027344 L 516.867188 266.257812 Z M 483.242188 258.40625 L 457.753906 264.394531 L 457.753906 279.601562 L 483.242188 273.847656 Z M 449.613281 266.3125 L 424.128906 272.296875 L 424.128906 287.191406 L 449.613281 281.441406 Z M 516.867188 223.980469 L 491.378906 230.367188 L 491.378906 245.886719 L 516.867188 239.742188 Z M 483.242188 232.410156 L 457.753906 238.804688 L 457.753906 254.003906 L 483.242188 247.855469 Z M 449.613281 240.835938 L 424.128906 247.222656 L 424.128906 262.128906 L 449.613281 255.964844 Z M 516.867188 197.449219 L 491.378906 204.242188 L 491.378906 219.761719 L 516.867188 213.21875 Z M 483.242188 206.414062 L 457.753906 213.203125 L 457.753906 228.410156 L 483.242188 221.871094 Z M 449.613281 215.375 L 424.128906 222.164062 L 424.128906 237.058594 L 449.613281 230.507812 Z M 516.867188 170.941406 L 491.378906 178.117188 L 491.378906 193.660156 L 516.867188 186.695312 Z M 483.242188 180.417969 L 457.753906 187.617188 L 457.753906 202.828125 L 483.242188 195.867188 Z M 449.613281 189.90625 L 424.128906 197.109375 L 424.128906 212 L 449.613281 205.050781 Z M 532.433594 646.464844 L 408.554688 646.464844 L 408.554688 156.675781 L 532.433594 118.195312 L 532.433594 646.464844 " fill-opacity="1" fill-rule="nonzero"/></g><g clip-path="url(#82fad0233e)"><path fill="#000000" d="M 336.175781 595.3125 L 351.542969 596.085938 L 351.542969 611.617188 L 336.175781 611.082031 Z M 356.449219 596.332031 L 371.816406 597.113281 L 371.816406 612.324219 L 356.449219 611.789062 Z M 376.726562 597.363281 L 392.082031 598.128906 L 392.082031 613.03125 L 376.726562 612.488281 Z M 336.175781 568.800781 L 351.542969 569.972656 L 351.542969 585.488281 L 336.175781 584.554688 Z M 356.449219 570.351562 L 371.816406 571.527344 L 371.816406 586.71875 L 356.449219 585.792969 Z M 376.726562 571.886719 L 392.082031 573.066406 L 392.082031 587.960938 L 376.726562 587.03125 Z M 336.175781 542.269531 L 351.542969 543.84375 L 351.542969 559.367188 L 336.175781 558.03125 Z M 356.449219 544.351562 L 371.816406 545.933594 L 371.816406 561.125 L 356.449219 559.792969 Z M 376.726562 546.429688 L 392.082031 548.007812 L 392.082031 562.902344 L 376.726562 561.550781 Z M 336.175781 515.738281 L 351.542969 517.71875 L 351.542969 533.234375 L 336.175781 531.515625 Z M 356.449219 518.347656 L 371.816406 520.324219 L 371.816406 535.535156 L 356.449219 533.804688 Z M 376.726562 520.953125 L 392.082031 522.929688 L 392.082031 537.832031 L 376.726562 536.09375 Z M 336.175781 489.210938 L 351.542969 491.59375 L 351.542969 507.128906 L 336.175781 504.988281 Z M 356.449219 492.359375 L 371.816406 494.738281 L 371.816406 509.949219 L 356.449219 507.816406 Z M 376.726562 495.492188 L 392.082031 497.871094 L 392.082031 512.773438 L 376.726562 510.628906 Z M 336.175781 462.695312 L 351.542969 465.480469 L 351.542969 481 L 336.175781 478.457031 Z M 356.449219 466.363281 L 371.816406 469.148438 L 371.816406 484.351562 L 356.449219 481.804688 Z M 376.726562 470.035156 L 392.082031 472.816406 L 392.082031 487.703125 L 376.726562 485.164062 Z M 336.175781 436.179688 L 351.542969 439.347656 L 351.542969 454.878906 L 336.175781 451.933594 Z M 356.449219 440.363281 L 371.816406 443.546875 L 371.816406 458.757812 L 356.449219 455.808594 Z M 376.726562 444.5625 L 392.082031 447.75 L 392.082031 462.632812 L 376.726562 459.691406 Z M 336.175781 409.636719 L 351.542969 413.21875 L 351.542969 428.765625 L 336.175781 425.414062 Z M 356.449219 414.375 L 371.816406 417.957031 L 371.816406 433.164062 L 356.449219 429.824219 Z M 376.726562 419.097656 L 392.082031 422.679688 L 392.082031 437.574219 L 376.726562 434.222656 Z M 336.175781 383.121094 L 351.542969 387.113281 L 351.542969 402.636719 L 336.175781 398.882812 Z M 356.449219 388.386719 L 371.816406 392.363281 L 371.816406 407.578125 L 356.449219 403.835938 Z M 376.726562 393.625 L 392.082031 397.621094 L 392.082031 412.511719 L 376.726562 408.773438 Z M 336.175781 356.605469 L 351.542969 360.980469 L 351.542969 376.503906 L 336.175781 372.359375 Z M 356.449219 362.386719 L 371.816406 366.769531 L 371.816406 381.980469 L 356.449219 377.835938 Z M 376.726562 368.175781 L 392.082031 372.550781 L 392.082031 387.441406 L 376.726562 383.292969 Z M 336.175781 330.070312 L 351.542969 334.863281 L 351.542969 350.382812 L 336.175781 345.832031 Z M 356.449219 336.394531 L 371.816406 341.179688 L 371.816406 356.378906 L 356.449219 351.839844 Z M 376.726562 342.699219 L 392.082031 347.5 L 392.082031 362.375 L 376.726562 357.835938 Z M 336.175781 303.550781 L 351.542969 308.730469 L 351.542969 324.261719 L 336.175781 319.316406 Z M 356.449219 310.390625 L 371.816406 315.585938 L 371.816406 330.789062 L 356.449219 325.847656 Z M 376.726562 317.238281 L 392.082031 322.421875 L 392.082031 337.324219 L 376.726562 332.367188 Z M 336.175781 277.015625 L 351.542969 282.609375 L 351.542969 298.136719 L 336.175781 292.796875 Z M 356.449219 284.398438 L 371.816406 289.984375 L 371.816406 305.207031 L 356.449219 299.855469 Z M 376.726562 291.769531 L 392.082031 297.355469 L 392.082031 312.261719 L 376.726562 306.902344 Z M 336.175781 250.5 L 351.542969 256.492188 L 351.542969 272.027344 L 336.175781 266.257812 Z M 356.449219 258.40625 L 371.816406 264.394531 L 371.816406 279.601562 L 356.449219 273.847656 Z M 376.726562 266.3125 L 392.082031 272.296875 L 392.082031 287.191406 L 376.726562 281.441406 Z M 336.175781 223.980469 L 351.542969 230.367188 L 351.542969 245.886719 L 336.175781 239.742188 Z M 356.449219 232.410156 L 371.816406 238.804688 L 371.816406 254.003906 L 356.449219 247.855469 Z M 376.726562 240.835938 L 392.082031 247.222656 L 392.082031 262.128906 L 376.726562 255.964844 Z M 336.175781 197.449219 L 351.542969 204.242188 L 351.542969 219.761719 L 336.175781 213.21875 Z M 356.449219 206.414062 L 371.816406 213.203125 L 371.816406 228.410156 L 356.449219 221.871094 Z M 376.726562 215.375 L 392.082031 222.164062 L 392.082031 237.058594 L 376.726562 230.507812 Z M 336.175781 170.941406 L 351.542969 178.117188 L 351.542969 193.660156 L 336.175781 186.695312 Z M 356.449219 180.417969 L 371.816406 187.617188 L 371.816406 202.828125 L 356.449219 195.867188 Z M 376.726562 189.90625 L 392.082031 197.109375 L 392.082031 212 L 376.726562 205.050781 Z M 326.800781 646.464844 L 401.484375 646.464844 L 401.484375 156.675781 L 326.800781 118.195312 L 326.800781 646.464844 " fill-opacity="1" fill-rule="nonzero"/></g></svg>