<svg xmlns="http://www.w3.org/2000/svg" xmlns:xlink="http://www.w3.org/1999/xlink" width="1080" zoomAndPan="magnify" viewBox="0 0 810 809.999993" height="1080" preserveAspectRatio="xMidYMid meet" version="1.0"><defs><clipPath id="e1b6c92923"><path d="M 558 345 L 640.402344 345 L 640.402344 420.71875 L 558 420.71875 Z M 558 345 " clip-rule="nonzero"/></clipPath><clipPath id="35782c964d"><path d="M 311 342 L 403 342 L 403 420.253906 L 311 420.253906 Z M 311 342 " clip-rule="nonzero"/></clipPath><clipPath id="0bd2afcee2"><path d="M 689 344.96875 L 757 344.96875 L 757 420.71875 L 689 420.71875 Z M 689 344.96875 " clip-rule="nonzero"/></clipPath></defs><g clip-path="url(#e1b6c92923)"><path fill="#2bb540" d="M 599.878906 406.1875 L 598.832031 376.585938 L 628.105469 358.0625 Z M 570.226562 351.269531 L 626.371094 351.863281 L 595.730469 371.253906 Z M 639.761719 347.414062 C 639.203125 346.464844 638.179688 345.871094 637.074219 345.859375 L 635.910156 345.847656 L 635.898438 345.832031 L 635.871094 345.847656 L 561.25 345.0625 C 559.921875 345.050781 558.746094 345.859375 558.3125 347.089844 C 557.878906 348.3125 558.28125 349.6875 559.324219 350.5 L 592.621094 376.585938 L 594.042969 417.058594 C 594.089844 418.421875 595.054688 419.597656 596.40625 419.941406 C 596.40625 419.941406 596.414062 419.941406 596.414062 419.945312 C 597.757812 420.28125 599.15625 419.703125 599.851562 418.527344 L 639.765625 350.460938 C 640.320312 349.523438 640.320312 348.359375 639.761719 347.414062 " fill-opacity="1" fill-rule="nonzero"/></g><path fill="#2bb540" d="M 521.875 421.976562 L 500.101562 415.261719 C 499.421875 415.605469 498.734375 415.933594 498.035156 416.238281 C 497.335938 416.542969 496.628906 416.824219 495.914062 417.089844 C 495.199219 417.351562 494.476562 417.59375 493.746094 417.816406 C 493.015625 418.035156 492.28125 418.234375 491.539062 418.410156 C 490.800781 418.589844 490.054688 418.746094 489.304688 418.878906 C 488.550781 419.011719 487.796875 419.121094 487.042969 419.210938 C 486.285156 419.300781 485.527344 419.367188 484.765625 419.414062 C 484.003906 419.457031 483.242188 419.480469 482.480469 419.480469 C 481.71875 419.476562 480.957031 419.457031 480.195312 419.410156 C 479.433594 419.367188 478.675781 419.296875 477.917969 419.207031 C 477.160156 419.117188 476.40625 419.007812 475.65625 418.871094 C 474.90625 418.738281 474.160156 418.582031 473.421875 418.402344 C 472.679688 418.226562 471.945312 418.027344 471.214844 417.804688 C 470.484375 417.582031 469.761719 417.339844 469.046875 417.078125 C 468.332031 416.8125 467.625 416.527344 466.925781 416.222656 C 466.230469 415.917969 465.539062 415.589844 464.859375 415.246094 C 464.179688 414.898438 463.511719 414.535156 462.855469 414.148438 C 462.199219 413.761719 461.550781 413.359375 460.917969 412.933594 C 460.285156 412.511719 459.664062 412.070312 459.054688 411.609375 C 458.445312 411.152344 457.851562 410.671875 457.273438 410.179688 C 456.695312 409.683594 456.128906 409.171875 455.578125 408.644531 C 455.03125 408.117188 454.496094 407.574219 453.976562 407.011719 C 453.460938 406.453125 452.960938 405.878906 452.476562 405.289062 C 451.992188 404.703125 451.527344 404.097656 451.078125 403.484375 C 450.628906 402.867188 450.199219 402.238281 449.789062 401.59375 C 449.375 400.953125 448.984375 400.300781 448.609375 399.636719 C 448.238281 398.972656 447.882812 398.296875 447.550781 397.609375 C 447.21875 396.925781 446.90625 396.230469 446.613281 395.527344 C 446.320312 394.820312 446.046875 394.109375 445.796875 393.390625 C 445.546875 392.671875 445.320312 391.945312 445.109375 391.210938 C 444.902344 390.476562 444.71875 389.738281 444.554688 388.992188 C 444.390625 388.25 444.246094 387.5 444.125 386.746094 C 444.007812 385.996094 443.910156 385.238281 443.832031 384.480469 C 443.757812 383.722656 443.703125 382.960938 443.671875 382.199219 C 443.640625 381.4375 443.632812 380.675781 443.648438 379.914062 C 443.660156 379.152344 443.695312 378.390625 443.753906 377.632812 C 443.8125 376.871094 443.894531 376.113281 444 375.359375 C 444.101562 374.605469 444.226562 373.851562 444.375 373.105469 C 444.523438 372.355469 444.691406 371.613281 444.882812 370.875 C 445.074219 370.136719 445.285156 369.40625 445.519531 368.679688 C 445.753906 367.957031 446.011719 367.238281 446.285156 366.527344 C 446.5625 365.816406 446.859375 365.117188 447.179688 364.421875 C 447.496094 363.730469 447.832031 363.046875 448.191406 362.375 C 448.550781 361.699219 448.925781 361.039062 449.324219 360.386719 C 449.722656 359.738281 450.136719 359.097656 450.570312 358.472656 C 451.003906 357.847656 451.457031 357.234375 451.929688 356.632812 C 452.398438 356.035156 452.886719 355.449219 453.390625 354.878906 C 453.898438 354.304688 454.417969 353.75 454.957031 353.210938 C 455.492188 352.671875 456.046875 352.144531 456.617188 351.640625 C 457.183594 351.132812 457.765625 350.640625 458.363281 350.167969 C 458.960938 349.695312 459.574219 349.238281 460.195312 348.800781 C 460.820312 348.363281 461.457031 347.945312 462.105469 347.542969 C 462.753906 347.144531 463.414062 346.765625 464.085938 346.402344 C 464.757812 346.042969 465.4375 345.699219 466.128906 345.378906 C 466.820312 345.058594 467.523438 344.757812 468.230469 344.476562 C 468.941406 344.199219 469.65625 343.9375 470.382812 343.703125 C 471.105469 343.464844 471.835938 343.246094 472.574219 343.054688 C 473.308594 342.859375 474.050781 342.683594 474.800781 342.535156 C 475.546875 342.382812 476.296875 342.253906 477.050781 342.148438 C 477.804688 342.039062 478.5625 341.957031 479.324219 341.894531 C 480.082031 341.832031 480.84375 341.792969 481.605469 341.773438 C 482.367188 341.757812 483.128906 341.761719 483.890625 341.789062 C 484.652344 341.816406 485.414062 341.867188 486.171875 341.9375 C 486.933594 342.011719 487.6875 342.105469 488.441406 342.222656 C 489.195312 342.335938 489.945312 342.476562 490.6875 342.636719 C 491.433594 342.796875 492.171875 342.980469 492.90625 343.183594 C 493.640625 343.386719 494.371094 343.613281 495.089844 343.859375 C 495.8125 344.109375 496.527344 344.375 497.230469 344.664062 C 497.9375 344.953125 498.632812 345.265625 499.320312 345.59375 C 500.007812 345.925781 500.683594 346.273438 501.351562 346.644531 C 502.015625 347.011719 502.671875 347.402344 503.316406 347.8125 C 503.960938 348.21875 504.589844 348.644531 505.207031 349.089844 C 505.828125 349.539062 506.433594 350 507.023438 350.480469 C 507.613281 350.960938 508.191406 351.460938 508.753906 351.976562 C 509.316406 352.492188 509.859375 353.023438 510.390625 353.570312 C 510.921875 354.117188 511.4375 354.679688 511.933594 355.257812 C 512.433594 355.832031 512.910156 356.425781 513.375 357.03125 C 513.835938 357.636719 514.28125 358.253906 514.707031 358.886719 C 515.136719 359.519531 515.542969 360.164062 515.929688 360.820312 C 516.320312 361.476562 516.6875 362.140625 517.039062 362.820312 C 517.386719 363.496094 517.714844 364.183594 518.023438 364.878906 C 518.332031 365.578125 518.621094 366.28125 518.886719 366.996094 C 519.15625 367.710938 519.402344 368.433594 519.625 369.160156 C 519.851562 369.890625 520.054688 370.621094 520.234375 371.363281 C 520.417969 372.105469 520.578125 372.847656 520.714844 373.597656 C 520.851562 374.347656 520.96875 375.101562 521.0625 375.859375 C 521.15625 376.613281 521.226562 377.371094 521.277344 378.132812 C 521.324219 378.894531 521.351562 379.65625 521.355469 380.417969 C 521.359375 381.179688 521.339844 381.941406 521.300781 382.703125 C 521.257812 383.464844 521.195312 384.222656 521.109375 384.980469 C 521.023438 385.738281 520.917969 386.492188 520.785156 387.242188 C 520.65625 387.996094 520.503906 388.742188 520.332031 389.484375 C 520.15625 390.226562 519.960938 390.960938 519.746094 391.691406 C 519.527344 392.421875 519.289062 393.148438 519.027344 393.863281 C 518.769531 394.582031 518.488281 395.289062 518.1875 395.988281 C 517.886719 396.6875 517.5625 397.378906 517.222656 398.0625 Z M 482.558594 348.261719 C 481.941406 348.257812 481.324219 348.273438 480.710938 348.304688 C 480.09375 348.339844 479.480469 348.390625 478.867188 348.457031 C 478.253906 348.527344 477.644531 348.609375 477.035156 348.714844 C 476.429688 348.816406 475.824219 348.9375 475.222656 349.074219 C 474.621094 349.210938 474.023438 349.367188 473.433594 349.535156 C 472.839844 349.707031 472.253906 349.898438 471.671875 350.101562 C 471.089844 350.304688 470.515625 350.527344 469.945312 350.765625 C 469.378906 351.003906 468.816406 351.257812 468.261719 351.527344 C 467.707031 351.796875 467.160156 352.082031 466.625 352.382812 C 466.085938 352.683594 465.554688 353 465.035156 353.332031 C 464.515625 353.664062 464.007812 354.011719 463.507812 354.371094 C 463.007812 354.730469 462.515625 355.105469 462.039062 355.496094 C 461.558594 355.882812 461.09375 356.285156 460.636719 356.699219 C 460.179688 357.113281 459.738281 357.542969 459.304688 357.984375 C 458.875 358.421875 458.457031 358.875 458.050781 359.339844 C 457.644531 359.804688 457.253906 360.28125 456.875 360.765625 C 456.496094 361.253906 456.132812 361.75 455.78125 362.257812 C 455.433594 362.765625 455.097656 363.285156 454.777344 363.8125 C 454.457031 364.335938 454.152344 364.875 453.863281 365.417969 C 453.570312 365.960938 453.296875 366.511719 453.039062 367.074219 C 452.78125 367.632812 452.539062 368.199219 452.3125 368.773438 C 452.085938 369.347656 451.878906 369.925781 451.683594 370.511719 C 451.492188 371.097656 451.316406 371.6875 451.15625 372.285156 C 451 372.878906 450.855469 373.480469 450.734375 374.085938 C 450.609375 374.6875 450.5 375.292969 450.410156 375.90625 C 450.320312 376.515625 450.246094 377.125 450.191406 377.742188 C 450.136719 378.355469 450.101562 378.96875 450.082031 379.585938 C 450.0625 380.203125 450.058594 380.820312 450.074219 381.433594 C 450.089844 382.050781 450.121094 382.667969 450.171875 383.28125 C 450.222656 383.894531 450.289062 384.507812 450.375 385.117188 C 450.460938 385.730469 450.566406 386.335938 450.683594 386.941406 C 450.804688 387.546875 450.941406 388.148438 451.097656 388.746094 C 451.25 389.339844 451.421875 389.933594 451.613281 390.519531 C 451.800781 391.105469 452.003906 391.6875 452.226562 392.265625 C 452.449219 392.839844 452.6875 393.40625 452.941406 393.96875 C 453.195312 394.53125 453.464844 395.085938 453.75 395.632812 C 454.035156 396.179688 454.335938 396.714844 454.652344 397.246094 C 454.96875 397.773438 455.300781 398.292969 455.648438 398.804688 C 455.992188 399.3125 456.351562 399.8125 456.726562 400.304688 C 457.101562 400.792969 457.492188 401.273438 457.894531 401.738281 C 458.296875 402.207031 458.710938 402.664062 459.136719 403.105469 C 459.566406 403.550781 460.007812 403.980469 460.460938 404.398438 C 460.914062 404.816406 461.375 405.222656 461.851562 405.613281 C 462.328125 406.007812 462.816406 406.386719 463.3125 406.75 C 463.808594 407.113281 464.316406 407.464844 464.835938 407.796875 C 465.351562 408.132812 465.878906 408.453125 466.414062 408.757812 C 466.949219 409.0625 467.496094 409.355469 468.046875 409.628906 C 468.597656 409.902344 469.160156 410.160156 469.726562 410.402344 C 470.292969 410.644531 470.867188 410.871094 471.445312 411.078125 C 472.027344 411.289062 472.613281 411.480469 473.203125 411.65625 C 473.792969 411.832031 474.390625 411.992188 474.988281 412.132812 C 475.589844 412.273438 476.191406 412.398438 476.800781 412.507812 C 477.40625 412.613281 478.015625 412.703125 478.628906 412.777344 C 479.242188 412.847656 479.855469 412.902344 480.46875 412.941406 C 481.085938 412.980469 481.703125 413 482.316406 413 C 482.933594 413.003906 483.550781 412.988281 484.167969 412.953125 C 484.78125 412.921875 485.394531 412.871094 486.007812 412.804688 C 486.621094 412.734375 487.230469 412.648438 487.839844 412.546875 C 488.449219 412.441406 489.050781 412.324219 489.652344 412.183594 C 490.253906 412.046875 490.851562 411.894531 491.441406 411.722656 C 492.035156 411.550781 492.621094 411.363281 493.203125 411.15625 C 493.785156 410.953125 494.359375 410.730469 494.929688 410.492188 C 495.496094 410.253906 496.058594 410 496.613281 409.730469 C 497.167969 409.460938 497.714844 409.175781 498.25 408.871094 L 499.464844 408.203125 L 513.46875 412.527344 L 510.457031 397.011719 L 511.011719 395.996094 C 511.34375 395.382812 511.65625 394.761719 511.945312 394.125 C 512.234375 393.492188 512.503906 392.851562 512.753906 392.199219 C 513.003906 391.546875 513.230469 390.890625 513.4375 390.226562 C 513.644531 389.558594 513.828125 388.886719 513.992188 388.210938 C 514.15625 387.53125 514.296875 386.851562 514.417969 386.164062 C 514.535156 385.476562 514.632812 384.785156 514.707031 384.09375 C 514.78125 383.402344 514.832031 382.707031 514.863281 382.007812 C 514.894531 381.3125 514.898438 380.617188 514.886719 379.917969 C 514.871094 379.222656 514.832031 378.527344 514.773438 377.832031 C 514.710938 377.136719 514.628906 376.445312 514.523438 375.757812 C 514.417969 375.070312 514.292969 374.382812 514.144531 373.703125 C 513.992188 373.023438 513.824219 372.347656 513.628906 371.675781 C 513.4375 371.007812 513.222656 370.34375 512.988281 369.6875 C 512.75 369.03125 512.496094 368.386719 512.21875 367.746094 C 511.941406 367.105469 511.640625 366.476562 511.324219 365.855469 C 511.007812 365.234375 510.667969 364.625 510.3125 364.027344 C 509.953125 363.429688 509.578125 362.84375 509.179688 362.269531 C 508.785156 361.695312 508.371094 361.136719 507.941406 360.585938 C 507.507812 360.039062 507.0625 359.507812 506.59375 358.988281 C 506.128906 358.472656 505.648438 357.96875 505.148438 357.480469 C 504.648438 356.992188 504.136719 356.523438 503.605469 356.070312 C 503.078125 355.617188 502.535156 355.179688 501.976562 354.761719 C 501.421875 354.339844 500.851562 353.941406 500.269531 353.558594 C 499.6875 353.175781 499.089844 352.8125 498.484375 352.46875 C 497.878906 352.125 497.261719 351.800781 496.632812 351.5 C 496.007812 351.195312 495.371094 350.910156 494.726562 350.648438 C 494.078125 350.386719 493.425781 350.144531 492.765625 349.921875 C 492.105469 349.703125 491.4375 349.503906 490.761719 349.328125 C 490.085938 349.148438 489.410156 348.992188 488.726562 348.859375 C 488.039062 348.726562 487.351562 348.617188 486.660156 348.527344 C 485.96875 348.4375 485.277344 348.371094 484.582031 348.324219 C 483.886719 348.28125 483.191406 348.261719 482.492188 348.261719 Z M 482.558594 348.261719 " fill-opacity="1" fill-rule="nonzero"/><g clip-path="url(#35782c964d)"><path fill="#2bb540" d="M 356.59375 420.433594 L 354.550781 418.933594 C 340.992188 408.675781 328.523438 397.234375 317.136719 384.609375 C 316.429688 383.847656 315.78125 383.042969 315.183594 382.195312 C 314.585938 381.347656 314.050781 380.464844 313.574219 379.542969 C 313.097656 378.621094 312.6875 377.671875 312.339844 376.695312 C 311.992188 375.71875 311.714844 374.722656 311.503906 373.707031 C 311.292969 372.695312 311.152344 371.667969 311.078125 370.636719 C 311.007812 369.601562 311.003906 368.566406 311.074219 367.53125 C 311.144531 366.496094 311.28125 365.472656 311.492188 364.457031 C 311.699219 363.441406 311.976562 362.445312 312.320312 361.46875 C 312.707031 360.324219 313.167969 359.210938 313.703125 358.128906 C 314.234375 357.042969 314.835938 356 315.503906 354.996094 C 316.171875 353.992188 316.902344 353.03125 317.695312 352.121094 C 318.488281 351.214844 319.339844 350.359375 320.242188 349.558594 C 321.148438 348.757812 322.101562 348.023438 323.101562 347.347656 C 324.101562 346.671875 325.140625 346.0625 326.21875 345.523438 C 327.300781 344.984375 328.410156 344.515625 329.550781 344.121094 C 330.691406 343.726562 331.851562 343.40625 333.035156 343.160156 C 341.429688 341.554688 349.683594 344.347656 356.59375 351.050781 C 363.488281 344.347656 371.742188 341.554688 380.136719 343.160156 C 381.316406 343.40625 382.480469 343.726562 383.621094 344.121094 C 384.761719 344.515625 385.871094 344.984375 386.949219 345.523438 C 388.03125 346.0625 389.070312 346.671875 390.070312 347.347656 C 391.070312 348.023438 392.023438 348.757812 392.925781 349.558594 C 393.832031 350.359375 394.679688 351.214844 395.472656 352.121094 C 396.269531 353.03125 397 353.992188 397.667969 354.996094 C 398.335938 356 398.9375 357.042969 399.46875 358.128906 C 400 359.210938 400.460938 360.324219 400.851562 361.46875 C 401.195312 362.445312 401.472656 363.441406 401.683594 364.457031 C 401.894531 365.472656 402.03125 366.496094 402.101562 367.53125 C 402.171875 368.566406 402.171875 369.601562 402.101562 370.636719 C 402.027344 371.671875 401.886719 372.695312 401.675781 373.710938 C 401.464844 374.726562 401.183594 375.722656 400.835938 376.699219 C 400.492188 377.675781 400.078125 378.625 399.601562 379.546875 C 399.125 380.46875 398.585938 381.351562 397.992188 382.199219 C 397.394531 383.046875 396.742188 383.847656 396.035156 384.609375 C 384.65625 397.25 372.1875 408.710938 358.636719 418.984375 Z M 337.660156 349.707031 C 336.542969 349.707031 335.4375 349.8125 334.34375 350.019531 C 332.578125 350.394531 330.886719 350.988281 329.273438 351.800781 C 327.664062 352.613281 326.179688 353.617188 324.828125 354.8125 C 323.472656 356.007812 322.292969 357.355469 321.289062 358.855469 C 320.285156 360.355469 319.488281 361.960938 318.898438 363.667969 C 318.414062 365.050781 318.125 366.472656 318.03125 367.9375 C 317.941406 369.398438 318.046875 370.847656 318.355469 372.28125 C 318.664062 373.714844 319.160156 375.078125 319.84375 376.375 C 320.53125 377.671875 321.378906 378.851562 322.390625 379.914062 C 332.875 391.515625 344.277344 402.140625 356.59375 411.777344 C 368.933594 402.144531 380.367188 391.527344 390.886719 379.929688 C 391.886719 378.863281 392.726562 377.675781 393.402344 376.378906 C 394.078125 375.078125 394.566406 373.710938 394.867188 372.273438 C 395.164062 370.839844 395.261719 369.390625 395.160156 367.929688 C 395.0625 366.46875 394.765625 365.046875 394.269531 363.667969 C 393.683594 361.953125 392.890625 360.347656 391.886719 358.839844 C 390.886719 357.335938 389.707031 355.980469 388.355469 354.78125 C 387 353.582031 385.515625 352.574219 383.902344 351.757812 C 382.289062 350.941406 380.597656 350.34375 378.828125 349.96875 C 373.871094 349.042969 366.542969 349.707031 359.230469 358.429688 L 356.59375 361.484375 L 353.941406 358.429688 C 348.128906 351.449219 342.285156 349.707031 337.660156 349.707031 Z M 337.660156 349.707031 " fill-opacity="1" fill-rule="nonzero"/></g><g clip-path="url(#0bd2afcee2)"><path fill="#2bb540" d="M 753.488281 420.394531 C 752.59375 420.394531 751.824219 420.085938 751.171875 419.476562 L 722.539062 392.53125 L 695.183594 419.101562 C 694.695312 419.5625 694.117188 419.855469 693.453125 419.972656 C 692.792969 420.09375 692.148438 420.023438 691.53125 419.761719 C 690.910156 419.5 690.410156 419.089844 690.03125 418.53125 C 689.65625 417.972656 689.460938 417.359375 689.449219 416.683594 L 689.449219 348.375 C 689.449219 347.921875 689.535156 347.488281 689.707031 347.070312 C 689.878906 346.652344 690.125 346.285156 690.445312 345.964844 C 690.765625 345.648438 691.132812 345.402344 691.550781 345.226562 C 691.964844 345.054688 692.402344 344.96875 692.851562 344.96875 L 753.488281 344.96875 C 753.9375 344.96875 754.371094 345.054688 754.789062 345.226562 C 755.207031 345.402344 755.574219 345.648438 755.894531 345.964844 C 756.214844 346.285156 756.460938 346.652344 756.632812 347.070312 C 756.804688 347.488281 756.890625 347.921875 756.890625 348.375 L 756.890625 417.007812 C 756.890625 417.683594 756.703125 418.304688 756.332031 418.871094 C 755.964844 419.4375 755.46875 419.855469 754.847656 420.125 C 754.414062 420.308594 753.960938 420.398438 753.488281 420.394531 Z M 722.503906 384.460938 C 723.398438 384.464844 724.167969 384.769531 724.820312 385.378906 L 750.117188 409.210938 L 750.117188 351.777344 L 696.257812 351.777344 L 696.257812 408.683594 L 720.089844 385.414062 C 720.761719 384.765625 721.570312 384.445312 722.503906 384.460938 Z M 722.503906 384.460938 " fill-opacity="1" fill-rule="nonzero"/></g><path stroke-linecap="butt" transform="matrix(0.75, -0.000000000000000186, 0.000000000000000186, 0.75, 40.598435, 422.449943)" fill="none" stroke-linejoin="miter" d="M -0.00103841 1.999035 L 1010.405262 1.999035 " stroke="#2bb540" stroke-width="4" stroke-opacity="1" stroke-miterlimit="4"/></svg>