<svg xmlns="http://www.w3.org/2000/svg" xmlns:xlink="http://www.w3.org/1999/xlink" width="1080" zoomAndPan="magnify" viewBox="0 0 810 809.999993" height="1080" preserveAspectRatio="xMidYMid meet" version="1.0"><defs><clipPath id="ac9d18c32a"><path d="M 114.585938 127.253906 L 695.085938 127.253906 L 695.085938 707.753906 L 114.585938 707.753906 Z M 114.585938 127.253906 " clip-rule="nonzero"/></clipPath></defs><g clip-path="url(#ac9d18c32a)"><path fill="#000000" d="M 683.476562 127.253906 L 567.375 127.253906 C 560.957031 127.253906 555.765625 132.449219 555.765625 138.863281 L 555.765625 568.433594 L 126.195312 568.433594 C 119.777344 568.433594 114.585938 573.625 114.585938 580.042969 L 114.585938 696.140625 C 114.585938 702.558594 119.777344 707.753906 126.195312 707.753906 L 683.476562 707.753906 C 689.890625 707.753906 695.085938 702.558594 695.085938 696.140625 L 695.085938 138.863281 C 695.085938 132.449219 689.890625 127.253906 683.476562 127.253906 Z M 671.867188 150.472656 L 671.867188 208.523438 L 637.035156 208.523438 C 630.617188 208.523438 625.425781 213.722656 625.425781 220.132812 C 625.425781 226.542969 630.617188 231.742188 637.035156 231.742188 L 671.867188 231.742188 L 671.867188 266.574219 L 660.253906 266.574219 C 653.839844 266.574219 648.644531 271.769531 648.644531 278.183594 C 648.644531 284.59375 653.839844 289.792969 660.253906 289.792969 L 671.867188 289.792969 L 671.867188 324.621094 L 637.035156 324.621094 C 630.617188 324.621094 625.425781 329.820312 625.425781 336.234375 C 625.425781 342.644531 630.617188 347.84375 637.035156 347.84375 L 671.867188 347.84375 L 671.867188 382.671875 L 660.253906 382.671875 C 653.839844 382.671875 648.644531 387.871094 648.644531 394.28125 C 648.644531 400.695312 653.839844 405.890625 660.253906 405.890625 L 671.867188 405.890625 L 671.867188 440.722656 L 637.035156 440.722656 C 630.617188 440.722656 625.425781 445.914062 625.425781 452.332031 C 625.425781 458.75 630.617188 463.941406 637.035156 463.941406 L 671.867188 463.941406 L 671.867188 498.773438 L 660.253906 498.773438 C 653.839844 498.773438 648.644531 503.964844 648.644531 510.382812 C 648.644531 516.800781 653.839844 521.992188 660.253906 521.992188 L 671.867188 521.992188 L 671.867188 556.824219 L 637.035156 556.824219 C 630.617188 556.824219 625.425781 562.015625 625.425781 568.433594 C 625.425781 574.851562 630.617188 580.042969 637.035156 580.042969 L 671.867188 580.042969 L 671.867188 668.117188 L 578.984375 575.234375 L 578.984375 150.472656 Z M 137.804688 591.652344 L 562.566406 591.652344 L 655.449219 684.53125 L 555.765625 684.53125 L 555.765625 649.703125 C 555.765625 643.285156 550.574219 638.09375 544.15625 638.09375 C 537.738281 638.09375 532.546875 643.285156 532.546875 649.703125 L 532.546875 684.53125 L 497.714844 684.53125 L 497.714844 672.921875 C 497.714844 666.503906 492.523438 661.3125 486.105469 661.3125 C 479.6875 661.3125 474.496094 666.503906 474.496094 672.921875 L 474.496094 684.53125 L 439.664062 684.53125 L 439.664062 649.703125 C 439.664062 643.285156 434.472656 638.09375 428.054688 638.09375 C 421.636719 638.09375 416.445312 643.285156 416.445312 649.703125 L 416.445312 684.53125 L 381.617188 684.53125 L 381.617188 672.921875 C 381.617188 666.503906 376.421875 661.3125 370.003906 661.3125 C 363.589844 661.3125 358.394531 666.503906 358.394531 672.921875 L 358.394531 684.53125 L 323.566406 684.53125 L 323.566406 649.703125 C 323.566406 643.285156 318.371094 638.09375 311.957031 638.09375 C 305.539062 638.09375 300.34375 643.285156 300.34375 649.703125 L 300.34375 684.53125 L 265.515625 684.53125 L 265.515625 672.921875 C 265.515625 666.503906 260.324219 661.3125 253.90625 661.3125 C 247.488281 661.3125 242.296875 666.503906 242.296875 672.921875 L 242.296875 684.53125 L 207.464844 684.53125 L 207.464844 649.703125 C 207.464844 643.285156 202.273438 638.09375 195.855469 638.09375 C 189.4375 638.09375 184.246094 643.285156 184.246094 649.703125 L 184.246094 684.53125 L 137.804688 684.53125 Z M 137.804688 591.652344 " fill-opacity="1" fill-rule="nonzero"/></g><path fill="#000000" d="M 520.933594 371.0625 C 527.320312 371.0625 532.546875 365.835938 532.546875 359.453125 L 532.546875 173.691406 C 532.546875 167.308594 527.320312 162.082031 520.933594 162.082031 L 149.414062 162.082031 C 143.03125 162.082031 137.804688 167.308594 137.804688 173.691406 L 137.804688 533.601562 C 137.804688 539.988281 143.03125 545.210938 149.414062 545.210938 L 520.933594 545.210938 C 527.320312 545.210938 532.546875 539.988281 532.546875 533.601562 L 532.546875 452.332031 C 532.546875 445.945312 527.320312 440.722656 520.933594 440.722656 C 514.550781 440.722656 509.324219 445.945312 509.324219 452.332031 L 509.324219 521.992188 L 161.023438 521.992188 L 161.023438 185.300781 L 253.90625 185.300781 L 253.90625 278.183594 C 253.90625 284.566406 259.128906 289.792969 265.515625 289.792969 L 404.835938 289.792969 C 411.222656 289.792969 416.445312 284.566406 416.445312 278.183594 L 416.445312 185.300781 L 509.324219 185.300781 L 509.324219 359.453125 C 509.324219 365.835938 514.550781 371.0625 520.933594 371.0625 Z M 393.226562 266.574219 L 277.125 266.574219 L 277.125 185.300781 L 393.226562 185.300781 Z M 393.226562 266.574219 " fill-opacity="1" fill-rule="nonzero"/><path fill="#000000" d="M 335.175781 429.113281 L 195.855469 429.113281 C 189.4375 429.113281 184.246094 434.3125 184.246094 440.722656 C 184.246094 447.132812 189.4375 452.332031 195.855469 452.332031 L 335.175781 452.332031 C 341.59375 452.332031 346.785156 447.132812 346.785156 440.722656 C 346.785156 434.3125 341.59375 429.113281 335.175781 429.113281 Z M 335.175781 429.113281 " fill-opacity="1" fill-rule="nonzero"/><path fill="#000000" d="M 335.175781 475.550781 L 195.855469 475.550781 C 189.4375 475.550781 184.246094 480.75 184.246094 487.164062 C 184.246094 493.574219 189.4375 498.773438 195.855469 498.773438 L 335.175781 498.773438 C 341.59375 498.773438 346.785156 493.574219 346.785156 487.164062 C 346.785156 480.75 341.59375 475.550781 335.175781 475.550781 Z M 335.175781 475.550781 " fill-opacity="1" fill-rule="nonzero"/><path fill="#000000" d="M 532.546875 405.890625 C 532.546875 406.65625 532.472656 407.410156 532.320312 408.15625 C 532.171875 408.90625 531.953125 409.632812 531.660156 410.335938 C 531.371094 411.039062 531.011719 411.707031 530.589844 412.34375 C 530.164062 412.976562 529.683594 413.5625 529.144531 414.101562 C 528.605469 414.640625 528.019531 415.121094 527.386719 415.546875 C 526.75 415.96875 526.082031 416.328125 525.378906 416.617188 C 524.675781 416.910156 523.949219 417.128906 523.199219 417.28125 C 522.453125 417.429688 521.699219 417.503906 520.933594 417.503906 C 520.171875 417.503906 519.417969 417.429688 518.671875 417.28125 C 517.921875 417.128906 517.195312 416.910156 516.492188 416.617188 C 515.789062 416.328125 515.117188 415.96875 514.484375 415.546875 C 513.851562 415.121094 513.265625 414.640625 512.726562 414.101562 C 512.1875 413.5625 511.707031 412.976562 511.28125 412.34375 C 510.859375 411.707031 510.5 411.039062 510.210938 410.335938 C 509.917969 409.632812 509.695312 408.90625 509.546875 408.15625 C 509.398438 407.410156 509.324219 406.65625 509.324219 405.890625 C 509.324219 405.128906 509.398438 404.375 509.546875 403.628906 C 509.695312 402.878906 509.917969 402.152344 510.210938 401.449219 C 510.5 400.746094 510.859375 400.074219 511.28125 399.441406 C 511.707031 398.808594 512.1875 398.222656 512.726562 397.683594 C 513.265625 397.144531 513.851562 396.664062 514.484375 396.238281 C 515.117188 395.816406 515.789062 395.457031 516.492188 395.167969 C 517.195312 394.875 517.921875 394.65625 518.671875 394.503906 C 519.417969 394.355469 520.171875 394.28125 520.933594 394.28125 C 521.699219 394.28125 522.453125 394.355469 523.199219 394.503906 C 523.949219 394.65625 524.675781 394.875 525.378906 395.167969 C 526.082031 395.457031 526.75 395.816406 527.386719 396.238281 C 528.019531 396.664062 528.605469 397.144531 529.144531 397.683594 C 529.683594 398.222656 530.164062 398.808594 530.589844 399.441406 C 531.011719 400.074219 531.371094 400.746094 531.660156 401.449219 C 531.953125 402.152344 532.171875 402.878906 532.320312 403.628906 C 532.472656 404.375 532.546875 405.128906 532.546875 405.890625 Z M 532.546875 405.890625 " fill-opacity="1" fill-rule="nonzero"/></svg>