<svg xmlns="http://www.w3.org/2000/svg" xmlns:xlink="http://www.w3.org/1999/xlink" width="1080" zoomAndPan="magnify" viewBox="0 0 810 809.999993" height="1080" preserveAspectRatio="xMidYMid meet" version="1.0"><defs><clipPath id="dc803a3381"><path d="M 220 154.679688 L 628.707031 154.679688 L 628.707031 607 L 220 607 Z M 220 154.679688 " clip-rule="nonzero"/></clipPath></defs><path fill="#ffffff" d="M 229.457031 278.816406 C 238.394531 278.816406 282.207031 278.816406 291.390625 278.816406 C 290.890625 295.109375 310.738281 323.335938 310.738281 323.335938 L 288.660156 367.484375 L 262.398438 367.484375 C 248.734375 367.484375 237.285156 357.128906 235.929688 343.535156 Z M 229.457031 278.816406 " fill-opacity="1" fill-rule="nonzero"/><path fill="#ffffff" d="M 619.601562 367.484375 C 619.601562 425.980469 576.039062 474.296875 519.582031 481.753906 L 519.386719 481.761719 L 509.652344 460.589844 L 518.191406 441.632812 L 518.34375 441.621094 C 555.734375 435.007812 584.136719 402.351562 584.136719 363.050781 C 584.136719 322.070312 553.25 288.3125 513.492188 283.773438 L 513.484375 283.773438 L 503.667969 272.019531 L 511.027344 252.410156 C 571.578125 255.878906 619.601562 306.0625 619.601562 367.484375 Z M 619.601562 367.484375 " fill-opacity="1" fill-rule="nonzero"/><path fill="#ffffff" d="M 513.484375 283.773438 C 512.929688 274.421875 514.140625 261.59375 508.800781 243.347656 C 491.578125 243.347656 491.890625 243.347656 477.730469 243.347656 L 402.363281 402.953125 C 402.363281 411.027344 392.3125 486.007812 392.3125 486.007812 C 392.3125 486.007812 402.363281 555.140625 402.363281 562.558594 L 461.769531 584.726562 C 461.769531 584.726562 519.070312 562.929688 521.835938 563.625 C 517.578125 421.023438 525.046875 671.519531 513.484375 283.773438 Z M 513.484375 283.773438 " fill-opacity="1" fill-rule="nonzero"/><path fill="#ffffff" d="M 326.992188 243.347656 C 310.242188 243.347656 298.503906 243.347656 295.933594 243.347656 C 293.058594 253.199219 291.523438 263.609375 291.523438 274.382812 C 290.4375 311.136719 292.042969 253.199219 282.890625 563.625 L 347.386719 582.507812 L 402.363281 562.558594 C 402.363281 545.695312 402.363281 419.605469 402.363281 402.953125 Z M 326.992188 243.347656 " fill-opacity="1" fill-rule="nonzero"/><path fill="#ffffff" d="M 548.667969 598.027344 L 256.058594 598.027344 C 256.058594 578.3125 272.082031 562.558594 291.523438 562.558594 C 297.777344 562.558594 506.949219 562.558594 513.199219 562.558594 C 532.652344 562.558594 548.667969 578.316406 548.667969 598.027344 Z M 548.667969 598.027344 " fill-opacity="1" fill-rule="nonzero"/><path fill="#ffffff" d="M 402.363281 163.546875 C 351.910156 163.546875 309.347656 197.25 295.933594 243.347656 C 305.609375 243.347656 316.042969 243.347656 326.992188 243.347656 L 404.578125 256.207031 L 477.730469 243.347656 C 488.683594 243.347656 499.121094 243.347656 508.800781 243.347656 C 495.359375 197.105469 452.628906 163.546875 402.363281 163.546875 Z M 402.363281 163.546875 " fill-opacity="1" fill-rule="nonzero"/><path fill="#ffffff" d="M 477.730469 243.347656 L 477.730469 327.585938 C 477.730469 369.207031 443.984375 402.953125 402.363281 402.953125 C 360.75 402.953125 326.992188 369.207031 326.992188 327.585938 L 326.992188 243.347656 C 367.488281 243.347656 437.308594 243.347656 477.730469 243.347656 Z M 477.730469 243.347656 " fill-opacity="1" fill-rule="nonzero"/><path fill="#000000" d="M 433.101562 312.199219 C 428.464844 313.773438 425.980469 318.808594 427.550781 323.445312 C 433.425781 340.761719 420.472656 358.617188 402.363281 358.617188 C 384.226562 358.617188 371.304688 340.734375 377.171875 323.445312 C 378.746094 318.808594 376.261719 313.773438 371.621094 312.199219 C 366.988281 310.628906 361.949219 313.113281 360.375 317.75 C 350.597656 346.59375 372.179688 376.351562 402.363281 376.351562 C 432.570312 376.351562 454.117188 346.566406 444.347656 317.75 C 442.773438 313.113281 437.742188 310.625 433.101562 312.199219 Z M 433.101562 312.199219 " fill-opacity="1" fill-rule="nonzero"/><path fill="#000000" d="M 402.363281 323.152344 C 407.257812 323.152344 411.230469 319.179688 411.230469 314.285156 L 411.230469 278.816406 C 411.230469 273.917969 407.257812 269.949219 402.363281 269.949219 C 397.464844 269.949219 393.496094 273.917969 393.496094 278.816406 L 393.496094 314.285156 C 393.496094 319.179688 397.464844 323.152344 402.363281 323.152344 Z M 402.363281 323.152344 " fill-opacity="1" fill-rule="nonzero"/><g clip-path="url(#dc803a3381)"><path fill="#000000" d="M 628.46875 367.484375 C 628.46875 303.988281 580.554688 251.042969 518.199219 244.125 C 504.792969 192.726562 458.160156 154.679688 402.363281 154.679688 C 337.265625 154.679688 285.085938 206.363281 282.75 269.949219 L 229.457031 269.949219 C 224.214844 269.949219 220.113281 274.476562 220.632812 279.699219 L 227.105469 344.417969 C 228.921875 362.625 244.097656 376.351562 262.398438 376.351562 L 279.527344 376.351562 L 274.207031 557.21875 C 258.339844 563.976562 247.191406 579.722656 247.191406 598.027344 C 247.191406 602.921875 251.160156 606.894531 256.058594 606.894531 L 548.667969 606.894531 C 553.5625 606.894531 557.535156 602.921875 557.535156 598.027344 C 557.535156 579.722656 546.382812 563.972656 530.515625 557.214844 L 528.488281 489.265625 C 586.007812 477.914062 628.46875 426.894531 628.46875 367.484375 Z M 504.332031 274.382812 C 504.332031 274.601562 504.167969 268.976562 512.667969 553.691406 L 411.230469 553.691406 L 411.230469 531.523438 L 424.53125 531.523438 C 429.425781 531.523438 433.398438 527.554688 433.398438 522.65625 C 433.398438 517.761719 429.425781 513.789062 424.53125 513.789062 L 411.230469 513.789062 L 411.230469 491.625 L 424.53125 491.625 C 429.425781 491.625 433.398438 487.652344 433.398438 482.757812 C 433.398438 477.859375 429.425781 473.890625 424.53125 473.890625 L 411.230469 473.890625 L 411.230469 451.722656 L 424.53125 451.722656 C 429.425781 451.722656 433.398438 447.75 433.398438 442.855469 C 433.398438 437.957031 429.425781 433.988281 424.53125 433.988281 L 411.230469 433.988281 L 411.230469 411.355469 C 453.523438 406.910156 486.597656 371.039062 486.597656 327.585938 L 486.597656 252.214844 L 501.890625 252.214844 C 503.488281 259.375 504.332031 266.796875 504.332031 274.382812 Z M 402.363281 394.085938 C 365.613281 394.085938 335.859375 364.328125 335.859375 327.585938 L 335.859375 252.214844 L 468.863281 252.214844 L 468.863281 327.585938 C 468.863281 364.253906 439.03125 394.085938 402.363281 394.085938 Z M 402.363281 172.414062 C 445.066406 172.414062 480.785156 198.335938 496.1875 234.480469 C 479.503906 234.480469 332.507812 234.480469 308.5 234.480469 C 324.269531 197.5625 361.15625 172.414062 402.363281 172.414062 Z M 300.300781 277.601562 C 300.542969 269.628906 300.390625 263.132812 302.808594 252.214844 L 318.125 252.214844 L 318.125 327.585938 C 318.125 371.140625 351.125 406.929688 393.496094 411.359375 L 393.496094 433.988281 L 380.195312 433.988281 C 375.296875 433.988281 371.328125 437.957031 371.328125 442.855469 C 371.328125 447.75 375.296875 451.722656 380.195312 451.722656 L 393.496094 451.722656 L 393.496094 473.890625 L 380.195312 473.890625 C 375.296875 473.890625 371.328125 477.859375 371.328125 482.757812 C 371.328125 487.652344 375.296875 491.625 380.195312 491.625 L 393.496094 491.625 L 393.496094 513.789062 L 380.195312 513.789062 C 375.296875 513.789062 371.328125 517.761719 371.328125 522.65625 C 371.328125 527.554688 375.296875 531.523438 380.195312 531.523438 L 393.496094 531.523438 L 393.496094 553.691406 L 292.054688 553.691406 C 300.402344 273.882812 300.3125 277.691406 300.300781 277.601562 Z M 262.398438 358.617188 C 253.246094 358.617188 245.660156 351.757812 244.753906 342.652344 L 239.253906 287.683594 L 282.246094 287.683594 L 280.0625 358.617188 Z M 538.28125 589.160156 L 266.445312 589.160156 C 270.101562 578.839844 279.964844 571.425781 291.523438 571.425781 L 513.199219 571.425781 C 524.695312 571.425781 534.605469 578.789062 538.28125 589.160156 Z M 522.671875 294.511719 C 553.273438 302.632812 575.269531 330.480469 575.269531 363.050781 C 575.269531 394.054688 555.375 420.921875 526.730469 430.378906 Z M 527.949219 471.257812 L 527.277344 448.714844 C 565.78125 438.484375 593.003906 403.59375 593.003906 363.050781 C 593.003906 320.546875 563.027344 284.480469 522.125 276.179688 C 522.019531 272.265625 522.089844 268.675781 521.472656 262.460938 C 572.332031 270.679688 610.734375 314.851562 610.734375 367.484375 C 610.734375 417.40625 575.765625 460.421875 527.949219 471.257812 Z M 527.949219 471.257812 " fill-opacity="1" fill-rule="nonzero"/></g></svg>