<svg xmlns="http://www.w3.org/2000/svg" xmlns:xlink="http://www.w3.org/1999/xlink" width="1080" zoomAndPan="magnify" viewBox="0 0 810 809.999993" height="1080" preserveAspectRatio="xMidYMid meet" version="1.0"><defs><clipPath id="86fbb6c0f1"><path d="M 164.898438 528 L 644.898438 528 L 644.898438 686 L 164.898438 686 Z M 164.898438 528 " clip-rule="nonzero"/></clipPath></defs><g clip-path="url(#86fbb6c0f1)"><path fill="#000000" d="M 404.898438 685.703125 C 343.039062 685.703125 284.714844 678.632812 240.664062 665.796875 C 191.082031 651.347656 164.875 630.902344 164.875 606.671875 C 164.875 558.316406 267.84375 534.679688 356.023438 529.128906 C 363.097656 528.664062 369.191406 534.0625 369.636719 541.140625 C 370.082031 548.21875 364.707031 554.316406 357.632812 554.761719 C 308.820312 557.832031 264.621094 565.699219 233.1875 576.90625 C 201.710938 588.128906 190.539062 599.957031 190.539062 606.671875 C 190.539062 613.273438 202.609375 627.957031 247.839844 641.140625 C 289.625 653.316406 345.402344 660.019531 404.898438 660.019531 C 464.402344 660.019531 520.183594 653.316406 561.964844 641.140625 C 607.1875 627.960938 619.253906 613.273438 619.253906 606.671875 C 619.253906 589.390625 558.476562 560.886719 448.582031 554.5625 C 441.507812 554.152344 436.097656 548.082031 436.507812 541.003906 C 436.914062 533.921875 442.996094 528.496094 450.058594 528.921875 C 539.949219 534.097656 644.921875 557.5625 644.921875 606.671875 C 644.921875 630.90625 618.71875 651.351562 569.144531 665.796875 C 525.09375 678.632812 466.765625 685.703125 404.898438 685.703125 Z M 404.898438 685.703125 " fill-opacity="1" fill-rule="nonzero"/></g><path fill="#000000" d="M 402.890625 630.589844 C 398.222656 630.589844 393.925781 628.058594 391.664062 623.976562 C 380.058594 603.042969 362.214844 574.644531 341.554688 541.765625 C 283.828125 449.886719 211.988281 335.546875 211.988281 281.035156 C 211.988281 175.71875 297.625 90.035156 402.886719 90.035156 C 508.128906 90.035156 593.753906 175.71875 593.753906 281.035156 C 593.753906 338.273438 526.113281 444.769531 466.4375 538.730469 C 445.886719 571.082031 426.480469 601.640625 414.113281 623.972656 C 411.851562 628.054688 407.554688 630.585938 402.890625 630.589844 Z M 402.886719 115.71875 C 311.777344 115.71875 237.65625 189.878906 237.65625 281.035156 C 237.65625 328.144531 310.265625 443.710938 363.285156 528.09375 C 378.386719 552.128906 391.996094 573.789062 402.890625 592.089844 C 414.675781 572.339844 429.410156 549.144531 444.773438 524.957031 C 496.8125 443.019531 568.082031 330.800781 568.082031 281.035156 C 568.082031 189.878906 493.976562 115.71875 402.886719 115.71875 Z M 402.886719 115.71875 " fill-opacity="1" fill-rule="nonzero"/><path fill="#000000" d="M 402.886719 366.746094 C 351.929688 366.746094 310.472656 325.28125 310.472656 274.320312 C 310.472656 223.335938 351.929688 181.859375 402.886719 181.859375 C 453.824219 181.859375 495.265625 223.335938 495.265625 274.320312 C 495.265625 325.28125 453.824219 366.746094 402.886719 366.746094 Z M 402.886719 207.539062 C 366.082031 207.539062 336.140625 237.496094 336.140625 274.316406 C 336.140625 311.121094 366.082031 341.0625 402.886719 341.0625 C 439.671875 341.0625 469.597656 311.121094 469.597656 274.316406 C 469.597656 237.496094 439.671875 207.539062 402.886719 207.539062 Z M 402.886719 207.539062 " fill-opacity="1" fill-rule="nonzero"/></svg>