<svg xmlns="http://www.w3.org/2000/svg" xmlns:xlink="http://www.w3.org/1999/xlink" width="1080" zoomAndPan="magnify" viewBox="0 0 810 809.999993" height="1080" preserveAspectRatio="xMidYMid meet" version="1.0"><defs><clipPath id="e69a39dbb6"><path d="M 490 314 L 734 314 L 734 677.929688 L 490 677.929688 Z M 490 314 " clip-rule="nonzero"/></clipPath><clipPath id="9f1d22c3ea"><path d="M 119 314 L 362 314 L 362 677.929688 L 119 677.929688 Z M 119 314 " clip-rule="nonzero"/></clipPath><clipPath id="48b1b0a5c6"><path d="M 383 176.179688 L 473 176.179688 L 473 266 L 383 266 Z M 383 176.179688 " clip-rule="nonzero"/></clipPath></defs><g clip-path="url(#e69a39dbb6)"><path fill="#020202" d="M 551.363281 599.082031 C 551.363281 615.675781 551.859375 632.296875 551.214844 648.867188 C 550.511719 667.019531 539.421875 677.640625 522.261719 678.046875 C 505.304688 678.425781 491.773438 668.121094 491.414062 650.621094 C 490.425781 602.042969 490.480469 553.410156 491.359375 504.832031 C 491.664062 488.410156 505 477.765625 522.59375 477.339844 C 544.515625 476.808594 566.457031 476.746094 588.367188 477.316406 C 598.875 477.585938 603.449219 475.941406 604.328125 463.304688 C 606.464844 432.679688 611.804688 402.347656 621.003906 372.882812 C 632.199219 337.011719 663.410156 314.050781 700.675781 314.308594 C 726.683594 314.488281 737.976562 329.242188 731.097656 355.25 C 720.691406 394.589844 709.78125 433.777344 698.953125 472.992188 C 681.550781 535.996094 681.496094 535.980469 615.398438 535.980469 C 599.980469 535.980469 584.519531 536.808594 569.183594 535.734375 C 555.777344 534.773438 549.804688 537.984375 551.167969 552.882812 C 552.578125 568.160156 551.484375 583.671875 551.484375 599.082031 C 551.445312 599.082031 551.398438 599.082031 551.363281 599.082031 Z M 551.363281 599.082031 " fill-opacity="1" fill-rule="evenodd"/></g><g clip-path="url(#9f1d22c3ea)"><path fill="#010101" d="M 361.816406 577.726562 C 361.816406 600.265625 362.105469 622.796875 361.730469 645.332031 C 361.394531 665.9375 348.980469 678.417969 330.167969 678.007812 C 312.105469 677.617188 301.214844 665.601562 301.070312 645.128906 C 300.859375 614.289062 300.375 583.429688 301.316406 552.625 C 301.714844 539.792969 299.097656 534.953125 285.070312 535.609375 C 258.453125 536.855469 231.71875 536.160156 205.050781 535.902344 C 181.222656 535.679688 168.199219 525.722656 161.679688 502.230469 C 147.78125 452.210938 134.089844 402.121094 120.785156 351.929688 C 114.828125 329.445312 126.519531 314.882812 149.832031 314.316406 C 188.855469 313.359375 222.195312 337.386719 232.945312 375.890625 C 240.742188 403.789062 246.574219 432.289062 247.851562 461.335938 C 248.367188 473.113281 251.417969 478.1875 264.273438 477.429688 C 283.175781 476.308594 302.199219 477.074219 321.171875 477.152344 C 351.644531 477.277344 361.769531 487.289062 361.824219 517.230469 C 361.847656 537.398438 361.816406 557.5625 361.816406 577.726562 Z M 361.816406 577.726562 " fill-opacity="1" fill-rule="evenodd"/></g><path fill="#010101" d="M 428.328125 282.230469 C 446.679688 282.230469 465.03125 282.039062 483.390625 282.269531 C 515.609375 282.675781 538.898438 305.792969 539.871094 338.054688 C 540.019531 342.792969 539.917969 347.53125 539.917969 352.265625 C 539.925781 375.960938 539.902344 375.28125 517.082031 376.007812 C 505.179688 376.386719 499.671875 373.800781 501.144531 360.726562 C 501.789062 355.0625 504.609375 344.765625 496.113281 344.4375 C 486.664062 344.054688 489.832031 354.527344 490.558594 359.933594 C 492.441406 373.925781 486.601562 376.433594 473.875 376.054688 C 443.105469 375.101562 412.292969 375.101562 381.53125 376.054688 C 368.867188 376.433594 364.292969 372.515625 366.273438 360.246094 C 366.738281 357.371094 366.429688 354.324219 366.140625 351.386719 C 365.804688 347.808594 365.074219 343.570312 360.570312 343.828125 C 356.707031 344.054688 354.753906 347.367188 355 351.472656 C 355.03125 352.0625 355.085938 352.664062 355 353.25 C 353.894531 360.570312 358.871094 371.96875 352.105469 374.480469 C 342.71875 377.953125 331.152344 375.554688 320.511719 375.65625 C 316.832031 375.6875 315.230469 373.558594 315.386719 370.164062 C 316.179688 351.976562 311.644531 333.085938 319.722656 315.8125 C 329.460938 295.007812 346.113281 282.832031 369.707031 282.308594 C 389.234375 281.890625 408.777344 282.230469 428.328125 282.230469 Z M 428.328125 282.230469 " fill-opacity="1" fill-rule="evenodd"/><path fill="#010101" d="M 429.4375 431.953125 C 380.808594 431.953125 332.164062 431.277344 283.566406 432.359375 C 268.804688 432.6875 268.671875 425.738281 269.753906 415.453125 C 270.722656 406.148438 264.566406 394.402344 283.550781 394.558594 C 380.207031 395.382812 476.871094 395.367188 573.523438 394.527344 C 590.175781 394.371094 586.453125 403.976562 586.007812 412.539062 C 585.570312 420.945312 591.835938 432.742188 573.523438 432.320312 C 525.515625 431.222656 477.464844 431.953125 429.4375 431.953125 Z M 429.4375 431.953125 " fill-opacity="1" fill-rule="evenodd"/><path fill="#020202" d="M 625.828125 592.195312 C 615.746094 592.195312 605.667969 592.125 595.589844 592.210938 C 585.089844 592.296875 578.023438 587.425781 577.519531 576.894531 C 576.949219 565.371094 584.996094 562.011719 595.175781 562.050781 C 611.765625 562.105469 628.375 562.128906 644.964844 562.035156 C 682.546875 561.855469 704.640625 545.191406 714.617188 508.976562 C 727.617188 461.792969 740.40625 414.558594 752.988281 367.273438 C 755.875 356.394531 760.574219 347.078125 773.222656 350.816406 C 785.375 354.402344 785.195312 364.554688 782.210938 375.546875 C 769.4375 422.808594 757.667969 470.339844 744.605469 517.539062 C 731.316406 565.542969 695.300781 592.117188 645.394531 592.195312 C 638.867188 592.203125 632.339844 592.195312 625.828125 592.195312 Z M 625.828125 592.195312 " fill-opacity="1" fill-rule="evenodd"/><path fill="#020202" d="M 225.082031 592.195312 C 213.042969 591.238281 198.964844 592.804688 184.703125 589.988281 C 145.265625 582.214844 120.195312 558.660156 109.234375 521.15625 C 95.175781 473.03125 83.140625 424.320312 70.390625 375.8125 C 67.679688 365.488281 66.867188 354.253906 79.550781 350.722656 C 92.191406 347.203125 96.832031 356.433594 99.738281 367.414062 C 112.09375 414.183594 124.992188 460.8125 137.507812 507.535156 C 147.324219 544.179688 170.023438 561.910156 207.902344 562.050781 C 224.5 562.105469 241.097656 562.105469 257.699219 562.058594 C 267.878906 562.019531 276.289062 565.835938 275.722656 576.832031 C 275.214844 586.671875 268.035156 592.335938 257.410156 592.226562 C 247.324219 592.101562 237.242188 592.195312 225.082031 592.195312 Z M 225.082031 592.195312 " fill-opacity="1" fill-rule="evenodd"/><path fill="#020202" d="M 728.628906 248.449219 C 728.589844 275.375 707.054688 296.824219 680.179688 296.714844 C 653.253906 296.589844 631.988281 275.085938 632.105469 248.058594 C 632.214844 221.117188 653.605469 199.964844 680.625 200.058594 C 707.753906 200.160156 728.652344 221.234375 728.628906 248.449219 Z M 728.628906 248.449219 " fill-opacity="1" fill-rule="evenodd"/><path fill="#020202" d="M 220.332031 247.148438 C 220.558594 274.386719 199.746094 296.101562 172.910156 296.636719 C 146.871094 297.160156 123.894531 274.960938 123.253906 248.675781 C 122.601562 221.734375 145.058594 199.800781 173.222656 199.871094 C 199.566406 199.949219 220.113281 220.558594 220.332031 247.148438 Z M 220.332031 247.148438 " fill-opacity="1" fill-rule="evenodd"/><g clip-path="url(#48b1b0a5c6)"><path fill="#020202" d="M 472.667969 221.476562 C 472.765625 246.9375 453.449219 266.136719 427.933594 265.949219 C 403.007812 265.769531 382.769531 245.402344 383.144531 220.882812 C 383.503906 197.371094 403.792969 177.308594 427.605469 176.925781 C 452.59375 176.53125 472.574219 196.265625 472.667969 221.476562 Z M 472.667969 221.476562 " fill-opacity="1" fill-rule="evenodd"/></g></svg>