<svg xmlns="http://www.w3.org/2000/svg" xmlns:xlink="http://www.w3.org/1999/xlink" width="1080" zoomAndPan="magnify" viewBox="0 0 810 809.999993" height="1080" preserveAspectRatio="xMidYMid meet" version="1.0"><defs><clipPath id="0746f36ffb"><path d="M 239.355469 18 L 531.855469 18 L 531.855469 791.839844 L 239.355469 791.839844 Z M 239.355469 18 " clip-rule="nonzero"/></clipPath></defs><g clip-path="url(#0746f36ffb)"><path fill="#000000" d="M 241.4375 791.621094 L 239.5 722.941406 L 255.0625 721.9375 C 263.621094 721.382812 272.75 720.332031 275.34375 719.601562 L 280.0625 718.273438 L 280.0625 650.921875 L 287.554688 650.441406 C 298.707031 649.730469 299.265625 648.183594 300.789062 613.988281 L 302.085938 584.910156 L 309.164062 584.121094 L 316.242188 583.335938 L 316.191406 438.738281 C 316.015625 387.734375 315.339844 327.449219 314.691406 304.777344 L 313.511719 263.550781 L 317.765625 261.933594 L 322.023438 260.316406 L 321.566406 231.957031 L 321.105469 203.601562 L 325.335938 200.144531 C 329.285156 196.914062 329.59375 195.75 329.980469 182.539062 L 330.398438 168.394531 L 338.929688 167.910156 C 345.207031 167.554688 348.671875 166.410156 352.027344 163.585938 C 354.539062 161.476562 357.1875 159.75 357.914062 159.75 C 360.523438 159.75 369.148438 139.28125 370.632812 129.574219 C 371.46875 124.125 372.386719 111.179688 372.675781 100.808594 C 373.203125 81.925781 375.527344 76.359375 378.492188 72.621094 C 379.359375 71.523438 379.921875 55.316406 380.40625 43.902344 C 380.886719 32.484375 382.023438 21.875 382.925781 20.324219 C 383.832031 18.773438 384.632812 17.859375 384.707031 18.289062 C 384.78125 18.722656 385.117188 22.964844 385.453125 27.71875 C 386.539062 43.074219 384.835938 64.996094 386.644531 73.058594 C 387.613281 77.378906 394.925781 80.128906 393.964844 103.949219 C 393.429688 116.925781 396 130.53125 397.003906 134.207031 C 398.003906 137.882812 399.53125 143.628906 400.398438 146.976562 C 401.265625 150.324219 404.664062 156.09375 407.953125 159.796875 C 412.792969 165.246094 415.261719 166.710938 420.925781 167.484375 L 427.921875 168.441406 L 427.445312 180.335938 C 427.070312 189.601562 427.503906 192.675781 429.410156 194.257812 C 430.753906 195.371094 431.855469 198.335938 431.855469 200.847656 C 431.855469 204.253906 432.839844 205.78125 435.746094 206.886719 C 439.625 208.359375 439.640625 208.453125 440.070312 232.320312 L 440.507812 256.273438 L 444.4375 257.195312 L 448.371094 258.117188 L 449.539062 283.984375 C 451.164062 319.996094 452.457031 431.988281 451.945312 492.183594 C 451.359375 561.019531 451.742188 582.628906 453.585938 584.46875 C 454.449219 585.332031 458.585938 586.136719 462.773438 586.261719 L 470.394531 586.488281 L 470.394531 651.039062 L 474.324219 652.140625 C 476.488281 652.75 480.898438 653.316406 484.125 653.402344 L 489.988281 653.558594 L 490.414062 688.257812 L 490.839844 720.085938 L 511.289062 720.875 L 531.738281 721.660156 L 531.5 727.160156 C 530.957031 739.703125 530.886719 775.445312 529.792969 791.871094 L 241.433594 791.628906 Z M 441.738281 610.847656 C 442.457031 606.957031 442.65625 599.109375 442.179688 593.40625 C 446.429688 491.878906 442.664062 390.398438 441.308594 288.921875 C 441.300781 280.007812 440.605469 271.425781 439.765625 269.855469 C 429.734375 264.320312 419.699219 265.253906 409.664062 269.324219 L 408.621094 292.28125 C 408.042969 304.90625 408.335938 347.773438 409.261719 387.535156 C 410.191406 427.296875 410.734375 483.882812 410.46875 513.273438 L 409.984375 566.714844 L 358.710938 567.429688 L 359.039062 436.277344 L 357.363281 269.65625 C 347.996094 265.5 338.003906 263.464844 328.066406 269.679688 C 326.039062 270.988281 325.796875 285.355469 326.203125 380.890625 C 327.222656 620.09375 326.496094 612.183594 326.804688 612.183594 L 350.550781 611.835938 C 352.050781 614.734375 351.546875 588.582031 351.632812 588.046875 L 352.421875 581.761719 L 415.339844 581.761719 L 415.792969 598.171875 C 416.039062 607.199219 415.816406 610.464844 416.675781 611.5 L 441.738281 610.835938 Z M 406.851562 214.519531 L 402.773438 203.984375 C 388.046875 201.074219 377.164062 200.464844 361.671875 203.691406 C 361.671875 203.691406 358.238281 211.089844 359.546875 213.699219 C 359.695312 213.992188 385.574219 204.699219 406.851562 214.519531 Z M 346.914062 195.976562 C 346.914062 190.070312 357.308594 189.359375 359.5 195.113281 C 360.320312 197.277344 361.382812 199.042969 361.859375 199.042969 C 362.332031 199.042969 363.394531 197.277344 364.21875 195.113281 C 366.148438 190.042969 372.761719 189.726562 375.363281 194.582031 C 376.988281 197.617188 377.820312 197.910156 378.640625 195.367188 C 380.746094 188.84375 387.886719 190.746094 390.742188 194.722656 C 392.046875 196.539062 393.035156 196.140625 394.28125 193.9375 C 397.730469 189.5 400.714844 191.636719 403.371094 195.472656 C 404.847656 198.070312 405.050781 198.0625 407.09375 195.300781 C 409.984375 191.394531 414.976562 191.042969 416.128906 195.910156 C 416.941406 199.335938 417.199219 199.464844 418.164062 196.953125 C 420.203125 191.648438 419.335938 187.988281 415.734375 186.695312 C 411.183594 185.066406 362.917969 184.628906 351.800781 186.121094 C 342 187.433594 339.605469 189.957031 342.070312 196.386719 C 343.863281 201.074219 346.914062 200.8125 346.914062 195.976562 Z M 421.761719 273.878906 L 419.695312 283.554688 L 421.515625 601.644531 L 425.496094 601.253906 L 421.761719 273.882812 Z M 429.921875 273.878906 L 427.808594 283.554688 L 429.675781 601.644531 L 433.609375 601.253906 L 429.921875 273.882812 Z M 336.820312 274.8125 L 334.757812 284.4375 L 333.332031 603.605469 L 337.3125 603.261719 L 336.820312 274.808594 Z M 344.980469 274.8125 L 342.867188 284.4375 L 341.441406 603.605469 L 345.425781 603.261719 L 344.980469 274.808594 Z M 363.023438 587.058594 L 360.320312 591.675781 L 358.402344 743.9375 L 363.613281 743.742188 L 363.023438 587.054688 Z M 376.246094 587.058594 L 373.441406 591.675781 L 371.574219 743.9375 L 376.835938 743.742188 L 376.246094 587.054688 Z M 394.136719 587.058594 L 391.433594 591.675781 L 389.515625 743.9375 L 394.726562 743.742188 L 394.136719 587.054688 Z M 407.359375 587.058594 L 404.558594 591.675781 L 402.691406 743.9375 L 407.949219 743.742188 L 407.359375 587.054688 Z M 307.675781 614.21875 L 307.675781 742.859375 L 314.210938 742.859375 L 315.835938 639.414062 L 320.308594 640.050781 L 319.964844 742.855469 L 324.78125 742.855469 L 326.058594 640.390625 L 330.1875 640.390625 L 329.546875 742.855469 L 334.660156 742.855469 L 335.644531 640.6875 L 339.773438 640.6875 L 339.476562 743.148438 L 346.65625 743.789062 L 346.65625 628.410156 L 314.703125 623.792969 L 314.554688 614.214844 L 307.675781 614.214844 Z M 452.882812 614.21875 L 452.734375 623.796875 L 420.78125 628.414062 L 420.78125 743.792969 L 427.960938 743.152344 L 427.613281 640.691406 L 431.792969 640.691406 L 432.726562 742.859375 L 437.839844 742.859375 L 437.199219 640.394531 L 441.378906 640.394531 L 442.65625 742.859375 L 447.425781 742.859375 L 447.128906 640.054688 L 451.601562 639.417969 L 453.175781 742.863281 L 459.761719 742.863281 L 459.761719 614.222656 L 452.882812 614.222656 Z M 285.160156 657.296875 L 285.160156 743.789062 L 303.347656 743.789062 L 303.347656 657.296875 Z M 466.449219 657.296875 L 466.449219 743.789062 L 484.636719 743.789062 L 484.636719 657.296875 Z M 491.515625 724.636719 L 493.140625 743.792969 L 522.828125 743.792969 L 524.746094 726.894531 Z M 278.773438 725.914062 L 245.246094 727.828125 L 246.527344 743.496094 L 278.132812 743.792969 Z M 247.164062 747.769531 L 248.738281 786.425781 L 520.617188 786.082031 L 522.828125 747.769531 Z M 369.804688 216.132812 L 367.742188 226.199219 L 366.316406 559.417969 L 370.246094 559.023438 Z M 379.785156 216.132812 L 377.671875 226.199219 L 376.246094 559.417969 L 380.226562 559.023438 Z M 393.300781 216.132812 L 391.238281 226.199219 L 389.8125 559.417969 L 393.742188 559.023438 Z M 403.28125 216.132812 L 401.167969 226.199219 L 399.742188 559.417969 L 403.722656 559.023438 Z M 335.917969 206.496094 L 334.867188 207.910156 L 334.167969 256.003906 L 336.113281 255.945312 Z M 340.902344 206.496094 L 339.851562 207.910156 L 339.152344 256.003906 L 341.136719 255.945312 L 340.90625 206.496094 Z M 346.007812 206.496094 L 344.953125 207.910156 L 344.253906 256.003906 L 346.199219 255.945312 Z M 350.992188 206.496094 L 349.941406 207.910156 L 349.199219 256.003906 L 351.226562 255.945312 Z M 416.421875 208.410156 L 415.371094 209.753906 L 414.667969 255.367188 L 416.617188 255.308594 Z M 421.40625 208.410156 L 420.355469 209.753906 L 419.652344 255.367188 L 421.640625 255.308594 Z M 426.507812 208.410156 L 425.457031 209.753906 L 424.753906 255.367188 L 426.703125 255.308594 Z M 431.492188 208.410156 L 430.441406 209.753906 L 429.703125 255.367188 L 431.726562 255.308594 Z M 373.921875 156.652344 L 370.851562 162.414062 C 380.070312 160.109375 386.21875 160.496094 393.902344 162.414062 L 390.832031 157.039062 Z M 366.261719 165.476562 L 363.574219 170.074219 C 378.046875 167.773438 389.828125 168.15625 401.226562 170.074219 L 399.308594 165.859375 Z M 348.222656 173.914062 L 345.535156 180.832031 C 370.496094 178.53125 395.074219 178.53125 419.269531 180.832031 L 415.8125 174.300781 Z M 381 82.21875 L 379.945312 84.035156 L 374.902344 144.75 L 376.847656 144.675781 Z M 385.984375 82.21875 L 384.933594 84.035156 L 389.117188 144.207031 L 391.105469 144.132812 Z M 383.578125 91.984375 L 382.527344 93.402344 L 381.785156 141.496094 L 383.8125 141.4375 Z M 353.339844 749.15625 L 353.339844 784.617188 L 366.214844 784.617188 L 366.214844 749.15625 Z M 369.117188 749.15625 L 369.117188 784.617188 L 381.996094 784.617188 L 381.996094 749.15625 Z M 385.191406 749.15625 L 385.191406 784.617188 L 398.070312 784.617188 L 398.070312 749.15625 Z M 400.96875 749.15625 L 400.96875 784.617188 L 413.847656 784.617188 L 413.847656 749.15625 Z M 252.421875 751.464844 L 252.421875 758.878906 L 257.1875 758.878906 L 257.1875 751.464844 Z M 260.089844 751.464844 L 260.089844 758.878906 L 264.855469 758.878906 L 264.855469 751.464844 Z M 268.101562 751.464844 L 268.101562 758.878906 L 272.867188 758.878906 L 272.867188 751.464844 Z M 275.425781 751.464844 L 275.425781 758.878906 L 280.539062 758.878906 L 280.539062 751.464844 Z M 283.09375 751.464844 L 283.09375 758.878906 L 287.863281 758.878906 L 287.863281 751.464844 Z M 291.105469 751.464844 L 291.105469 758.878906 L 295.875 758.878906 L 295.875 751.464844 Z M 298.675781 751.464844 L 298.675781 758.878906 L 303.542969 758.878906 L 303.542969 751.464844 Z M 306.34375 751.464844 L 306.34375 758.878906 L 311.113281 758.878906 L 311.113281 751.464844 Z M 314.355469 751.464844 L 314.355469 758.878906 L 319.125 758.878906 L 319.125 751.464844 Z M 321.679688 751.464844 L 321.679688 758.878906 L 326.792969 758.878906 L 326.792969 751.464844 Z M 329.347656 751.464844 L 329.347656 758.878906 L 334.117188 758.878906 L 334.117188 751.464844 Z M 337.359375 751.464844 L 337.359375 758.878906 L 342.128906 758.878906 L 342.128906 751.464844 Z M 345.027344 751.464844 L 345.027344 758.878906 L 349.796875 758.878906 L 349.796875 751.464844 Z M 419.792969 751.808594 L 419.792969 759.222656 L 424.5625 759.222656 L 424.5625 751.808594 Z M 427.460938 751.808594 L 427.460938 759.222656 L 432.230469 759.222656 L 432.230469 751.808594 Z M 435.476562 751.808594 L 435.476562 759.222656 L 440.242188 759.222656 L 440.242188 751.808594 Z M 442.800781 751.808594 L 442.800781 759.222656 L 447.910156 759.222656 L 447.910156 751.808594 Z M 450.46875 751.808594 L 450.46875 759.222656 L 455.234375 759.222656 L 455.234375 751.808594 Z M 458.480469 751.808594 L 458.480469 759.222656 L 463.246094 759.222656 L 463.246094 751.808594 Z M 466.050781 751.808594 L 466.050781 759.222656 L 470.914062 759.222656 L 470.914062 751.808594 Z M 473.71875 751.808594 L 473.71875 759.222656 L 478.484375 759.222656 L 478.484375 751.808594 Z M 481.730469 751.808594 L 481.730469 759.222656 L 486.496094 759.222656 L 486.496094 751.808594 Z M 489.054688 751.808594 L 489.054688 759.222656 L 494.167969 759.222656 L 494.167969 751.808594 Z M 496.722656 751.808594 L 496.722656 759.222656 L 501.492188 759.222656 L 501.492188 751.808594 Z M 504.734375 751.808594 L 504.734375 759.222656 L 509.503906 759.222656 L 509.503906 751.808594 Z M 512.402344 751.808594 L 512.402344 759.222656 L 517.171875 759.222656 L 517.171875 751.808594 Z M 355.109375 751.953125 L 358.792969 751.953125 L 358.597656 763.25 L 354.960938 763.25 Z M 361.007812 751.953125 L 364.644531 751.953125 L 364.496094 763.25 L 360.808594 763.25 Z M 370.886719 751.953125 L 374.574219 751.953125 L 374.375 763.25 L 370.738281 763.25 Z M 376.785156 751.953125 L 380.421875 751.953125 L 380.273438 763.25 L 376.589844 763.25 Z M 386.960938 751.953125 L 390.648438 751.953125 L 390.449219 763.25 L 386.8125 763.25 Z M 392.859375 751.953125 L 396.496094 751.953125 L 396.347656 763.25 L 392.664062 763.25 Z M 402.738281 751.953125 L 406.425781 751.953125 L 406.230469 763.25 L 402.59375 763.25 Z M 408.636719 751.953125 L 412.277344 751.953125 L 412.128906 763.25 L 408.441406 763.25 Z M 252.417969 763.105469 L 252.417969 770.570312 L 257.1875 770.570312 L 257.1875 763.105469 Z M 260.085938 763.105469 L 260.085938 770.570312 L 264.855469 770.570312 L 264.855469 763.105469 Z M 268.097656 763.105469 L 268.097656 770.570312 L 272.867188 770.570312 L 272.867188 763.105469 Z M 275.421875 763.105469 L 275.421875 770.570312 L 280.535156 770.570312 L 280.535156 763.105469 Z M 283.09375 763.105469 L 283.09375 770.570312 L 287.859375 770.570312 L 287.859375 763.105469 Z M 291.105469 763.105469 L 291.105469 770.570312 L 295.871094 770.570312 L 295.871094 763.105469 Z M 298.675781 763.105469 L 298.675781 770.570312 L 303.539062 770.570312 L 303.539062 763.105469 Z M 306.34375 763.105469 L 306.34375 770.570312 L 311.109375 770.570312 L 311.109375 763.105469 Z M 314.355469 763.105469 L 314.355469 770.570312 L 319.121094 770.570312 L 319.121094 763.105469 Z M 321.679688 763.105469 L 321.679688 770.570312 L 326.789062 770.570312 L 326.789062 763.105469 Z M 329.347656 763.105469 L 329.347656 770.570312 L 334.113281 770.570312 L 334.113281 763.105469 Z M 337.359375 763.105469 L 337.359375 770.570312 L 342.128906 770.570312 L 342.128906 763.105469 Z M 345.027344 763.105469 L 345.027344 770.570312 L 349.796875 770.570312 L 349.796875 763.105469 Z M 419.792969 763.449219 L 419.792969 770.863281 L 424.5625 770.863281 L 424.5625 763.449219 Z M 427.460938 763.449219 L 427.460938 770.863281 L 432.230469 770.863281 L 432.230469 763.449219 Z M 435.472656 763.449219 L 435.472656 770.863281 L 440.242188 770.863281 L 440.242188 763.449219 Z M 442.796875 763.449219 L 442.796875 770.863281 L 447.910156 770.863281 L 447.910156 763.449219 Z M 450.464844 763.449219 L 450.464844 770.863281 L 455.234375 770.863281 L 455.234375 763.449219 Z M 458.476562 763.449219 L 458.476562 770.863281 L 463.246094 770.863281 L 463.246094 763.449219 Z M 466.046875 763.449219 L 466.046875 770.863281 L 470.914062 770.863281 L 470.914062 763.449219 Z M 473.714844 763.449219 L 473.714844 770.863281 L 478.484375 770.863281 L 478.484375 763.449219 Z M 481.726562 763.449219 L 481.726562 770.863281 L 486.496094 770.863281 L 486.496094 763.449219 Z M 489.050781 763.449219 L 489.050781 770.863281 L 494.164062 770.863281 L 494.164062 763.449219 Z M 496.722656 763.449219 L 496.722656 770.863281 L 501.488281 770.863281 L 501.488281 763.449219 Z M 504.734375 763.449219 L 504.734375 770.863281 L 509.5 770.863281 L 509.5 763.449219 Z M 512.402344 763.449219 L 512.402344 770.863281 L 517.167969 770.863281 L 517.167969 763.449219 Z M 355.105469 766.296875 L 358.792969 766.296875 L 358.792969 782.40625 L 355.105469 782.40625 Z M 361.003906 766.296875 L 364.640625 766.296875 L 364.640625 782.40625 L 361.003906 782.40625 Z M 370.886719 766.296875 L 374.570312 766.296875 L 374.570312 782.40625 L 370.886719 782.40625 Z M 376.785156 766.296875 L 380.421875 766.296875 L 380.421875 782.40625 L 376.785156 782.40625 Z M 386.960938 766.296875 L 390.644531 766.296875 L 390.644531 782.40625 L 386.960938 782.40625 Z M 392.859375 766.296875 L 396.496094 766.296875 L 396.496094 782.40625 L 392.859375 782.40625 Z M 402.738281 766.296875 L 406.425781 766.296875 L 406.425781 782.40625 L 402.738281 782.40625 Z M 408.636719 766.296875 L 412.273438 766.296875 L 412.273438 782.40625 L 408.636719 782.40625 Z M 252.417969 774.253906 L 252.417969 781.71875 L 257.1875 781.71875 L 257.1875 774.253906 Z M 260.085938 774.253906 L 260.085938 781.71875 L 264.855469 781.71875 L 264.855469 774.253906 Z M 268.097656 774.253906 L 268.097656 781.71875 L 272.867188 781.71875 L 272.867188 774.253906 Z M 275.421875 774.253906 L 275.421875 781.71875 L 280.535156 781.71875 L 280.535156 774.253906 Z M 283.089844 774.253906 L 283.089844 781.71875 L 287.859375 781.71875 L 287.859375 774.253906 Z M 291.101562 774.253906 L 291.101562 781.71875 L 295.871094 781.71875 L 295.871094 774.253906 Z M 298.671875 774.253906 L 298.671875 781.71875 L 303.539062 781.71875 L 303.539062 774.253906 Z M 306.339844 774.253906 L 306.339844 781.71875 L 311.109375 781.71875 L 311.109375 774.253906 Z M 314.351562 774.253906 L 314.351562 781.71875 L 319.121094 781.71875 L 319.121094 774.253906 Z M 321.675781 774.253906 L 321.675781 781.71875 L 326.789062 781.71875 L 326.789062 774.253906 Z M 329.34375 774.253906 L 329.34375 781.71875 L 334.113281 781.71875 L 334.113281 774.253906 Z M 337.359375 774.253906 L 337.359375 781.71875 L 342.125 781.71875 L 342.125 774.253906 Z M 345.027344 774.253906 L 345.027344 781.71875 L 349.792969 781.71875 L 349.792969 774.253906 Z M 419.792969 774.597656 L 419.792969 782.0625 L 424.558594 782.0625 L 424.558594 774.597656 Z M 427.460938 774.597656 L 427.460938 782.0625 L 432.226562 782.0625 L 432.226562 774.597656 Z M 435.472656 774.597656 L 435.472656 782.0625 L 440.238281 782.0625 L 440.238281 774.597656 Z M 442.796875 774.597656 L 442.796875 782.0625 L 447.910156 782.0625 L 447.910156 774.597656 Z M 450.464844 774.597656 L 450.464844 782.0625 L 455.234375 782.0625 L 455.234375 774.597656 Z M 458.476562 774.597656 L 458.476562 782.0625 L 463.246094 782.0625 L 463.246094 774.597656 Z M 466.046875 774.597656 L 466.046875 782.0625 L 470.914062 782.0625 L 470.914062 774.597656 Z M 473.714844 774.597656 L 473.714844 782.0625 L 478.484375 782.0625 L 478.484375 774.597656 Z M 481.726562 774.597656 L 481.726562 782.0625 L 486.496094 782.0625 L 486.496094 774.597656 Z M 489.050781 774.597656 L 489.050781 782.0625 L 494.164062 782.0625 L 494.164062 774.597656 Z M 496.71875 774.597656 L 496.71875 782.0625 L 501.488281 782.0625 L 501.488281 774.597656 Z M 504.730469 774.597656 L 504.730469 782.0625 L 509.5 782.0625 L 509.5 774.597656 Z M 512.398438 774.597656 L 512.398438 782.0625 L 517.167969 782.0625 L 517.167969 774.597656 Z M 512.398438 774.597656 " fill-opacity="1" fill-rule="nonzero"/></g></svg>