<svg xmlns="http://www.w3.org/2000/svg" xmlns:xlink="http://www.w3.org/1999/xlink" width="1080" zoomAndPan="magnify" viewBox="0 0 810 809.999993" height="1080" preserveAspectRatio="xMidYMid meet" version="1.0"><defs><clipPath id="00f777c086"><path d="M 143.058594 263 L 685.308594 263 L 685.308594 667.425781 L 143.058594 667.425781 Z M 143.058594 263 " clip-rule="nonzero"/></clipPath><clipPath id="8acffaebf2"><path d="M 358 142.425781 L 471 142.425781 L 471 255 L 358 255 Z M 358 142.425781 " clip-rule="nonzero"/></clipPath><clipPath id="a9b01a140a"><path d="M 203 142.425781 L 316 142.425781 L 316 255 L 203 255 Z M 203 142.425781 " clip-rule="nonzero"/></clipPath><clipPath id="5c9658fd61"><path d="M 513 142.425781 L 626 142.425781 L 626 255 L 513 255 Z M 513 142.425781 " clip-rule="nonzero"/></clipPath></defs><g clip-path="url(#00f777c086)"><path fill="#000000" d="M 681.003906 409.222656 L 642.273438 409.222656 L 642.273438 407.074219 C 642.273438 404.496094 641.625 402.023438 640.441406 399.871094 C 641.519531 399.121094 642.273438 397.832031 642.273438 396.324219 C 642.273438 381.167969 631.082031 368.59375 616.449219 366.550781 L 616.449219 361.929688 C 616.449219 359.5625 614.511719 357.628906 612.148438 357.628906 C 609.78125 357.628906 607.84375 359.5625 607.84375 361.929688 L 607.84375 366.550781 C 593.210938 368.59375 582.023438 381.167969 582.023438 396.324219 C 582.023438 397.832031 582.773438 399.121094 583.851562 399.871094 C 582.667969 402.023438 582.023438 404.496094 582.023438 407.074219 L 582.023438 409.222656 L 328.109375 409.222656 L 328.109375 404.925781 C 328.109375 402.988281 326.925781 401.378906 325.097656 400.839844 L 300.460938 393.207031 L 301.859375 374.828125 L 384.058594 374.828125 C 385.347656 374.828125 386.53125 374.289062 387.394531 373.324219 C 388.253906 372.355469 388.574219 371.066406 388.359375 369.882812 L 371.148438 266.691406 C 370.824219 264.648438 368.996094 263.144531 366.949219 263.144531 L 194.699219 263.144531 C 193.410156 263.144531 192.226562 263.683594 191.363281 264.648438 C 190.503906 265.617188 190.179688 266.90625 190.398438 268.089844 L 207.609375 371.28125 C 207.933594 373.324219 209.761719 374.828125 211.808594 374.828125 L 258.5 374.828125 L 251.292969 409.222656 L 147.359375 409.222656 C 144.992188 409.222656 143.058594 411.160156 143.058594 413.523438 L 143.058594 430.722656 C 143.058594 433.085938 144.992188 435.023438 147.359375 435.023438 L 160.273438 435.023438 L 160.273438 465.121094 C 160.273438 467.484375 162.207031 469.417969 164.574219 469.417969 L 168.878906 469.417969 L 168.878906 641.40625 L 164.574219 641.40625 C 162.207031 641.40625 160.273438 643.339844 160.273438 645.703125 L 160.273438 662.902344 C 160.273438 665.265625 162.207031 667.203125 164.574219 667.203125 L 663.789062 667.203125 C 666.15625 667.203125 668.09375 665.265625 668.09375 662.902344 L 668.09375 645.703125 C 668.09375 643.339844 666.15625 641.40625 663.789062 641.40625 L 659.484375 641.40625 L 659.484375 469.417969 L 663.789062 469.417969 C 666.15625 469.417969 668.09375 467.484375 668.09375 465.121094 L 668.09375 435.023438 L 681.003906 435.023438 C 683.371094 435.023438 685.308594 433.085938 685.308594 430.722656 L 685.308594 413.523438 C 685.308594 411.160156 683.371094 409.222656 681.003906 409.222656 Z M 612.148438 374.828125 C 622.582031 374.828125 631.191406 382.246094 633.234375 392.027344 L 591.058594 392.027344 C 593.101562 382.246094 601.710938 374.828125 612.148438 374.828125 Z M 590.628906 407.074219 C 590.628906 403.527344 593.535156 400.625 597.085938 400.625 L 627.210938 400.625 C 630.757812 400.625 633.664062 403.527344 633.664062 407.074219 L 633.664062 409.222656 L 590.628906 409.222656 Z M 265.816406 340.429688 L 262.910156 340.429688 L 255.703125 297.433594 L 315.847656 297.433594 L 323.054688 340.429688 L 304.332031 340.429688 L 306.59375 310.65625 C 306.699219 309.472656 306.269531 308.289062 305.410156 307.429688 C 304.550781 306.570312 303.472656 306.035156 302.289062 306.035156 L 276.46875 306.035156 C 274.425781 306.035156 272.703125 307.429688 272.273438 309.472656 Z M 215.574219 366.226562 L 199.757812 271.636719 L 363.183594 271.636719 L 379 366.226562 L 302.398438 366.226562 L 303.6875 349.03125 L 328.109375 349.03125 C 329.402344 349.03125 330.585938 348.492188 331.445312 347.523438 C 332.308594 346.558594 332.628906 345.269531 332.414062 344.085938 L 323.808594 292.488281 C 323.484375 290.449219 321.65625 288.941406 319.613281 288.941406 L 250.753906 288.941406 C 249.464844 288.941406 248.28125 289.480469 247.417969 290.449219 C 246.558594 291.414062 246.234375 292.703125 246.449219 293.886719 L 255.058594 345.484375 C 255.378906 347.523438 257.210938 349.03125 259.253906 349.03125 L 263.988281 349.03125 L 260.4375 366.226562 Z M 280.019531 314.632812 L 297.664062 314.632812 L 291.53125 396.003906 C 291.421875 398.046875 292.605469 399.871094 294.542969 400.410156 L 319.503906 408.148438 L 319.503906 409.222656 L 260.222656 409.222656 Z M 659.484375 658.601562 L 168.878906 658.601562 L 168.878906 650.003906 L 659.484375 650.003906 Z M 650.878906 641.40625 L 177.484375 641.40625 L 177.484375 469.417969 L 650.878906 469.417969 Z M 659.484375 460.820312 L 168.878906 460.820312 L 168.878906 435.023438 L 659.484375 435.023438 Z M 676.699219 426.421875 L 151.664062 426.421875 L 151.664062 417.824219 L 676.699219 417.824219 Z M 676.699219 426.421875 " fill-opacity="1" fill-rule="nonzero"/></g><path fill="#000000" d="M 272.164062 564.011719 L 556.199219 564.011719 C 558.566406 564.011719 560.503906 562.078125 560.503906 559.710938 L 560.503906 490.917969 C 560.503906 488.550781 558.566406 486.617188 556.199219 486.617188 L 272.164062 486.617188 C 269.796875 486.617188 267.859375 488.550781 267.859375 490.917969 L 267.859375 559.710938 C 267.859375 562.078125 269.796875 564.011719 272.164062 564.011719 Z M 276.46875 495.21875 L 551.898438 495.21875 L 551.898438 555.410156 L 276.46875 555.410156 Z M 276.46875 495.21875 " fill-opacity="1" fill-rule="nonzero"/><path fill="#000000" d="M 299.601562 529.507812 C 305.949219 528.648438 310.898438 523.273438 310.898438 516.714844 C 310.898438 509.621094 305.085938 503.816406 297.984375 503.816406 L 289.378906 503.816406 C 287.011719 503.816406 285.074219 505.75 285.074219 508.117188 C 285.074219 508.117188 285.074219 525.316406 285.074219 525.316406 L 285.074219 542.511719 C 285.074219 544.878906 287.011719 546.8125 289.378906 546.8125 C 291.746094 546.8125 293.683594 544.878906 293.683594 542.511719 L 293.683594 535.742188 L 303.582031 545.628906 C 304.441406 546.492188 305.515625 546.921875 306.59375 546.921875 C 307.667969 546.921875 308.746094 546.492188 309.605469 545.628906 C 311.328125 543.910156 311.328125 541.222656 309.605469 539.503906 Z M 293.683594 512.414062 L 297.984375 512.414062 C 300.351562 512.414062 302.289062 514.351562 302.289062 516.714844 C 302.289062 519.082031 300.351562 521.015625 297.984375 521.015625 L 293.683594 521.015625 Z M 293.683594 512.414062 " fill-opacity="1" fill-rule="nonzero"/><path fill="#000000" d="M 418.484375 503.816406 L 409.878906 503.816406 C 407.511719 503.816406 405.574219 505.75 405.574219 508.117188 L 405.574219 542.511719 C 405.574219 544.878906 407.511719 546.8125 409.878906 546.8125 C 412.246094 546.8125 414.183594 544.878906 414.183594 542.511719 L 414.183594 529.613281 L 418.484375 529.613281 C 425.585938 529.613281 431.398438 523.808594 431.398438 516.714844 C 431.398438 509.621094 425.585938 503.816406 418.484375 503.816406 Z M 418.484375 521.015625 L 414.183594 521.015625 L 414.183594 512.414062 L 418.484375 512.414062 C 420.851562 512.414062 422.789062 514.351562 422.789062 516.714844 C 422.789062 519.082031 420.851562 521.015625 418.484375 521.015625 Z M 418.484375 521.015625 " fill-opacity="1" fill-rule="nonzero"/><path fill="#000000" d="M 336.71875 512.414062 C 339.085938 512.414062 341.023438 510.480469 341.023438 508.117188 C 341.023438 505.75 339.085938 503.816406 336.71875 503.816406 L 319.503906 503.816406 C 317.136719 503.816406 315.199219 505.75 315.199219 508.117188 L 315.199219 542.511719 C 315.199219 544.878906 317.136719 546.8125 319.503906 546.8125 L 336.71875 546.8125 C 339.085938 546.8125 341.023438 544.878906 341.023438 542.511719 C 341.023438 540.148438 339.085938 538.214844 336.71875 538.214844 L 323.808594 538.214844 L 323.808594 529.613281 L 336.71875 529.613281 C 339.085938 529.613281 341.023438 527.679688 341.023438 525.316406 C 341.023438 522.949219 339.085938 521.015625 336.71875 521.015625 L 323.808594 521.015625 L 323.808594 512.414062 Z M 336.71875 512.414062 " fill-opacity="1" fill-rule="nonzero"/><path fill="#000000" d="M 360.386719 512.414062 L 366.84375 512.414062 C 369.210938 512.414062 371.148438 510.480469 371.148438 508.117188 C 371.148438 505.75 369.210938 503.816406 366.84375 503.816406 L 360.386719 503.816406 C 352.101562 503.816406 345.324219 510.589844 345.324219 518.863281 L 345.324219 531.765625 C 345.324219 540.039062 352.101562 546.8125 360.386719 546.8125 L 366.84375 546.8125 C 369.210938 546.8125 371.148438 544.878906 371.148438 542.511719 C 371.148438 540.148438 369.210938 538.214844 366.84375 538.214844 L 360.386719 538.214844 C 356.835938 538.214844 353.933594 535.3125 353.933594 531.765625 L 353.933594 518.863281 C 353.933594 515.316406 356.835938 512.414062 360.386719 512.414062 Z M 360.386719 512.414062 " fill-opacity="1" fill-rule="nonzero"/><path fill="#000000" d="M 396.96875 512.414062 C 399.335938 512.414062 401.273438 510.480469 401.273438 508.117188 C 401.273438 505.75 399.335938 503.816406 396.96875 503.816406 L 379.753906 503.816406 C 377.386719 503.816406 375.449219 505.75 375.449219 508.117188 L 375.449219 542.511719 C 375.449219 544.878906 377.386719 546.8125 379.753906 546.8125 L 396.96875 546.8125 C 399.335938 546.8125 401.273438 544.878906 401.273438 542.511719 C 401.273438 540.148438 399.335938 538.214844 396.96875 538.214844 L 384.058594 538.214844 L 384.058594 529.613281 L 396.96875 529.613281 C 399.335938 529.613281 401.273438 527.679688 401.273438 525.316406 C 401.273438 522.949219 399.335938 521.015625 396.96875 521.015625 L 384.058594 521.015625 L 384.058594 512.414062 Z M 396.96875 512.414062 " fill-opacity="1" fill-rule="nonzero"/><path fill="#000000" d="M 500.253906 503.816406 C 493.152344 503.816406 487.34375 509.621094 487.34375 516.714844 L 487.34375 533.914062 C 487.34375 541.007812 493.152344 546.8125 500.253906 546.8125 C 507.355469 546.8125 513.164062 541.007812 513.164062 533.914062 L 513.164062 516.714844 C 513.164062 509.621094 507.355469 503.816406 500.253906 503.816406 Z M 504.558594 533.914062 C 504.558594 536.277344 502.621094 538.214844 500.253906 538.214844 C 497.886719 538.214844 495.949219 536.277344 495.949219 533.914062 L 495.949219 516.714844 C 495.949219 514.351562 497.886719 512.414062 500.253906 512.414062 C 502.621094 512.414062 504.558594 514.351562 504.558594 516.714844 Z M 504.558594 533.914062 " fill-opacity="1" fill-rule="nonzero"/><path fill="#000000" d="M 457.21875 503.816406 L 440.003906 503.816406 C 437.636719 503.816406 435.699219 505.75 435.699219 508.117188 C 435.699219 510.480469 437.636719 512.414062 440.003906 512.414062 L 444.308594 512.414062 L 444.308594 542.511719 C 444.308594 544.878906 446.242188 546.8125 448.609375 546.8125 C 450.976562 546.8125 452.914062 544.878906 452.914062 542.511719 L 452.914062 512.414062 L 457.21875 512.414062 C 459.585938 512.414062 461.523438 510.480469 461.523438 508.117188 C 461.523438 505.75 459.585938 503.816406 457.21875 503.816406 Z M 457.21875 503.816406 " fill-opacity="1" fill-rule="nonzero"/><path fill="#000000" d="M 483.039062 508.117188 C 483.039062 505.75 481.101562 503.816406 478.734375 503.816406 L 470.128906 503.816406 C 467.761719 503.816406 465.824219 505.75 465.824219 508.117188 C 465.824219 510.480469 467.761719 512.414062 470.128906 512.414062 L 470.128906 538.214844 C 467.761719 538.214844 465.824219 540.148438 465.824219 542.511719 C 465.824219 544.878906 467.761719 546.8125 470.128906 546.8125 L 478.734375 546.8125 C 481.101562 546.8125 483.039062 544.878906 483.039062 542.511719 C 483.039062 540.148438 481.101562 538.214844 478.734375 538.214844 L 478.734375 512.414062 C 481.101562 512.414062 483.039062 510.480469 483.039062 508.117188 Z M 483.039062 508.117188 " fill-opacity="1" fill-rule="nonzero"/><path fill="#000000" d="M 539.308594 504.140625 C 536.941406 504.140625 535.003906 506.074219 535.003906 508.4375 L 535.003906 524.5625 L 525.644531 506.179688 C 524.785156 504.460938 522.738281 503.492188 520.804688 503.925781 C 518.867188 504.355469 517.46875 506.074219 517.46875 508.117188 L 517.46875 542.511719 C 517.46875 544.878906 519.40625 546.8125 521.773438 546.8125 C 524.136719 546.8125 526.074219 544.878906 526.074219 542.511719 L 526.074219 526.066406 L 535.433594 544.449219 C 536.1875 545.953125 537.695312 546.8125 539.308594 546.8125 C 539.632812 546.8125 539.953125 546.8125 540.277344 546.707031 C 542.214844 546.273438 543.613281 544.554688 543.613281 542.511719 L 543.613281 508.332031 C 543.613281 505.964844 541.675781 504.140625 539.308594 504.140625 Z M 539.308594 504.140625 " fill-opacity="1" fill-rule="nonzero"/><g clip-path="url(#8acffaebf2)"><path fill="#000000" d="M 414.183594 254.4375 C 445.058594 254.4375 470.128906 229.390625 470.128906 198.542969 C 470.128906 167.691406 445.058594 142.648438 414.183594 142.648438 C 383.304688 142.648438 358.234375 167.691406 358.234375 198.542969 C 358.234375 229.390625 383.304688 254.4375 414.183594 254.4375 Z M 414.183594 151.246094 C 440.328125 151.246094 461.523438 172.421875 461.523438 198.542969 C 461.523438 224.664062 440.328125 245.839844 414.183594 245.839844 C 388.039062 245.839844 366.84375 224.664062 366.84375 198.542969 C 366.84375 172.421875 388.039062 151.246094 414.183594 151.246094 Z M 414.183594 151.246094 " fill-opacity="1" fill-rule="nonzero"/></g><g clip-path="url(#a9b01a140a)"><path fill="#000000" d="M 259.253906 254.4375 C 290.132812 254.4375 315.199219 229.390625 315.199219 198.542969 C 315.199219 167.691406 290.132812 142.648438 259.253906 142.648438 C 228.375 142.648438 203.308594 167.691406 203.308594 198.542969 C 203.308594 229.390625 228.375 254.4375 259.253906 254.4375 Z M 259.253906 151.246094 C 285.398438 151.246094 306.59375 172.421875 306.59375 198.542969 C 306.59375 224.664062 285.398438 245.839844 259.253906 245.839844 C 233.109375 245.839844 211.914062 224.664062 211.914062 198.542969 C 211.914062 172.421875 233.109375 151.246094 259.253906 151.246094 Z M 259.253906 151.246094 " fill-opacity="1" fill-rule="nonzero"/></g><g clip-path="url(#5c9658fd61)"><path fill="#000000" d="M 569.109375 254.4375 C 599.988281 254.4375 625.058594 229.390625 625.058594 198.542969 C 625.058594 167.691406 599.988281 142.648438 569.109375 142.648438 C 538.234375 142.648438 513.164062 167.691406 513.164062 198.542969 C 513.164062 229.390625 538.234375 254.4375 569.109375 254.4375 Z M 569.109375 151.246094 C 595.253906 151.246094 616.449219 172.421875 616.449219 198.542969 C 616.449219 224.664062 595.253906 245.839844 569.109375 245.839844 C 542.964844 245.839844 521.773438 224.664062 521.773438 198.542969 C 521.773438 172.421875 542.964844 151.246094 569.109375 151.246094 Z M 569.109375 151.246094 " fill-opacity="1" fill-rule="nonzero"/></g><path fill="#000000" d="M 257.855469 202.628906 L 278.726562 209.613281 C 279.15625 209.722656 279.589844 209.828125 280.125 209.828125 C 281.957031 209.828125 283.570312 208.648438 284.214844 206.925781 C 284.96875 204.667969 283.785156 202.199219 281.523438 201.445312 L 264.527344 195.746094 L 272.164062 165.21875 C 272.703125 162.964844 271.304688 160.597656 269.042969 159.953125 C 266.785156 159.417969 264.417969 160.8125 263.773438 163.070312 L 255.164062 197.46875 C 254.519531 199.726562 255.8125 201.875 257.855469 202.628906 Z M 257.855469 202.628906 " fill-opacity="1" fill-rule="nonzero"/><path fill="#000000" d="M 428.492188 218.964844 C 429.351562 219.824219 430.429688 220.253906 431.503906 220.253906 C 432.582031 220.253906 433.65625 219.824219 434.515625 218.964844 C 436.238281 217.246094 436.238281 214.558594 434.515625 212.839844 L 417.195312 195.53125 C 416.335938 194.671875 415.257812 194.242188 414.183594 194.242188 L 379.753906 194.242188 C 377.386719 194.242188 375.449219 196.179688 375.449219 198.542969 C 375.449219 200.90625 377.386719 202.84375 379.753906 202.84375 L 412.351562 202.84375 Z M 428.492188 218.964844 " fill-opacity="1" fill-rule="nonzero"/><path fill="#000000" d="M 565.558594 201.015625 C 566.3125 201.984375 567.390625 202.734375 568.679688 202.84375 C 568.789062 202.84375 569.003906 202.84375 569.109375 202.84375 C 570.1875 202.84375 571.261719 202.414062 572.125 201.660156 L 597.40625 177.472656 C 599.128906 175.863281 599.234375 173.066406 597.515625 171.347656 C 595.902344 169.628906 593.101562 169.628906 591.382812 171.238281 L 569.648438 191.984375 L 560.179688 178.65625 C 558.78125 176.722656 556.09375 176.292969 554.15625 177.691406 C 552.21875 179.085938 551.789062 181.773438 553.1875 183.710938 Z M 565.558594 201.015625 " fill-opacity="1" fill-rule="nonzero"/></svg>