<svg xmlns="http://www.w3.org/2000/svg" xmlns:xlink="http://www.w3.org/1999/xlink" width="1080" zoomAndPan="magnify" viewBox="0 0 810 809.999993" height="1080" preserveAspectRatio="xMidYMid meet" version="1.0"><defs><clipPath id="3b4e49e3a8"><path d="M 81 81 L 673 81 L 673 668.25 L 81 668.25 Z M 81 81 " clip-rule="nonzero"/></clipPath><clipPath id="f53bad7839"><path d="M 264.90625 311.945312 L 507.90625 311.945312 L 507.90625 565.40625 L 264.90625 565.40625 Z M 264.90625 311.945312 " clip-rule="nonzero"/></clipPath><clipPath id="0a5bc355fd"><path d="M 293.75 311.945312 L 461 311.945312 L 461 640.445312 L 293.75 640.445312 Z M 293.75 311.945312 " clip-rule="nonzero"/></clipPath><clipPath id="aa0b8d6a8d"><path d="M 293.75 311.945312 L 392 311.945312 L 392 640.445312 L 293.75 640.445312 Z M 293.75 311.945312 " clip-rule="nonzero"/></clipPath></defs><g clip-path="url(#3b4e49e3a8)"><path fill="#000000" d="M 522.730469 81 L 231.753906 81 C 149.074219 81 81.8125 148.28125 81.8125 230.976562 L 81.8125 518.304688 C 81.8125 601 149.074219 668.28125 231.753906 668.28125 L 522.730469 668.28125 C 605.410156 668.28125 672.671875 601 672.671875 518.304688 L 672.671875 230.976562 C 672.671875 148.28125 605.410156 81 522.730469 81 Z M 654.457031 230.976562 L 654.457031 251.515625 C 612.957031 251.511719 571.453125 251.507812 529.9375 251.503906 C 512.949219 223.292969 495.054688 194.898438 477.710938 167.394531 C 463.65625 145.105469 449.195312 122.164062 435.152344 99.222656 L 522.730469 99.222656 C 595.363281 99.222656 654.457031 158.328125 654.457031 230.976562 Z M 342.707031 251.5 L 331.566406 233.671875 C 304.140625 189.785156 275.855469 144.503906 248.414062 99.222656 L 413.816406 99.222656 C 429.71875 125.4375 446.273438 151.695312 462.300781 177.113281 C 477.664062 201.476562 493.460938 226.542969 508.644531 251.503906 C 453.359375 251.5 398.042969 251.5 342.707031 251.5 Z M 227.164062 99.3125 C 256.433594 147.816406 286.773438 196.371094 316.117188 243.328125 L 321.226562 251.5 C 247.554688 251.503906 173.839844 251.507812 100.03125 251.519531 L 100.03125 230.976562 C 100.03125 159.863281 156.648438 101.738281 227.164062 99.3125 Z M 522.730469 650.058594 L 231.753906 650.058594 C 159.121094 650.058594 100.03125 590.953125 100.03125 518.304688 L 100.03125 269.742188 C 285.222656 269.714844 469.890625 269.714844 654.457031 269.738281 L 654.457031 518.304688 C 654.457031 590.953125 595.363281 650.058594 522.730469 650.058594 Z M 323.664062 559.941406 C 318.832031 559.941406 314 558.671875 309.59375 556.132812 C 300.347656 550.796875 294.828125 541.097656 294.828125 530.175781 L 294.828125 373.171875 C 294.828125 362.269531 300.335938 352.574219 309.5625 347.238281 C 318.371094 342.136719 328.902344 342.128906 337.730469 347.210938 L 473.730469 425.484375 C 482.972656 430.804688 488.5 440.496094 488.511719 451.410156 C 488.527344 462.324219 483.023438 472.03125 473.792969 477.371094 L 337.792969 556.101562 C 333.371094 558.664062 328.515625 559.941406 323.664062 559.941406 Z M 323.664062 361.636719 C 321.964844 361.636719 320.265625 362.09375 318.683594 363.011719 C 315.152344 365.050781 313.042969 368.851562 313.042969 373.171875 L 313.042969 530.175781 C 313.042969 534.503906 315.15625 538.304688 318.695312 540.34375 C 321.859375 542.171875 325.496094 542.167969 328.664062 540.332031 L 464.667969 461.601562 C 468.195312 459.558594 470.300781 455.757812 470.292969 451.429688 C 470.289062 447.105469 468.175781 443.3125 464.648438 441.28125 L 328.644531 363.003906 C 327.058594 362.09375 325.363281 361.636719 323.664062 361.636719 Z M 323.664062 361.636719 " fill-opacity="1" fill-rule="nonzero"/></g><g clip-path="url(#f53bad7839)"><path fill="#ffffff" d="M 264.90625 311.945312 L 507.90625 311.945312 L 507.90625 565.386719 L 264.90625 565.386719 Z M 264.90625 311.945312 " fill-opacity="1" fill-rule="nonzero"/></g><g clip-path="url(#0a5bc355fd)"><path fill="#000000" d="M 376.5625 311.945312 L 460.765625 311.945312 L 393.984375 425.097656 L 443.34375 425.097656 L 293.8125 640.070312 L 360.59375 473.339844 L 306.882812 475.992188 Z M 376.5625 311.945312 " fill-opacity="1" fill-rule="nonzero"/></g><g clip-path="url(#aa0b8d6a8d)"><path fill="#ffffff" d="M 376.5625 311.945312 L 391.078125 311.945312 L 306.882812 475.992188 Z M 293.8125 640.070312 L 370.757812 473.339844 L 360.59375 473.339844 Z M 293.8125 640.070312 " fill-opacity="1" fill-rule="nonzero"/></g></svg>