<svg xmlns="http://www.w3.org/2000/svg" xmlns:xlink="http://www.w3.org/1999/xlink" width="1080" zoomAndPan="magnify" viewBox="0 0 810 809.999993" height="1080" preserveAspectRatio="xMidYMid meet" version="1.0"><defs><clipPath id="0833901f06"><path d="M 109.355469 133.414062 L 715.355469 133.414062 L 715.355469 701 L 109.355469 701 Z M 109.355469 133.414062 " clip-rule="nonzero"/></clipPath></defs><path fill="#000000" d="M 588.292969 603.101562 C 572.125 603.101562 558.96875 616.265625 558.96875 632.441406 C 558.96875 648.613281 572.125 661.777344 588.292969 661.777344 C 604.457031 661.777344 617.613281 648.613281 617.613281 632.441406 C 617.613281 616.265625 604.457031 603.101562 588.292969 603.101562 Z M 588.292969 642.21875 C 582.90625 642.21875 578.515625 637.839844 578.515625 632.441406 C 578.515625 627.042969 582.90625 622.660156 588.292969 622.660156 C 593.675781 622.660156 598.066406 627.042969 598.066406 632.441406 C 598.066406 637.839844 593.675781 642.21875 588.292969 642.21875 Z M 588.292969 642.21875 " fill-opacity="1" fill-rule="nonzero"/><path fill="#000000" d="M 216.871094 603.101562 C 200.707031 603.101562 187.550781 616.265625 187.550781 632.441406 C 187.550781 648.613281 200.707031 661.777344 216.871094 661.777344 C 233.039062 661.777344 246.195312 648.613281 246.195312 632.441406 C 246.195312 616.265625 233.039062 603.101562 216.871094 603.101562 Z M 216.871094 642.21875 C 211.488281 642.21875 207.097656 637.839844 207.097656 632.441406 C 207.097656 627.042969 211.488281 622.660156 216.871094 622.660156 C 222.257812 622.660156 226.644531 627.042969 226.644531 632.441406 C 226.644531 637.839844 222.257812 642.21875 216.871094 642.21875 Z M 216.871094 642.21875 " fill-opacity="1" fill-rule="nonzero"/><g clip-path="url(#0833901f06)"><path fill="#000000" d="M 691.117188 192.363281 C 685.632812 192.363281 680.257812 194.238281 675.964844 197.671875 L 633.730469 231.480469 L 519.871094 231.480469 L 519.871094 192.363281 L 539.421875 192.363281 C 550.203125 192.363281 558.96875 183.589844 558.96875 172.800781 L 558.96875 153.242188 C 558.96875 142.457031 550.203125 133.683594 539.421875 133.683594 L 383.035156 133.683594 C 372.253906 133.683594 363.484375 142.457031 363.484375 153.242188 L 363.484375 172.800781 C 363.484375 183.589844 372.253906 192.363281 383.035156 192.363281 L 402.582031 192.363281 L 402.582031 231.480469 L 168 231.480469 C 135.65625 231.480469 109.355469 257.796875 109.355469 290.15625 L 109.355469 622.660156 C 109.355469 633.445312 118.125 642.21875 128.902344 642.21875 L 149.234375 642.21875 C 154.003906 675.332031 182.476562 700.894531 216.871094 700.894531 C 251.265625 700.894531 279.738281 675.332031 284.507812 642.21875 L 520.652344 642.21875 C 525.421875 675.332031 553.894531 700.894531 588.292969 700.894531 C 622.6875 700.894531 651.160156 675.332031 655.929688 642.21875 L 676.257812 642.21875 C 687.039062 642.21875 695.808594 633.445312 695.808594 622.660156 L 695.808594 281.972656 L 714.105469 227.03125 C 714.9375 224.546875 715.355469 221.964844 715.355469 219.351562 L 715.355469 216.613281 C 715.355469 203.234375 704.476562 192.363281 691.117188 192.363281 Z M 676.257812 563.984375 L 637.164062 563.984375 L 637.164062 253.777344 L 676.257812 285.070312 Z M 383.035156 153.242188 L 539.421875 153.242188 L 539.429688 172.800781 L 383.035156 172.800781 Z M 422.128906 192.363281 L 500.324219 192.363281 L 500.324219 231.480469 L 422.128906 231.480469 Z M 617.613281 251.039062 L 617.613281 563.984375 L 207.097656 563.984375 L 207.097656 251.039062 Z M 264.65625 583.542969 L 428.113281 583.542969 L 415.082031 622.660156 L 284.507812 622.660156 C 282.320312 607.441406 275.164062 593.820312 264.65625 583.542969 Z M 448.726562 583.542969 L 540.503906 583.542969 C 530.007812 593.820312 522.851562 607.441406 520.652344 622.660156 L 435.695312 622.660156 Z M 168 251.039062 L 187.550781 251.039062 L 187.550781 563.984375 L 128.902344 563.984375 L 128.902344 290.15625 C 128.902344 268.582031 146.4375 251.039062 168 251.039062 Z M 128.902344 583.542969 L 169.085938 583.542969 C 158.589844 593.820312 151.433594 607.441406 149.234375 622.660156 L 128.902344 622.660156 Z M 216.871094 681.335938 C 189.925781 681.335938 168 659.402344 168 632.441406 C 168 605.476562 189.925781 583.542969 216.871094 583.542969 C 243.820312 583.542969 265.742188 605.476562 265.742188 632.441406 C 265.742188 659.402344 243.820312 681.335938 216.871094 681.335938 Z M 588.292969 681.335938 C 561.34375 681.335938 539.421875 659.402344 539.421875 632.441406 C 539.421875 605.476562 561.34375 583.542969 588.292969 583.542969 C 615.238281 583.542969 637.164062 605.476562 637.164062 632.441406 C 637.164062 659.402344 615.238281 681.335938 588.292969 681.335938 Z M 655.929688 622.660156 C 653.738281 607.441406 646.585938 593.820312 636.078125 583.542969 L 676.257812 583.542969 L 676.257812 622.660156 Z M 695.808594 219.351562 C 695.808594 219.851562 695.730469 220.351562 695.5625 220.828125 L 681.195312 263.976562 L 652.8125 241.257812 L 688.175781 212.949219 C 691.019531 210.640625 695.808594 212.96875 695.808594 216.613281 Z M 695.808594 219.351562 " fill-opacity="1" fill-rule="nonzero"/></g><path fill="#000000" d="M 304.839844 593.320312 L 402.582031 593.320312 L 402.582031 612.878906 L 304.839844 612.878906 Z M 304.839844 593.320312 " fill-opacity="1" fill-rule="nonzero"/><path fill="#000000" d="M 246.195312 485.746094 L 324.386719 485.746094 C 335.167969 485.746094 343.9375 476.976562 343.9375 466.1875 L 343.9375 290.15625 C 343.9375 279.371094 335.167969 270.597656 324.386719 270.597656 L 246.195312 270.597656 C 235.414062 270.597656 226.644531 279.371094 226.644531 290.15625 L 226.644531 466.1875 C 226.644531 476.976562 235.414062 485.746094 246.195312 485.746094 Z M 246.195312 466.1875 L 246.195312 427.070312 L 324.398438 427.070312 L 324.398438 466.1875 Z M 324.398438 368.394531 L 324.398438 407.511719 L 295.066406 407.511719 L 295.066406 368.394531 Z M 275.515625 407.511719 L 246.195312 407.511719 L 246.195312 368.394531 L 275.515625 368.394531 Z M 324.386719 290.15625 L 324.386719 348.832031 L 246.195312 348.832031 L 246.195312 290.15625 Z M 324.386719 290.15625 " fill-opacity="1" fill-rule="nonzero"/><path fill="#000000" d="M 295.066406 319.496094 C 295.066406 320.136719 295.003906 320.773438 294.878906 321.402344 C 294.753906 322.03125 294.566406 322.644531 294.320312 323.238281 C 294.074219 323.832031 293.773438 324.394531 293.417969 324.929688 C 293.0625 325.460938 292.65625 325.957031 292.203125 326.410156 C 291.75 326.863281 291.253906 327.269531 290.722656 327.625 C 290.1875 327.984375 289.625 328.285156 289.03125 328.53125 C 288.4375 328.777344 287.828125 328.960938 287.199219 329.085938 C 286.570312 329.210938 285.933594 329.273438 285.292969 329.273438 C 284.648438 329.273438 284.015625 329.210938 283.382812 329.085938 C 282.753906 328.960938 282.144531 328.777344 281.550781 328.53125 C 280.957031 328.285156 280.394531 327.984375 279.859375 327.625 C 279.328125 327.269531 278.832031 326.863281 278.378906 326.410156 C 277.925781 325.957031 277.519531 325.460938 277.164062 324.929688 C 276.808594 324.394531 276.507812 323.832031 276.261719 323.238281 C 276.015625 322.644531 275.832031 322.03125 275.703125 321.402344 C 275.578125 320.773438 275.515625 320.136719 275.515625 319.496094 C 275.515625 318.851562 275.578125 318.21875 275.703125 317.585938 C 275.832031 316.957031 276.015625 316.347656 276.261719 315.753906 C 276.507812 315.160156 276.808594 314.597656 277.164062 314.0625 C 277.519531 313.527344 277.925781 313.035156 278.378906 312.578125 C 278.832031 312.125 279.328125 311.71875 279.859375 311.363281 C 280.394531 311.007812 280.957031 310.707031 281.550781 310.460938 C 282.144531 310.214844 282.753906 310.027344 283.382812 309.902344 C 284.015625 309.777344 284.648438 309.714844 285.292969 309.714844 C 285.933594 309.714844 286.570312 309.777344 287.199219 309.902344 C 287.828125 310.027344 288.4375 310.214844 289.03125 310.460938 C 289.625 310.707031 290.1875 311.007812 290.722656 311.363281 C 291.253906 311.71875 291.75 312.125 292.203125 312.578125 C 292.65625 313.035156 293.0625 313.527344 293.417969 314.0625 C 293.773438 314.597656 294.074219 315.160156 294.320312 315.753906 C 294.566406 316.347656 294.753906 316.957031 294.878906 317.585938 C 295.003906 318.21875 295.066406 318.851562 295.066406 319.496094 Z M 295.066406 319.496094 " fill-opacity="1" fill-rule="nonzero"/><path fill="#000000" d="M 471 348.832031 C 433.273438 348.832031 402.582031 379.550781 402.582031 417.289062 C 402.582031 455.03125 433.273438 485.746094 471 485.746094 C 508.730469 485.746094 539.421875 455.03125 539.421875 417.289062 C 539.421875 379.550781 508.730469 348.832031 471 348.832031 Z M 422.128906 417.289062 C 422.128906 401.378906 429.882812 387.355469 441.679688 378.425781 L 441.679688 456.164062 C 429.882812 447.226562 422.128906 433.203125 422.128906 417.289062 Z M 461.226562 465.199219 L 461.226562 369.378906 C 464.382812 368.734375 467.660156 368.394531 471 368.394531 C 474.34375 368.394531 477.617188 368.734375 480.773438 369.378906 L 480.773438 465.199219 C 477.617188 465.84375 474.34375 466.1875 471 466.1875 C 467.660156 466.1875 464.382812 465.84375 461.226562 465.199219 Z M 500.324219 456.152344 L 500.324219 378.417969 C 512.121094 387.355469 519.871094 401.378906 519.871094 417.28125 C 519.871094 433.183594 512.121094 447.226562 500.324219 456.152344 Z M 500.324219 456.152344 " fill-opacity="1" fill-rule="nonzero"/><path fill="#000000" d="M 383.035156 524.863281 L 578.515625 524.863281 C 589.296875 524.863281 598.066406 516.09375 598.066406 505.304688 L 598.066406 329.273438 C 598.066406 318.488281 589.296875 309.714844 578.515625 309.714844 L 383.035156 309.714844 C 372.253906 309.714844 363.484375 318.488281 363.484375 329.273438 L 363.484375 505.304688 C 363.484375 516.09375 372.253906 524.863281 383.035156 524.863281 Z M 383.035156 329.273438 L 578.515625 329.273438 L 578.527344 505.304688 L 383.035156 505.304688 Z M 383.035156 329.273438 " fill-opacity="1" fill-rule="nonzero"/><path fill="#000000" d="M 402.582031 270.597656 L 422.128906 270.597656 L 422.128906 290.15625 L 402.582031 290.15625 Z M 402.582031 270.597656 " fill-opacity="1" fill-rule="nonzero"/><path fill="#000000" d="M 441.679688 270.597656 L 461.226562 270.597656 L 461.226562 290.15625 L 441.679688 290.15625 Z M 441.679688 270.597656 " fill-opacity="1" fill-rule="nonzero"/><path fill="#000000" d="M 480.773438 270.597656 L 500.324219 270.597656 L 500.324219 290.15625 L 480.773438 290.15625 Z M 480.773438 270.597656 " fill-opacity="1" fill-rule="nonzero"/></svg>