<svg version="1.2" xmlns="http://www.w3.org/2000/svg" viewBox="0 0 349 628" width="349" height="628">
	<title>vec-lines</title>
	<defs>
		<clipPath clipPathUnits="userSpaceOnUse" id="cp1">
			<path d="m26 36h322.97v547.31h-322.97z"/>
		</clipPath>
	</defs>
	<style>
		.s0 { fill: #2ab540 } 
	</style>
	<g id="Clip-Path" clip-path="url(#cp1)">
		<g>
			<path fill-rule="evenodd" class="s0" d="m389.3 590.7c-0.5 1.8-2.4 3-4.3 2.5-1.8 0.3-3.2 0.8-5 0.8-3.7 0.1-7.3-1-11-1.8-20.3-4.2-41.5-11.4-60.6-21.2-17-8.7-32.2-20.1-43.6-34.7-11-15-13.7-36-21.1-53.4-2.6-6.2-6-11.8-10.9-16.1-3.5-3-7.5-4.8-11.9-6-9.8-2.8-21.2-2.9-32.3-3.7-13.4-0.9-26.4-2.9-37.4-9.2-10.8-5.7-19.4-14-27-23.3-10.1-12.4-18.2-26.9-27.6-39.3-11.3-16-23.8-30.8-34.9-45.8-13-17.4-24-35-30.1-54.3-7.8-24.5-7.8-51.8 6.9-84.6 10.8-23.3 27.7-32.1 47.9-33.7 17.8-1.5 38.5 3.4 58.9 7.2 17.4 3.3 34.7 6.2 48.7 0.4 26.1-11.5 43.8-31.7 60.8-52.8 11.1-13.7 21.8-27.8 33.8-40.7 8.3-9 17.3-17.4 27.3-24.7 3.8-2.7 7.6-5.4 11.7-7.8 9.3-5.2 19.3-9.1 30.5-11.9 4.2-1.5 8.8 0.8 10.2 5 1.5 4.3-0.8 8.8-5 10.3-10.5 4.4-19.3 10.4-27.6 16.7-8.7 6.7-16.6 14.1-23.9 22-13.9 15.1-26 32-39 47.9-9.3 11.4-19.1 22.1-30.1 31.7-11.6 10.2-24.5 19-39.7 25.3-17.7 7.8-39.6 5.9-61.9 2.1-18.2-3-36.6-7.2-52.3-5.5-11.2 1.2-20.5 6.3-26.1 19.3-11.3 25.5-11.5 46.6-5.5 65.8 6.3 19.8 19 37.5 32.7 55.7 9.2 12.2 18.9 24.6 27.8 37.7 3.6 5.4 7.1 11.1 10.4 17 4.4 8 8.5 16.3 13.7 23.8 5.2 7.6 11.2 14.7 19.1 19.7 8.5 5 18.8 6.3 29.2 7.2 12.4 1.1 25.1 1.6 36 4.9 6.9 2 13.2 5.1 18.6 9.9 4.8 4.2 8.5 9.2 11.7 14.7 9.7 17.4 11.7 41 23.9 56.9 9.2 13 22 23.2 36.2 31.4 17.6 10.2 37.5 16.9 56 23.3 3.5 1.3 7.1 2.2 10.2 3.9 1.7 0.9 2.6 2 4 3.1 1.9 0.5 3.1 2.4 2.6 4.3zm-6.9-491.1c-1.8 2.8-4.1 6-5.4 7.7-5.1 5.9-10.2 11.9-15.1 18.1-3.3 4.1-6.4 8.2-9.4 12.4-15.2 21.5-28.8 44.8-44.8 66-7.1 9.3-14.7 18.3-23.1 26.5-10.5 10.3-21.4 16.9-32 21.7-19.6 8.8-39.1 10.4-57.2 9.3-12.9-0.8-24.8-3-35.2-3.6-6.1-0.4-11.5-0.4-15.7 2-5.3 2.9-7.2 9.8-8.4 21.8-0.8 8.9 0.2 18.1 2.6 27 2.4 8.9 6.2 17.5 11.3 25 8.6 12.9 17.3 20.4 26.2 25 8.1 4.1 16.2 6 24.5 7.1 7 0.9 13.9 1.8 20.9 2.3 18 1.5 35.6 3.6 52.4 17.6 25 20.7 35.2 41.9 42.8 61.6 5.6 14.8 9.1 28.9 18.2 40.4 4.4 5.6 10.4 9.9 18.2 14.1 6.3 3.3 13.8 6.1 23 8.9 4.6 1.4 9.7 2.5 15 4.4 2.2 0.7 4.1 1.9 6.4 2.9 4.7 0.8 7.9 5.2 7.2 9.9-0.8 4.7-5.2 7.9-9.9 7.2-2.7 0.2-5 0.6-7.5 0.5-6.3-0.1-12-1.6-17.3-2.9-15.4-4-26.7-10-35.4-16.7-7.3-5.6-12.6-12.1-17-18.8-6.4-9.8-10.9-20.4-15.1-32-7.4-20-15-42.5-41.3-63.9-13.1-10.6-26.8-12.4-40.6-12.4-7.2 0-14.4 0.8-21.7 0.7-11.5-0.2-23-1.9-34.4-7.2-12.5-5.7-24.9-16.1-36.8-33.7-6.7-9.9-11.8-21.2-15-33-3.2-12-4.4-24.4-3.3-36.5 2.4-24.6 11.2-36.7 22.1-42.7q8.1-4.3 18.4-4.9c9.6-0.5 21.1 1.5 33.7 3.7 6.5 1.1 13.5 2.2 20.6 2.9 14.2 1.5 29.6 2.2 45.3-4.3 7.9-3.3 15.8-8.4 23.7-15.4 10.9-9.8 20.6-20.9 29.7-32.5 13.9-17.9 26.5-37 40.3-54.8 4.1-5.3 8.5-10.5 13-15.5 4.5-5 9.2-9.7 13.9-14.5 1.7-1.6 4.3-5.1 6.8-7.3 2.3-2 4.4-3.2 5.6-3.2 2 0 4.7 0.2 3.9 4 0 1.4-1.2 2.5-2.6 2.5h-0.1c-0.4 0.7-0.8 1.7-1.4 2.6zm-145.6 222.4c17.8 0.7 41-3.1 59.2-0.1 11.5 1.9 21.4 6.2 28.3 14.2 8 9.3 13 19.8 16.3 31.1 3.9 13.7 5.4 28.6 7.5 43.1 1.2 8.8 2.6 17.4 5.6 25.5 2.1 5.9 8.2 12 14.5 16.3 4.2 2.8 8.3 4.9 11.5 5.4 0.4 0.1 1 0.9 1 0.5-0.1-0.3 0.2 0.8-0.1 1-0.1 0.1 0.3 0.1 0.4 0.3 0.7 1.1 2 0.2 3.1-1.1 0-1.3 1.1-2.5 2.5-2.5 1.4 0 2.5 1.2 2.5 2.5 0 0.3 0 0.6 0.1 0.8 0.9 1.7 1.1 1.1 1.9 2.6 0.2 0.5-0.1 0.9-0.1 1.3 0.2 1-0.3 1.7-0.5 2.6-0.3 1.4-1.6 2.1-2.5 3.1-1.6 1.8-4.1 2.6-7 3.2-2.6 0.5-5.8 0-9.2-0.8-12.9-3.1-29.8-15.8-35.6-28-4.2-9-6.9-18.9-9-29-2.7-13.5-4.3-27.4-8.4-40.2-2.6-8-6.2-15.5-12.1-21.9-3.5-3.8-8.7-5.1-14.4-5.9-6.7-0.9-14.1-0.7-21.6-0.2-19.7 1.2-39.9 3.5-53-1.3-12.2-4.4-20.5-13.2-21.1-29.9-0.4-9.7 6.3-19.5 20.1-26.3 22.5-11.1 66.9-17.1 79.1-23.9 16.1-9.2 20.4-23.2 26.7-36.2 5.6-11.9 12.1-23.4 24.3-32.5 6.2-4.6 13.8-9 23.7-11.6 5-1.3 10.3-1.9 16.5-2.4 4.8-0.9 9.5 2.2 10.5 7 0.9 4.9-2.2 9.6-7 10.5-4.9 1.7-9 3.7-12.9 5.5-6.7 3-12.1 5.9-16.4 9.5-2.8 2.4-5.1 5-7.1 7.7-6 7.6-9.6 16.2-13.6 24.6-6.9 14.5-15 28.3-33 38.4-9.6 5.6-38.6 11-62.2 18.5-7.9 2.5-15.1 5.2-20.2 8.5-1.1 0.7-2.5 1.9-3.3 2.6 1 6.9 7.7 7.2 15 7.5z"/>
		</g>
	</g>
</svg>