<svg xmlns="http://www.w3.org/2000/svg" xmlns:xlink="http://www.w3.org/1999/xlink" width="1080" zoomAndPan="magnify" viewBox="0 0 810 809.999993" height="1080" preserveAspectRatio="xMidYMid meet" version="1.0"><defs><filter x="0%" y="0%" width="100%" height="100%" id="6cb5ef04cf"><feColorMatrix values="0 0 0 0 1 0 0 0 0 1 0 0 0 0 1 0 0 0 1 0" color-interpolation-filters="sRGB"/></filter><mask id="19de4821a6"><g filter="url(#6cb5ef04cf)"><rect x="-81" width="972" fill="#000000" y="-80.999999" height="971.999992" fill-opacity="0.63"/></g></mask><clipPath id="72864e1a3b"><path d="M 0.078125 1 L 490 1 L 490 470 L 0.078125 470 Z M 0.078125 1 " clip-rule="nonzero"/></clipPath><clipPath id="ae57d3749b"><rect x="0" width="491" y="0" height="471"/></clipPath></defs><g mask="url(#19de4821a6)"><g transform="matrix(1, 0, 0, 1, 166, 155)"><g clip-path="url(#ae57d3749b)"><g clip-path="url(#72864e1a3b)"><path fill="#73b51c" d="M 40.164062 70.457031 C 57.761719 37.023438 98.429688 35.070312 132.550781 38.195312 C 170.675781 41.714844 190.324219 31.550781 222.488281 12.875 C 248.589844 -2.277344 272.738281 -1.789062 300.402344 12.386719 C 333.835938 29.59375 326.996094 60.386719 354.074219 79.941406 C 379.199219 98.125 417.128906 90.007812 443.816406 106.824219 C 470.605469 123.738281 477.839844 152.96875 476.371094 183.175781 C 474.320312 224.332031 453.105469 262.851562 460.632812 304.59375 C 466.695312 338.222656 501.789062 372.734375 484.289062 408.21875 C 451.542969 474.597656 349.285156 418.972656 296.6875 428.652344 C 239.792969 439.210938 153.566406 502.265625 98.820312 446.25 C 74.578125 421.515625 87.675781 382.117188 87.1875 351.910156 C 86.503906 309.871094 72.132812 297.164062 42.804688 269.792969 C 14.550781 243.492188 -7.835938 230.394531 3.308594 190.605469 C 9.957031 166.75 42.414062 161.472656 48.476562 145.734375 C 55.808594 126.082031 30.097656 89.421875 40.164062 70.457031 Z M 40.164062 70.457031 " fill-opacity="1" fill-rule="nonzero"/></g></g></g></g></svg>