<svg xmlns="http://www.w3.org/2000/svg" xmlns:xlink="http://www.w3.org/1999/xlink" width="1080" zoomAndPan="magnify" viewBox="0 0 810 809.999993" height="1080" preserveAspectRatio="xMidYMid meet" version="1.0"><defs><clipPath id="1aac694979"><path d="M 100.207031 222.945312 L 728.707031 222.945312 L 728.707031 618.195312 L 100.207031 618.195312 Z M 100.207031 222.945312 " clip-rule="nonzero"/></clipPath><clipPath id="5d3b5e0baa"><path d="M 244 286.980469 L 566 286.980469 L 566 382 L 244 382 Z M 244 286.980469 " clip-rule="nonzero"/></clipPath><clipPath id="0ba67d584a"><path d="M 383 481 L 426 481 L 426 523.230469 L 383 523.230469 Z M 383 481 " clip-rule="nonzero"/></clipPath></defs><g clip-path="url(#1aac694979)"><path fill="#1a1a1a" d="M 117.835938 222.9375 C 108.117188 222.9375 100.296875 230.757812 100.296875 240.472656 L 100.296875 550.914062 C 100.296875 560.628906 108.117188 568.449219 117.835938 568.449219 L 383.542969 568.449219 C 376.640625 578.792969 368.890625 592.015625 367.582031 600.925781 L 335.878906 600.925781 C 334.59375 600.925781 333.558594 601.957031 333.558594 603.242188 L 333.558594 615.878906 C 333.558594 617.164062 334.59375 618.199219 335.878906 618.199219 L 493.03125 618.199219 C 494.316406 618.199219 495.351562 617.164062 495.351562 615.878906 L 495.351562 603.242188 C 495.351562 601.957031 494.316406 600.925781 493.03125 600.925781 L 461.328125 600.925781 C 460.019531 592.015625 452.269531 578.792969 445.367188 568.449219 L 711.074219 568.449219 C 720.792969 568.449219 728.613281 560.628906 728.613281 550.914062 L 728.613281 240.472656 C 728.613281 230.757812 720.792969 222.9375 711.074219 222.9375 Z M 114.433594 241.675781 L 714.46875 241.675781 L 714.46875 549.707031 L 114.433594 549.707031 Z M 114.433594 241.675781 " fill-opacity="1" fill-rule="nonzero"/></g><g clip-path="url(#5d3b5e0baa)"><path fill="#00000d" d="M 559.988281 351.285156 C 539.058594 330.335938 514.65625 314.109375 487.460938 303.0625 C 461.199219 292.394531 433.460938 286.984375 405.007812 286.984375 C 376.558594 286.984375 348.820312 292.394531 322.558594 303.0625 C 295.367188 314.109375 270.964844 330.335938 250.035156 351.285156 C 243.035156 358.296875 243.035156 369.65625 250.035156 376.667969 C 257.035156 383.675781 268.390625 383.675781 275.390625 376.667969 C 346.863281 305.125 463.15625 305.125 534.628906 376.667969 C 538.132812 380.171875 542.71875 381.921875 547.308594 381.921875 C 551.898438 381.921875 556.484375 380.171875 559.984375 376.667969 C 566.988281 369.65625 566.988281 358.292969 559.984375 351.285156 Z M 559.988281 351.285156 " fill-opacity="1" fill-rule="nonzero"/></g><path fill="#00000d" d="M 404.96875 352.3125 C 363.464844 352.3125 324.421875 368.511719 295.03125 397.925781 C 288.410156 404.550781 288.410156 415.292969 295.03125 421.921875 C 301.652344 428.546875 312.382812 428.546875 319.003906 421.921875 C 366.402344 374.472656 443.53125 374.472656 490.929688 421.921875 C 494.238281 425.234375 498.574219 426.890625 502.914062 426.890625 C 507.25 426.890625 511.589844 425.234375 514.898438 421.921875 C 521.519531 415.292969 521.519531 404.550781 514.898438 397.925781 C 485.511719 368.511719 446.464844 352.3125 404.960938 352.3125 Z M 404.96875 352.3125 " fill-opacity="1" fill-rule="nonzero"/><path fill="#00000d" d="M 404.96875 413.550781 C 379.734375 413.550781 355.996094 423.398438 338.132812 441.28125 C 331.546875 447.871094 331.546875 458.558594 338.132812 465.152344 C 344.714844 471.742188 355.394531 471.742188 361.976562 465.152344 C 385.683594 441.421875 424.257812 441.421875 447.960938 465.152344 C 451.253906 468.445312 455.570312 470.09375 459.886719 470.09375 C 464.203125 470.09375 468.519531 468.445312 471.808594 465.152344 C 478.394531 458.558594 478.394531 447.871094 471.808594 441.28125 C 453.945312 423.398438 430.207031 413.550781 404.96875 413.550781 Z M 404.96875 413.550781 " fill-opacity="1" fill-rule="nonzero"/><g clip-path="url(#0ba67d584a)"><path fill="#000000" d="M 425.488281 502.445312 C 425.488281 503.125 425.457031 503.804688 425.390625 504.480469 C 425.324219 505.15625 425.222656 505.828125 425.089844 506.496094 C 424.957031 507.164062 424.792969 507.824219 424.597656 508.472656 C 424.398438 509.125 424.171875 509.765625 423.910156 510.394531 C 423.648438 511.023438 423.359375 511.636719 423.039062 512.238281 C 422.71875 512.835938 422.371094 513.417969 421.992188 513.984375 C 421.613281 514.550781 421.210938 515.097656 420.777344 515.621094 C 420.347656 516.148438 419.890625 516.652344 419.410156 517.132812 C 418.929688 517.613281 418.425781 518.070312 417.902344 518.503906 C 417.375 518.933594 416.832031 519.339844 416.265625 519.714844 C 415.699219 520.09375 415.117188 520.445312 414.519531 520.765625 C 413.917969 521.085938 413.304688 521.375 412.679688 521.636719 C 412.050781 521.898438 411.410156 522.125 410.761719 522.324219 C 410.109375 522.519531 409.453125 522.6875 408.785156 522.820312 C 408.117188 522.953125 407.445312 523.050781 406.769531 523.117188 C 406.09375 523.183594 405.414062 523.21875 404.734375 523.21875 C 404.054688 523.21875 403.378906 523.183594 402.703125 523.117188 C 402.027344 523.050781 401.355469 522.953125 400.6875 522.820312 C 400.019531 522.6875 399.363281 522.519531 398.710938 522.324219 C 398.0625 522.125 397.421875 521.898438 396.792969 521.636719 C 396.164062 521.375 395.550781 521.085938 394.953125 520.765625 C 394.351562 520.445312 393.769531 520.09375 393.207031 519.714844 C 392.640625 519.339844 392.09375 518.933594 391.570312 518.503906 C 391.042969 518.070312 390.542969 517.613281 390.0625 517.132812 C 389.582031 516.652344 389.125 516.148438 388.691406 515.621094 C 388.261719 515.097656 387.859375 514.550781 387.480469 513.984375 C 387.101562 513.417969 386.753906 512.835938 386.433594 512.238281 C 386.113281 511.636719 385.820312 511.023438 385.5625 510.394531 C 385.300781 509.765625 385.074219 509.125 384.875 508.472656 C 384.679688 507.824219 384.515625 507.164062 384.382812 506.496094 C 384.25 505.828125 384.148438 505.15625 384.082031 504.480469 C 384.015625 503.804688 383.980469 503.125 383.980469 502.445312 C 383.980469 501.765625 384.015625 501.085938 384.082031 500.410156 C 384.148438 499.730469 384.25 499.058594 384.382812 498.390625 C 384.515625 497.722656 384.679688 497.066406 384.875 496.414062 C 385.074219 495.761719 385.300781 495.125 385.5625 494.496094 C 385.820312 493.867188 386.113281 493.253906 386.433594 492.652344 C 386.753906 492.050781 387.101562 491.46875 387.480469 490.902344 C 387.859375 490.335938 388.261719 489.792969 388.691406 489.265625 C 389.125 488.738281 389.582031 488.238281 390.0625 487.753906 C 390.542969 487.273438 391.042969 486.816406 391.570312 486.386719 C 392.09375 485.953125 392.640625 485.550781 393.207031 485.171875 C 393.769531 484.792969 394.351562 484.445312 394.953125 484.125 C 395.550781 483.804688 396.164062 483.511719 396.792969 483.253906 C 397.421875 482.992188 398.0625 482.761719 398.710938 482.566406 C 399.363281 482.367188 400.019531 482.203125 400.6875 482.070312 C 401.355469 481.9375 402.023438 481.835938 402.703125 481.769531 C 403.378906 481.703125 404.054688 481.671875 404.734375 481.671875 C 405.414062 481.671875 406.09375 481.703125 406.769531 481.769531 C 407.445312 481.835938 408.117188 481.9375 408.785156 482.070312 C 409.453125 482.203125 410.109375 482.367188 410.761719 482.566406 C 411.410156 482.761719 412.050781 482.992188 412.679688 483.253906 C 413.304688 483.511719 413.917969 483.804688 414.519531 484.125 C 415.117188 484.445312 415.699219 484.792969 416.265625 485.171875 C 416.832031 485.550781 417.375 485.953125 417.902344 486.386719 C 418.425781 486.816406 418.929688 487.273438 419.410156 487.753906 C 419.890625 488.238281 420.347656 488.738281 420.777344 489.265625 C 421.210938 489.792969 421.613281 490.335938 421.992188 490.902344 C 422.371094 491.46875 422.71875 492.050781 423.039062 492.652344 C 423.359375 493.253906 423.648438 493.867188 423.910156 494.496094 C 424.171875 495.125 424.398438 495.761719 424.597656 496.414062 C 424.792969 497.066406 424.957031 497.722656 425.089844 498.390625 C 425.222656 499.058594 425.324219 499.730469 425.390625 500.410156 C 425.457031 501.085938 425.488281 501.765625 425.488281 502.445312 Z M 425.488281 502.445312 " fill-opacity="1" fill-rule="nonzero"/></g></svg>