<svg xmlns="http://www.w3.org/2000/svg" xmlns:xlink="http://www.w3.org/1999/xlink" width="1080" zoomAndPan="magnify" viewBox="0 0 810 809.999993" height="1080" preserveAspectRatio="xMidYMid meet" version="1.0"><defs><clipPath id="5dd70356b5"><path d="M 56.421875 162.261719 L 753.921875 162.261719 L 753.921875 647.511719 L 56.421875 647.511719 Z M 56.421875 162.261719 " clip-rule="nonzero"/></clipPath></defs><g clip-path="url(#5dd70356b5)"><path fill="#73b51c" d="M 405.429688 647.28125 C 359.128906 647.28125 310.398438 646.90625 268.214844 646.21875 C 260.976562 646.101562 255.207031 640.140625 255.324219 632.90625 C 255.441406 625.671875 261.457031 619.921875 268.636719 620.015625 C 310.6875 620.699219 359.265625 621.074219 405.429688 621.074219 C 486.78125 621.074219 591.070312 619.820312 633.085938 617.425781 C 671.328125 614.84375 685.636719 609.796875 700.578125 583.335938 C 700.625 583.253906 700.671875 583.171875 700.722656 583.09375 C 708.949219 569.234375 715.0625 550.433594 719.410156 525.613281 C 719.414062 525.605469 719.414062 525.59375 719.417969 525.585938 C 724.761719 495.0625 727.363281 455.675781 727.363281 405.179688 L 727.363281 404.851562 C 727.363281 314.09375 718.886719 257.425781 700.691406 226.519531 C 700.652344 226.453125 700.609375 226.382812 700.570312 226.3125 C 685.53125 199.675781 671.269531 194.75 633.195312 192.609375 C 633.144531 192.605469 633.09375 192.605469 633.046875 192.601562 C 591.457031 189.789062 484.503906 188.792969 405.550781 188.792969 C 322.476562 188.792969 246.851562 189.742188 203.261719 191.332031 C 203.257812 191.332031 203.253906 191.332031 203.253906 191.332031 C 192.976562 191.707031 184.4375 192.117188 177.867188 192.554688 C 139.296875 194.773438 124.898438 199.71875 109.746094 226.351562 C 109.722656 226.390625 109.703125 226.429688 109.679688 226.46875 C 91.226562 258.140625 82.628906 314.8125 82.628906 404.808594 L 82.628906 405.144531 C 82.628906 495.242188 91.214844 551.785156 109.648438 583.089844 C 109.679688 583.144531 109.710938 583.199219 109.742188 583.25 C 114.148438 590.988281 118.582031 596.902344 123.296875 601.328125 C 128.570312 606.28125 128.835938 614.574219 123.878906 619.851562 C 118.925781 625.125 110.632812 625.390625 105.355469 620.433594 C 98.722656 614.203125 92.722656 606.3125 87.011719 596.300781 C 66.140625 560.785156 56.421875 500.039062 56.421875 405.144531 L 56.421875 404.808594 C 56.421875 308.738281 65.851562 249.675781 87 213.332031 C 107.933594 176.578125 132.464844 168.910156 176.25 166.394531 C 182.957031 165.949219 191.757812 165.523438 202.292969 165.140625 C 202.296875 165.140625 202.300781 165.140625 202.304688 165.140625 C 246.195312 163.539062 322.175781 162.585938 405.554688 162.585938 C 488.675781 162.585938 592.5 163.597656 634.742188 166.445312 C 678.175781 168.894531 702.535156 176.550781 723.339844 213.328125 C 744.246094 248.929688 753.570312 308.007812 753.570312 404.851562 L 753.570312 405.179688 C 753.570312 457.210938 750.84375 498.074219 745.230469 530.109375 C 745.230469 530.121094 745.230469 530.128906 745.226562 530.136719 C 740.335938 558.070312 733.171875 579.730469 723.332031 596.347656 C 702.679688 632.824219 678.3125 640.648438 634.777344 643.578125 C 634.734375 643.582031 634.691406 643.585938 634.644531 643.585938 C 592.179688 646.015625 487.191406 647.28125 405.429688 647.28125 Z M 189.785156 644.203125 C 189.597656 644.203125 189.410156 644.199219 189.222656 644.191406 L 187.902344 644.136719 C 180.671875 643.824219 175.0625 637.714844 175.371094 630.484375 C 175.679688 623.25 181.785156 617.628906 189.023438 617.953125 L 190.324219 618.007812 C 197.554688 618.308594 203.167969 624.421875 202.863281 631.648438 C 202.570312 638.695312 196.765625 644.203125 189.785156 644.203125 Z M 321.128906 543.078125 C 318.898438 543.078125 316.667969 542.511719 314.660156 541.371094 C 310.558594 539.046875 308.023438 534.6875 308.023438 529.976562 L 308.023438 279.890625 C 308.023438 275.175781 310.558594 270.824219 314.660156 268.492188 C 318.761719 266.164062 323.800781 266.222656 327.847656 268.640625 L 537.207031 393.679688 C 541.164062 396.046875 543.589844 400.316406 543.589844 404.929688 C 543.589844 409.542969 541.164062 413.8125 537.207031 416.179688 L 327.847656 541.222656 C 325.78125 542.460938 323.453125 543.078125 321.128906 543.078125 Z M 334.230469 302.980469 L 334.230469 506.886719 L 504.929688 404.933594 Z M 334.230469 302.980469 " fill-opacity="1" fill-rule="nonzero"/></g></svg>