<svg xmlns="http://www.w3.org/2000/svg" xmlns:xlink="http://www.w3.org/1999/xlink" width="1080" zoomAndPan="magnify" viewBox="0 0 810 809.999993" height="1080" preserveAspectRatio="xMidYMid meet" version="1.0"><defs><clipPath id="e2e7d1f015"><path d="M 148.867188 199.433594 L 684.367188 199.433594 L 684.367188 674 L 148.867188 674 Z M 148.867188 199.433594 " clip-rule="nonzero"/></clipPath><clipPath id="17f2a19871"><path d="M 231 321.207031 L 602.824219 321.207031 L 602.824219 488.457031 L 231 488.457031 Z M 231 321.207031 " clip-rule="nonzero"/></clipPath></defs><g clip-path="url(#e2e7d1f015)"><path fill="#000000" d="M 416.648438 673.953125 L 410.96875 670.097656 C 410.328125 669.671875 345.097656 625.113281 280.828125 563.523438 C 242.910156 527.105469 212.597656 491.972656 190.75 458.980469 C 163.007812 416.78125 148.867188 377.683594 148.867188 342.980469 C 148.867188 263.929688 213.242188 199.558594 292.289062 199.558594 C 321.640625 199.558594 350.023438 208.554688 374.230469 225.691406 C 391.796875 238.117188 406.148438 253.96875 416.648438 272.179688 C 427.144531 253.863281 441.496094 238.011719 459.0625 225.691406 C 483.269531 208.554688 511.65625 199.558594 541.003906 199.558594 C 620.050781 199.558594 684.425781 263.929688 684.425781 342.980469 L 684.425781 343.085938 C 684.105469 377.578125 669.859375 416.351562 642.011719 458.445312 C 620.160156 491.4375 589.953125 526.570312 552.035156 563.09375 C 487.875 624.898438 422.96875 669.671875 422.324219 670.097656 Z M 292.289062 219.585938 C 224.273438 219.585938 168.898438 274.964844 168.898438 342.980469 C 168.898438 373.71875 181.859375 408.960938 207.457031 447.734375 C 228.34375 479.441406 257.695312 513.5 294.539062 548.847656 C 346.703125 598.871094 399.617188 637.535156 416.648438 649.535156 C 433.679688 637.429688 486.269531 598.546875 538.328125 548.417969 C 575.066406 512.964844 604.308594 479.011719 625.300781 447.304688 C 650.902344 408.53125 664.074219 373.507812 664.289062 342.980469 C 664.289062 274.964844 608.914062 219.695312 540.898438 219.695312 C 490.445312 219.695312 444.28125 251.613281 425.859375 299.171875 L 416.539062 323.378906 L 407.328125 299.171875 C 388.90625 251.613281 342.738281 219.585938 292.289062 219.585938 Z M 292.289062 219.585938 " fill-opacity="1" fill-rule="nonzero"/></g><g clip-path="url(#17f2a19871)"><path fill="#000000" d="M 596.542969 374.96875 L 584.5625 374.96875 L 584.5625 357.046875 C 584.5625 353.746094 581.878906 351.074219 578.570312 351.074219 L 548.617188 351.074219 L 548.617188 327.183594 C 548.617188 323.882812 545.9375 321.207031 542.628906 321.207031 L 494.703125 321.207031 C 491.390625 321.207031 488.710938 323.882812 488.710938 327.183594 L 488.710938 380.941406 L 344.9375 380.941406 L 344.9375 327.183594 C 344.9375 323.882812 342.257812 321.207031 338.945312 321.207031 L 291.023438 321.207031 C 287.710938 321.207031 285.03125 323.882812 285.03125 327.183594 L 285.03125 351.074219 L 255.078125 351.074219 C 251.769531 351.074219 249.085938 353.746094 249.085938 357.046875 L 249.085938 376.460938 L 237.105469 376.460938 C 233.796875 376.460938 231.117188 379.132812 231.117188 382.433594 L 231.117188 428.726562 C 231.117188 432.027344 233.796875 434.699219 237.105469 434.699219 L 249.085938 434.699219 L 249.085938 452.621094 C 249.085938 455.917969 251.769531 458.59375 255.078125 458.59375 L 285.03125 458.59375 L 285.03125 482.484375 C 285.03125 485.785156 287.710938 488.457031 291.023438 488.457031 L 338.945312 488.457031 C 342.257812 488.457031 344.9375 485.785156 344.9375 482.484375 L 344.9375 428.726562 L 488.710938 428.726562 L 488.710938 482.484375 C 488.710938 485.785156 491.390625 488.457031 494.703125 488.457031 L 542.628906 488.457031 C 545.9375 488.457031 548.617188 485.785156 548.617188 482.484375 L 548.617188 458.59375 L 578.570312 458.59375 C 581.878906 458.59375 584.5625 455.917969 584.5625 452.621094 L 584.5625 433.207031 L 596.542969 433.207031 C 599.851562 433.207031 602.53125 430.535156 602.53125 427.234375 L 602.53125 380.941406 C 602.53125 377.640625 599.851562 374.96875 596.542969 374.96875 Z M 249.085938 422.753906 L 243.097656 422.753906 L 243.097656 388.40625 L 249.085938 388.40625 Z M 285.03125 446.644531 L 261.070312 446.644531 L 261.070312 363.019531 L 285.03125 363.019531 Z M 332.957031 476.511719 L 297.011719 476.511719 L 297.011719 333.15625 L 332.957031 333.15625 Z M 488.710938 416.78125 L 344.9375 416.78125 L 344.9375 392.886719 L 488.710938 392.886719 Z M 536.636719 476.511719 L 500.691406 476.511719 L 500.691406 333.15625 L 536.636719 333.15625 Z M 572.578125 446.644531 L 548.617188 446.644531 L 548.617188 363.019531 L 572.578125 363.019531 Z M 590.550781 421.261719 L 584.5625 421.261719 L 584.5625 386.914062 L 590.550781 386.914062 Z M 590.550781 421.261719 " fill-opacity="1" fill-rule="nonzero"/></g></svg>