<svg xmlns="http://www.w3.org/2000/svg" xmlns:xlink="http://www.w3.org/1999/xlink" width="1080" zoomAndPan="magnify" viewBox="0 0 810 809.999993" height="1080" preserveAspectRatio="xMidYMid meet" version="1.0"><defs><clipPath id="494dd04aa9"><path d="M 106.742188 132.480469 L 702.992188 132.480469 L 702.992188 728.730469 L 106.742188 728.730469 Z M 106.742188 132.480469 " clip-rule="nonzero"/></clipPath></defs><g clip-path="url(#494dd04aa9)"><path fill="#000000" d="M 564.261719 728.988281 L 245.726562 728.988281 C 169.089844 728.988281 106.742188 666.640625 106.742188 590.003906 L 106.742188 271.464844 C 106.742188 194.832031 169.089844 132.480469 245.726562 132.480469 L 564.261719 132.480469 C 640.902344 132.480469 703.25 194.832031 703.25 271.464844 L 703.25 590.003906 C 703.25 666.640625 640.902344 728.988281 564.261719 728.988281 Z M 245.726562 155.46875 C 181.765625 155.46875 129.726562 207.503906 129.726562 271.464844 L 129.726562 590.003906 C 129.726562 653.964844 181.765625 706.003906 245.726562 706.003906 L 564.261719 706.003906 C 628.222656 706.003906 680.261719 653.964844 680.261719 590.003906 L 680.261719 271.464844 C 680.261719 207.503906 628.226562 155.46875 564.261719 155.46875 Z M 245.726562 155.46875 " fill-opacity="1" fill-rule="nonzero"/></g><path fill="#000000" d="M 531.125 669.316406 L 278.867188 669.316406 C 216.859375 669.316406 166.414062 618.871094 166.414062 556.863281 L 166.414062 358.328125 L 284.382812 358.328125 L 284.382812 381.3125 L 189.402344 381.3125 L 189.402344 556.863281 C 189.402344 606.195312 229.535156 646.328125 278.867188 646.328125 L 531.125 646.328125 C 580.453125 646.328125 620.589844 606.195312 620.589844 556.863281 L 620.589844 381.3125 L 525.605469 381.3125 L 525.605469 358.328125 L 643.574219 358.328125 L 643.574219 556.863281 C 643.574219 618.871094 593.128906 669.316406 531.125 669.316406 Z M 531.125 669.316406 " fill-opacity="1" fill-rule="nonzero"/><path fill="#000000" d="M 404.996094 561.054688 C 326.800781 561.054688 263.183594 497.4375 263.183594 419.242188 C 263.183594 341.046875 326.800781 277.429688 404.996094 277.429688 C 483.1875 277.429688 546.804688 341.046875 546.804688 419.242188 C 546.804688 497.4375 483.1875 561.054688 404.996094 561.054688 Z M 404.996094 300.417969 C 339.476562 300.417969 286.171875 353.722656 286.171875 419.242188 C 286.171875 484.761719 339.472656 538.066406 404.996094 538.066406 C 470.515625 538.066406 523.820312 484.761719 523.820312 419.242188 C 523.820312 353.722656 470.515625 300.417969 404.996094 300.417969 Z M 404.996094 300.417969 " fill-opacity="1" fill-rule="nonzero"/><path fill="#000000" d="M 594.03125 280.65625 C 572.019531 280.65625 554.113281 262.75 554.113281 240.738281 C 554.113281 218.726562 572.019531 200.820312 594.03125 200.820312 C 616.039062 200.820312 633.945312 218.726562 633.945312 240.738281 C 633.945312 262.75 616.039062 280.65625 594.03125 280.65625 Z M 594.03125 223.804688 C 584.695312 223.804688 577.097656 231.402344 577.097656 240.738281 C 577.097656 250.074219 584.695312 257.667969 594.03125 257.667969 C 603.367188 257.667969 610.960938 250.074219 610.960938 240.738281 C 610.960938 231.402344 603.367188 223.804688 594.03125 223.804688 Z M 594.03125 223.804688 " fill-opacity="1" fill-rule="nonzero"/></svg>