<svg xmlns="http://www.w3.org/2000/svg" xmlns:xlink="http://www.w3.org/1999/xlink" width="1080" zoomAndPan="magnify" viewBox="0 0 810 809.999993" height="1080" preserveAspectRatio="xMidYMid meet" version="1.0"><defs><clipPath id="cea24abc60"><path d="M 104 112 L 690 112 L 690 698 L 104 698 Z M 104 112 " clip-rule="nonzero"/></clipPath><clipPath id="c11f436312"><path d="M -7.609375 320.484375 L 481.824219 0.046875 L 802.261719 489.480469 L 312.828125 809.917969 Z M -7.609375 320.484375 " clip-rule="nonzero"/></clipPath><clipPath id="7973072a98"><path d="M -7.609375 320.484375 L 481.824219 0.046875 L 802.261719 489.480469 L 312.828125 809.917969 Z M -7.609375 320.484375 " clip-rule="nonzero"/></clipPath><clipPath id="bb40594e97"><path d="M 123 130 L 672 130 L 672 680 L 123 680 Z M 123 130 " clip-rule="nonzero"/></clipPath><clipPath id="236c27b1a1"><path d="M -7.609375 320.484375 L 481.824219 0.046875 L 802.261719 489.480469 L 312.828125 809.917969 Z M -7.609375 320.484375 " clip-rule="nonzero"/></clipPath><clipPath id="f48e768daa"><path d="M -7.609375 320.484375 L 481.824219 0.046875 L 802.261719 489.480469 L 312.828125 809.917969 Z M -7.609375 320.484375 " clip-rule="nonzero"/></clipPath><clipPath id="058be5b172"><path d="M 240 180 L 570 180 L 570 554 L 240 554 Z M 240 180 " clip-rule="nonzero"/></clipPath><clipPath id="3aceb1cbfa"><path d="M -7.609375 320.484375 L 481.824219 0.046875 L 802.261719 489.480469 L 312.828125 809.917969 Z M -7.609375 320.484375 " clip-rule="nonzero"/></clipPath><clipPath id="fc91bc9d43"><path d="M -7.609375 320.484375 L 481.824219 0.046875 L 802.261719 489.480469 L 312.828125 809.917969 Z M -7.609375 320.484375 " clip-rule="nonzero"/></clipPath></defs><g clip-path="url(#cea24abc60)"><g clip-path="url(#c11f436312)"><g clip-path="url(#7973072a98)"><path fill="#25282b" d="M 557.601562 649.738281 C 422.648438 738.09375 240.96875 700.183594 152.613281 565.230469 C 64.257812 430.277344 102.167969 248.597656 237.121094 160.242188 C 372.070312 71.886719 553.753906 109.796875 642.109375 244.75 C 730.464844 379.703125 692.550781 561.382812 557.601562 649.738281 " fill-opacity="1" fill-rule="nonzero"/></g></g></g><g clip-path="url(#bb40594e97)"><g clip-path="url(#236c27b1a1)"><g clip-path="url(#f48e768daa)"><path fill="#ffffff" d="M 547.511719 634.328125 C 421.054688 717.121094 250.8125 681.601562 168.019531 555.140625 C 85.222656 428.683594 120.75 258.4375 247.207031 175.644531 C 373.664062 92.851562 543.910156 128.375 626.703125 254.832031 C 709.5 381.292969 673.96875 551.535156 547.511719 634.328125 " fill-opacity="1" fill-rule="nonzero"/></g></g></g><g clip-path="url(#058be5b172)"><g clip-path="url(#3aceb1cbfa)"><g clip-path="url(#fc91bc9d43)"><path fill="#25282b" d="M 569.589844 545.839844 L 402.921875 447.46875 L 240.734375 553.007812 L 397.082031 180.429688 L 569.589844 545.839844 " fill-opacity="1" fill-rule="nonzero"/></g></g></g></svg>