<svg xmlns="http://www.w3.org/2000/svg" xmlns:xlink="http://www.w3.org/1999/xlink" width="1080" zoomAndPan="magnify" viewBox="0 0 810 809.999993" height="1080" preserveAspectRatio="xMidYMid meet" version="1.0"><defs><clipPath id="46c8c07b6d"><path d="M 487 172 L 809.96875 172 L 809.96875 719.308594 L 487 719.308594 Z M 487 172 " clip-rule="nonzero"/></clipPath></defs><g clip-path="url(#46c8c07b6d)"><path fill="#2ab540" d="M 847.746094 722.421875 C 846.292969 721.300781 845.359375 720.191406 843.714844 719.273438 C 840.582031 717.550781 837.019531 716.664062 833.523438 715.445312 C 815 709.039062 795.050781 702.285156 777.457031 692.082031 C 763.265625 683.851562 750.546875 673.710938 741.308594 660.707031 C 729.125 644.777344 727.148438 621.1875 717.355469 603.835938 C 714.222656 598.3125 710.492188 593.28125 705.679688 589.058594 C 700.316406 584.328125 694.019531 581.226562 687.125 579.15625 C 676.175781 575.863281 663.535156 575.375 651.054688 574.28125 C 640.691406 573.378906 630.441406 572.113281 621.945312 567.082031 C 614.019531 562.050781 608.039062 555.042969 602.785156 547.371094 C 597.644531 539.855469 593.515625 531.566406 589.054688 523.578125 C 585.777344 517.707031 582.3125 512.011719 578.738281 506.617188 C 569.816406 493.535156 560.148438 481.101562 550.910156 468.855469 C 537.242188 450.710938 524.539062 433.007812 518.242188 413.152344 C 512.167969 394.023438 512.421875 372.921875 523.714844 347.402344 C 529.347656 334.351562 538.632812 329.273438 549.804688 328.085938 C 565.511719 326.410156 583.929688 330.617188 602.089844 333.640625 C 624.394531 337.355469 646.324219 339.253906 663.996094 331.519531 C 679.183594 325.191406 692.105469 316.394531 703.734375 306.191406 C 714.652344 296.636719 724.507812 285.878906 733.777344 274.519531 C 746.78125 258.605469 758.851562 241.707031 772.773438 226.644531 C 780.117188 218.6875 787.976562 211.300781 796.695312 204.625 C 804.984375 198.28125 813.78125 192.316406 824.269531 187.871094 C 828.492188 186.445312 830.757812 181.859375 829.332031 177.636719 C 827.910156 173.425781 823.320312 171.148438 819.113281 172.574219 C 807.941406 175.386719 797.867188 179.34375 788.625 184.546875 C 784.496094 186.875 780.667969 189.578125 776.902344 192.332031 C 766.9375 199.625 757.917969 207.960938 749.550781 216.980469 C 737.589844 229.859375 726.894531 244 715.835938 257.6875 C 698.78125 278.757812 681.113281 299.007812 654.992188 310.460938 C 640.992188 316.300781 623.746094 313.421875 606.265625 310.113281 C 585.875 306.269531 565.179688 301.429688 547.445312 302.867188 C 527.210938 304.515625 510.253906 313.308594 499.527344 336.628906 C 484.828125 369.394531 484.84375 396.652344 492.628906 421.25 C 498.703125 440.472656 509.746094 458.128906 522.65625 475.53125 C 533.777344 490.511719 546.339844 505.335938 557.648438 521.300781 C 566.984375 533.671875 575.085938 548.195312 585.210938 560.597656 C 592.835938 569.945312 601.410156 578.238281 612.152344 583.933594 C 623.164062 590.214844 636.246094 592.175781 649.550781 593.125 C 660.75 593.929688 672.109375 593.996094 681.933594 596.808594 C 686.300781 598.042969 690.335938 599.847656 693.753906 602.789062 C 698.75 607.09375 702.121094 612.695312 704.730469 618.878906 C 712.105469 636.28125 714.839844 657.257812 725.773438 672.304688 C 737.210938 686.90625 752.367188 698.265625 769.359375 706.96875 C 788.5 716.757812 809.683594 724.003906 829.980469 728.246094 C 833.683594 729.035156 837.289062 730.066406 840.960938 730.046875 C 842.84375 730.046875 844.203125 729.527344 846.039062 729.226562 C 847.921875 729.699219 849.820312 728.546875 850.292969 726.679688 C 850.769531 724.796875 849.613281 722.882812 847.746094 722.421875 Z M 844.835938 232.988281 L 844.945312 233.007812 C 846.339844 233.007812 847.460938 231.882812 847.460938 230.492188 C 848.347656 226.710938 845.578125 226.535156 843.570312 226.519531 C 842.449219 226.503906 840.34375 227.660156 838 229.683594 C 835.503906 231.867188 832.890625 235.425781 831.199219 237.023438 C 826.546875 241.769531 821.847656 246.546875 817.339844 251.5 C 812.785156 256.515625 808.417969 261.703125 804.304688 267.019531 C 790.539062 284.785156 777.933594 303.929688 763.964844 321.820312 C 754.898438 333.433594 745.246094 344.492188 734.300781 354.285156 C 726.421875 361.339844 718.511719 366.417969 710.554688 369.726562 C 694.90625 376.210938 679.53125 375.546875 665.339844 374.027344 C 658.15625 373.253906 651.242188 372.175781 644.679688 371.054688 C 632.070312 368.902344 620.632812 366.910156 610.980469 367.414062 C 604.097656 367.78125 597.976562 369.410156 592.613281 372.335938 C 581.664062 378.332031 572.886719 390.355469 570.527344 415.003906 C 569.375 427.058594 570.558594 439.507812 573.785156 451.453125 C 576.964844 463.253906 582.109375 474.550781 588.785156 484.453125 C 600.746094 502.140625 613.070312 512.488281 625.597656 518.230469 C 637.019531 523.46875 648.523438 525.207031 659.976562 525.398438 C 667.285156 525.523438 674.5 524.71875 681.746094 524.734375 C 695.539062 524.75 709.242188 526.503906 722.277344 537.074219 C 748.601562 558.539062 756.195312 581.035156 763.550781 601.019531 C 767.808594 612.566406 772.253906 623.199219 778.707031 633.007812 C 783.136719 639.730469 788.375 646.167969 795.746094 651.847656 C 804.351562 658.492188 815.664062 664.535156 831.136719 668.492188 C 836.355469 669.820312 842.066406 671.261719 848.363281 671.433594 C 850.878906 671.515625 853.238281 671.132812 855.910156 670.863281 C 860.609375 671.609375 865.039062 668.382812 865.765625 663.683594 C 866.511719 658.96875 863.28125 654.554688 858.566406 653.808594 C 856.273438 652.828125 854.390625 651.644531 852.175781 650.867188 C 846.878906 649 841.816406 647.894531 837.210938 646.5 C 828.035156 643.71875 820.503906 640.917969 814.238281 637.578125 C 806.425781 633.417969 800.351562 629.050781 795.96875 623.484375 C 786.933594 612.011719 783.421875 597.886719 777.757812 583.09375 C 770.210938 563.351562 759.960938 542.152344 735.042969 521.519531 C 718.210938 507.488281 700.554688 505.367188 682.597656 503.929688 C 675.636719 503.359375 668.707031 502.503906 661.714844 501.601562 C 653.441406 500.511719 645.3125 498.644531 637.179688 494.453125 C 628.304688 489.878906 619.554688 482.398438 610.980469 469.535156 C 605.933594 462.019531 602.089844 453.429688 599.667969 444.476562 C 597.28125 435.648438 596.300781 426.441406 597.136719 417.519531 C 598.261719 405.511719 600.207031 398.644531 605.507812 395.65625 C 609.730469 393.28125 615.09375 393.34375 621.246094 393.691406 C 631.59375 394.292969 643.523438 396.523438 656.386719 397.300781 C 674.5 398.40625 693.988281 396.808594 713.605469 388.011719 C 724.238281 383.234375 735.089844 376.574219 745.5625 366.308594 C 753.964844 358.082031 761.558594 349.144531 768.660156 339.761719 C 784.71875 318.609375 798.277344 295.324219 813.480469 273.808594 C 816.46875 269.597656 819.632812 265.484375 822.878906 261.417969 C 827.78125 255.25 832.859375 249.191406 837.96875 243.257812 C 839.347656 241.566406 841.625 238.433594 843.378906 235.648438 C 843.980469 234.667969 844.394531 233.71875 844.835938 232.988281 Z M 682.835938 450.488281 C 683.5625 449.808594 684.957031 448.558594 686.078125 447.863281 C 691.238281 444.648438 698.402344 441.867188 706.28125 439.367188 C 729.917969 431.882812 758.898438 426.472656 768.535156 420.9375 C 786.460938 410.84375 794.589844 396.96875 801.503906 382.476562 C 805.507812 374.09375 809.097656 365.53125 815.0625 357.859375 C 817.117188 355.21875 819.382812 352.609375 822.230469 350.21875 C 826.5 346.644531 831.878906 343.652344 838.632812 340.664062 C 842.542969 338.9375 846.609375 336.867188 851.464844 335.222656 C 856.304688 334.257812 859.4375 329.558594 858.472656 324.714844 C 857.507812 319.890625 852.808594 316.757812 847.96875 317.722656 C 841.847656 318.152344 836.453125 318.847656 831.5 320.113281 C 821.566406 322.660156 813.988281 327.089844 807.785156 331.710938 C 795.585938 340.773438 789.085938 352.324219 783.453125 364.15625 C 777.25 377.207031 772.886719 391.160156 756.84375 400.402344 C 744.644531 407.25 700.207031 413.152344 677.742188 424.257812 C 663.945312 431.09375 657.238281 440.902344 657.601562 450.582031 C 658.21875 467.335938 666.511719 476.070312 678.722656 480.515625 C 691.773438 485.261719 712.007812 483 731.691406 481.796875 C 739.203125 481.335938 746.609375 481.070312 753.300781 481.988281 C 758.980469 482.761719 764.167969 484.105469 767.679688 487.933594 C 773.597656 494.328125 777.234375 501.824219 779.816406 509.828125 C 783.929688 522.582031 785.460938 536.519531 788.214844 549.964844 C 790.304688 560.105469 793.007812 569.960938 797.25 579.042969 C 803.023438 591.210938 819.886719 603.914062 832.78125 607 C 836.230469 607.804688 839.378906 608.265625 841.972656 607.757812 C 844.898438 607.1875 847.367188 606.429688 849.011719 604.625 C 849.945312 603.613281 851.164062 602.851562 851.496094 601.476562 C 851.71875 600.558594 852.175781 599.941406 852.035156 598.929688 C 851.988281 598.457031 852.289062 598.089844 852.050781 597.632812 C 851.273438 596.082031 851.085938 596.746094 850.167969 594.976562 C 850.058594 594.753906 850.136719 594.484375 850.105469 594.246094 C 850.105469 592.855469 848.980469 591.730469 847.589844 591.730469 C 846.195312 591.730469 845.074219 592.855469 845.074219 594.246094 C 843.980469 595.496094 842.683594 596.367188 842.019531 595.292969 C 841.925781 595.132812 841.5 595.117188 841.640625 595.023438 C 841.910156 594.800781 841.640625 593.660156 841.671875 594.027344 C 841.703125 594.359375 841.117188 593.550781 840.707031 593.488281 C 837.464844 592.980469 833.367188 590.894531 829.207031 588.078125 C 822.941406 583.835938 816.820312 577.730469 814.652344 571.765625 C 811.675781 563.730469 810.347656 555.109375 809.082031 546.328125 C 806.992188 531.820312 805.507812 516.949219 801.566406 503.21875 C 798.339844 491.890625 793.308594 481.351562 785.304688 472.144531 C 778.359375 464.140625 768.488281 459.789062 756.953125 457.890625 C 738.761719 454.902344 715.632812 458.746094 697.816406 458.003906 C 690.492188 457.6875 683.832031 457.449219 682.835938 450.488281 Z M 682.835938 450.488281 " fill-opacity="1" fill-rule="evenodd"/></g><path fill="#ffffff" d="M -25.675781 513.328125 C -25.550781 511.648438 -24.332031 510.257812 -23.589844 508.152344 C -22.671875 505.589844 -21.878906 502.617188 -20.675781 499.738281 C -18.335938 494.058594 -15.472656 488.535156 -13.9375 485.070312 C -3.449219 458.730469 14.445312 443.351562 35.578125 432.5625 C 55.59375 422.359375 78.484375 416.332031 101.15625 409.464844 C 116.863281 404.703125 132.449219 399.5 147.035156 392.742188 C 176.082031 379.265625 196.613281 358.902344 213.179688 335.09375 C 227.953125 313.847656 239.660156 289.894531 251.242188 265.660156 C 267.285156 232.105469 283.121094 197.996094 311.058594 172.144531 C 328.273438 156.386719 353.046875 141.042969 369.054688 121.425781 C 381.601562 106.0625 389.195312 88.28125 386.332031 66.449219 C 383.707031 44.792969 368.914062 31.296875 347.90625 22.882812 C 327.734375 14.8125 301.359375 11.601562 277.519531 8.625 C 260.941406 6.554688 245.753906 4.703125 235.753906 0.605469 C 223.984375 -4.171875 215.109375 -11.402344 207.4375 -19.535156 C 196.867188 -30.734375 188.484375 -43.691406 179.226562 -55.839844 C 168.628906 -69.714844 156.90625 -82.515625 140.910156 -91.53125 C 106.976562 -110.625 71.144531 -116.890625 36.511719 -124.074219 C 14.332031 -128.660156 -7.136719 -133.945312 -27.371094 -144.007812 C -42.90625 -151.742188 -57.855469 -161.980469 -71.601562 -177.988281 C -72.835938 -179.429688 -74.007812 -180.933594 -75.304688 -182.386719 C -77.265625 -184.554688 -79.417969 -186.46875 -81.472656 -188.714844 C -83.453125 -191.847656 -87.582031 -192.78125 -90.699219 -190.804688 C -93.816406 -188.84375 -94.746094 -184.699219 -92.785156 -181.582031 C -91.519531 -178.511719 -90.382812 -175.617188 -88.863281 -172.816406 C -87.851562 -170.917969 -86.601562 -169.195312 -85.429688 -167.453125 C -71.808594 -147.21875 -55.972656 -133.1875 -38.648438 -123.078125 C -17.117188 -110.53125 6.738281 -104.441406 31.101562 -98.984375 C 63.15625 -91.816406 96.582031 -86.613281 128.003906 -68.734375 C 140.769531 -61.488281 149.816406 -50.953125 158.265625 -39.863281 C 168.089844 -26.953125 177.046875 -13.207031 188.371094 -1.402344 C 198.609375 9.257812 210.648438 18.386719 226.308594 24.445312 C 237.984375 28.90625 255.5625 31.058594 274.78125 32.972656 C 296.695312 35.15625 321.011719 37.136719 339.644531 44.144531 C 352.539062 49.015625 362.695312 56.136719 364.515625 69.28125 C 366.476562 84.5 360.734375 96.746094 351.953125 107.410156 C 336.53125 126.15625 312.484375 140.488281 295.902344 155.503906 C 265.273438 182.933594 246.480469 218.878906 229.203125 255.136719 C 218.179688 278.300781 207.894531 301.601562 194.195312 322.183594 C 180.242188 343.179688 162.933594 361.46875 137.96875 373.742188 C 124.363281 380.453125 109.730469 385.546875 95.0625 390.542969 C 71.601562 398.535156 48 406.144531 27.605469 417.835938 C 4.082031 431.328125 -15.34375 450.0625 -25.707031 480.753906 C -27.226562 485.832031 -30.800781 495.132812 -32.195312 503.136719 C -32.382812 504.246094 -32.683594 505.320312 -32.667969 506.367188 C -32.589844 509.71875 -31.863281 512.3125 -30.582031 514.480469 C -30.265625 515.824219 -28.902344 516.679688 -27.558594 516.347656 C -26.199219 516.03125 -25.359375 514.671875 -25.675781 513.328125 Z M -54.28125 -107.746094 C -54.5 -107.542969 -54.769531 -107.179688 -54.597656 -106.878906 C -53.996094 -105.753906 -53.03125 -104.332031 -51.921875 -102.796875 C -50.117188 -100.28125 -47.953125 -97.78125 -46.667969 -96.308594 L -29.285156 -76.1875 C -17.132812 -62.5 -4.761719 -49.988281 9.335938 -39.53125 C 19.03125 -32.316406 29.566406 -26.242188 41.355469 -21.367188 C 55.164062 -16.003906 69.816406 -13.378906 83.671875 -8.410156 C 88.71875 -6.609375 93.671875 -4.472656 98.386719 -1.546875 C 109.585938 5.351562 116.011719 15.886719 121.625 26.976562 C 128.523438 40.617188 134.1875 55.152344 142.683594 67.367188 C 147.621094 74.472656 153.472656 80.832031 160.78125 86.050781 C 168.867188 91.792969 180.859375 94.023438 194.242188 94.308594 C 207.5 94.59375 222.355469 93.140625 233.933594 95.148438 C 239.28125 96.066406 244.011719 97.425781 244.882812 102.980469 C 245.609375 107.582031 245.167969 111.871094 244.011719 115.953125 C 242.019531 123.085938 238.175781 129.761719 233.113281 136.074219 C 224.839844 146.421875 214.554688 156.277344 204.953125 165.546875 C 197.183594 173.03125 189.84375 180.117188 184.957031 187.695312 C 168.25 213.292969 166.238281 243.984375 156.164062 271.71875 C 152.332031 282.269531 147.097656 292.269531 139.109375 301.253906 C 128.714844 312.789062 109.460938 327.328125 87.992188 341.4375 C 57.175781 361.703125 21.800781 380.863281 1.457031 389.691406 C -11.230469 395.527344 -23.605469 399.546875 -35.546875 404.199219 C -44.390625 407.664062 -52.996094 411.460938 -61.460938 416.03125 C -64.199219 417.519531 -67.046875 418.894531 -69.625 420.761719 C -75.480469 424.984375 -80.558594 430.09375 -85.761719 435.996094 C -89.527344 439.050781 -90.113281 444.585938 -87.042969 448.367188 C -83.988281 452.132812 -78.4375 452.703125 -74.671875 449.632812 C -69.070312 446.5 -63.503906 444.683594 -58.140625 442.183594 C -52.601562 439.605469 -47.351562 436.835938 -41.941406 434.527344 C -24.425781 427.058594 -6.503906 421.601562 12.292969 412.867188 C 29.867188 404.054688 58.21875 386.667969 85.429688 367.746094 C 112.972656 348.589844 139.3125 327.894531 152.082031 312.488281 C 158.171875 305.257812 162.773438 297.519531 166.492188 289.46875 C 180.242188 259.664062 179.925781 224.84375 198.371094 196.429688 C 202.121094 190.734375 207.339844 185.179688 213.382812 179.867188 C 227.9375 167.097656 246.023438 155.089844 257.300781 140.269531 C 261.699219 134.476562 265.117188 128.277344 267.1875 121.648438 C 269.371094 114.703125 269.863281 107.265625 268.707031 99.339844 C 266.871094 86.953125 260.195312 79.484375 250.625 74.992188 C 239.457031 69.742188 222.71875 69.675781 206.203125 69.929688 C 198.5625 70.058594 191 70.152344 184.402344 69.203125 C 180.730469 68.679688 177.410156 67.9375 174.925781 66.179688 C 164.355469 58.683594 158.394531 47.542969 152.808594 36.027344 C 146.003906 22.042969 139.882812 7.425781 130.359375 -4.628906 C 125.058594 -11.324219 118.777344 -17.269531 110.964844 -22.050781 C 104.699219 -25.84375 98.148438 -28.726562 91.394531 -30.957031 C 77.503906 -35.511719 62.789062 -37.269531 48.851562 -42.015625 C 35.613281 -46.175781 23.953125 -52.203125 13.097656 -59.621094 C 1.804688 -67.34375 -8.636719 -76.375 -19.03125 -86.136719 L -38.125 -104.550781 C -39.457031 -105.816406 -41.464844 -108.238281 -43.648438 -110.199219 C -45.402344 -111.796875 -47.019531 -113.363281 -48.519531 -113.902344 C -51.621094 -115.023438 -53.078125 -115.46875 -53.914062 -114.675781 C -55.007812 -113.664062 -56.96875 -113.886719 -56.527344 -112.066406 C -56.367188 -111.464844 -56.921875 -110.707031 -56.035156 -109.726562 C -55.863281 -108.761719 -55.164062 -108.015625 -54.28125 -107.746094 Z M -51.148438 -109.425781 C -51.003906 -109.582031 -50.847656 -109.726562 -50.671875 -109.835938 C -50.484375 -109.960938 -50.796875 -110.261719 -50.59375 -110.484375 C -50.53125 -110.578125 -50.972656 -110.421875 -51.066406 -110.515625 C -51.003906 -110.136719 -51.035156 -109.773438 -51.148438 -109.425781 Z M -52.648438 -107.8125 C -52.523438 -107.796875 -52.429688 -107.828125 -52.332031 -107.890625 C -52.238281 -107.9375 -52.160156 -108.015625 -52.082031 -108.128906 C -52.253906 -107.984375 -52.445312 -107.890625 -52.648438 -107.8125 Z M -35.453125 378.871094 C -37.003906 378.726562 -38.492188 379.707031 -38.933594 381.257812 C -39.441406 383.015625 -38.425781 384.847656 -36.65625 385.355469 C -35.847656 386.210938 -34.898438 385.339844 -33.414062 385.355469 C -32.035156 385.355469 -30.550781 383.980469 -29.742188 383.664062 C -28.285156 382.570312 -26.800781 381.636719 -25.375 380.515625 C -19.808594 376.117188 -14.347656 371.542969 -8.558594 367.335938 C 2.5 359.269531 14.015625 351.722656 25.234375 344.269531 C 49.597656 328.179688 79.148438 314.210938 99.511719 293.488281 C 114.269531 278.457031 124.332031 260.027344 125.34375 235.394531 C 125.582031 223.277344 121.453125 210.605469 119.601562 198.25 C 118.921875 193.789062 118.574219 189.390625 119.144531 185.085938 C 119.808594 180.214844 123.761719 175.769531 127.636719 171.210938 C 133.144531 164.789062 138.777344 158.367188 141.226562 151.691406 C 143.109375 146.597656 143.332031 141.359375 141.433594 135.820312 C 139.0625 128.878906 134.742188 124.113281 129.679688 120.160156 C 121.578125 113.816406 109.984375 111.222656 103.734375 102.566406 C 99.730469 97.03125 100.933594 89.910156 100.917969 82.964844 C 100.902344 75.625 100.492188 68.332031 98.625 61.765625 C 97.042969 56.214844 94.257812 51.199219 90.035156 46.753906 C 83.421875 40.046875 75.746094 34.886719 67.332031 30.757812 C 59.042969 26.675781 50.054688 23.511719 40.785156 20.792969 C 28.683594 17.234375 16.183594 14.289062 4.507812 9.542969 C -0.125 7.660156 -4.570312 5.542969 -9 3.136719 C -11.960938 1.539062 -14.996094 0.351562 -17.859375 -1.59375 C -21.105469 -4.835938 -26.371094 -4.835938 -29.617188 -1.59375 C -32.875 1.648438 -32.875 6.917969 -29.617188 10.160156 C -26.988281 14.019531 -24.1875 17.375 -20.882812 20.460938 C -17.609375 23.496094 -13.8125 25.839844 -10 28.117188 C 4.035156 36.484375 20.140625 41.34375 35.578125 46.578125 C 48.964844 51.105469 62.03125 55.46875 71.699219 65.074219 C 76.160156 69.296875 75.9375 75.578125 76.445312 81.765625 C 77.011719 88.675781 77.566406 95.6875 79.542969 102.015625 C 81.160156 107.125 83.371094 111.917969 87.074219 116.03125 C 91.140625 120.554688 96.027344 123.910156 101.503906 126.488281 C 107.4375 129.289062 114 131.074219 119.316406 134.570312 C 121.941406 136.296875 124.285156 138.433594 125.628906 141.738281 C 126.753906 144.492188 125.851562 147.085938 124.378906 149.632812 C 120.488281 156.402344 113.511719 162.8125 108.953125 169.472656 C 105.996094 173.773438 103.90625 178.203125 103.179688 182.746094 C 102.5625 186.714844 102.484375 190.75 102.738281 194.832031 C 103.542969 208.042969 108.652344 221.835938 108.117188 234.890625 C 107.753906 254.902344 99.714844 269.976562 88.023438 282.460938 C 68.882812 302.902344 40.625 316.871094 17.5625 332.976562 C 6.296875 340.773438 -5.488281 348.414062 -16.375 357.085938 C -22.304688 361.832031 -28.222656 366.609375 -33.207031 372.257812 C -34.488281 373.710938 -35.5625 375.261719 -36.703125 376.828125 C -36.84375 377.050781 -37.144531 377.367188 -37.335938 377.855469 C -37.429688 378.09375 -36.988281 378.664062 -37.242188 378.570312 C -37.511719 378.472656 -36.75 378.949219 -36.625 378.757812 C -36.292969 378.332031 -35.894531 378.679688 -35.453125 378.871094 Z M 46.859375 253.839844 C 46.371094 254.425781 42.507812 259.03125 38.980469 262.621094 C 28.335938 273.507812 10.597656 289.34375 -6.027344 305.097656 C -14.617188 313.261719 -22.828125 321.472656 -29.964844 328.671875 C -32.8125 331.519531 -35.5 334.175781 -37.828125 336.773438 C -42.839844 342.355469 -46.464844 347.148438 -48.789062 350.410156 C -51.542969 353.476562 -51.289062 358.222656 -48.21875 360.976562 C -45.167969 363.746094 -40.421875 363.492188 -37.667969 360.421875 C -35.152344 358.238281 -31.199219 355.503906 -26.515625 351.738281 C -19.238281 345.882812 -10.109375 338.257812 -0.394531 329.96875 C 11.882812 319.464844 24.804688 307.710938 36.117188 297.363281 C 53.140625 281.78125 65.953125 268.222656 67.996094 263.746094 C 72.21875 254.488281 73.042969 246.453125 72.046875 239.128906 C 71.050781 231.851562 68.105469 225.222656 64.339844 218.671875 C 60.480469 211.980469 55.578125 205.367188 52.523438 197.394531 C 45.371094 178.980469 45.214844 162.8125 43.140625 149.078125 C 40.925781 134.253906 36.972656 121.710938 25.929688 111.554688 C 19.507812 105.652344 10.726562 100.082031 -2.292969 96.382812 C -7.894531 94.785156 -14.207031 92.949219 -21.578125 92.617188 C -24.046875 92.507812 -26.402344 92.332031 -28.984375 93.027344 C -31.292969 93.644531 -32.019531 94.453125 -34.25 95.558594 C -35.628906 95.320312 -36.941406 96.222656 -37.175781 97.585938 C -37.429688 98.960938 -36.527344 100.273438 -35.152344 100.511719 C -34.882812 100.652344 -34.582031 100.71875 -34.347656 100.90625 C -32.699219 102.25 -33.160156 103.3125 -31.59375 104.65625 C -29.898438 106.09375 -28.082031 106.777344 -26.183594 107.644531 C -24.949219 108.199219 -23.714844 108.59375 -22.496094 109.023438 C -16.738281 111.09375 -11.785156 113.167969 -7.355469 115.175781 C 6.121094 121.234375 12.816406 127.613281 16.214844 135.742188 C 19.285156 143.050781 19.886719 151.324219 20.835938 160.582031 C 22.210938 173.980469 24 189.074219 30.46875 205.90625 C 35.28125 218.277344 44.105469 227.644531 47.824219 238.480469 C 49.375 242.972656 49.46875 247.828125 46.859375 253.839844 Z M 46.859375 253.839844 " fill-opacity="1" fill-rule="evenodd"/></svg>