<svg xmlns="http://www.w3.org/2000/svg" xmlns:xlink="http://www.w3.org/1999/xlink" width="1080" zoomAndPan="magnify" viewBox="0 0 810 809.999993" height="1080" preserveAspectRatio="xMidYMid meet" version="1.0"><defs><clipPath id="8c623069d2"><path d="M 147 114.011719 L 648 114.011719 L 648 738 L 147 738 Z M 147 114.011719 " clip-rule="nonzero"/></clipPath></defs><path fill="#ffffff" d="M 642.398438 683.335938 C 642.398438 710.371094 620.484375 732.296875 593.464844 732.296875 L 202.175781 732.296875 C 175.15625 732.296875 153.242188 710.371094 153.242188 683.335938 L 153.242188 168.390625 C 153.242188 141.351562 175.15625 119.425781 202.175781 119.425781 L 593.464844 119.425781 C 620.484375 119.425781 642.398438 141.351562 642.398438 168.390625 L 642.398438 683.335938 " fill-opacity="1" fill-rule="nonzero"/><g clip-path="url(#8c623069d2)"><path stroke-linecap="round" transform="matrix(0.27459, 0, 0, -0.274769, -159.021375, 1010.034113)" fill="none" stroke-linejoin="round" d="M 2918.606635 1188.993003 C 2918.606635 1090.600621 2838.800113 1010.803419 2740.40052 1010.803419 L 1315.405984 1010.803419 C 1217.006391 1010.803419 1137.199868 1090.600621 1137.199868 1188.993003 L 1137.199868 3063.097051 C 1137.199868 3161.50365 1217.006391 3241.300852 1315.405984 3241.300852 L 2740.40052 3241.300852 C 2838.800113 3241.300852 2918.606635 3161.50365 2918.606635 3063.097051 Z M 2918.606635 1188.993003 " stroke="#231f1f" stroke-width="40" stroke-opacity="1" stroke-miterlimit="10"/></g><path fill="#ffffff" d="M 612.191406 679.789062 C 612.191406 704.242188 592.96875 724.082031 569.300781 724.082031 L 226.339844 724.082031 C 202.640625 724.082031 183.445312 704.242188 183.445312 679.789062 L 183.445312 219.25 C 183.445312 194.796875 202.640625 174.957031 226.339844 174.957031 L 569.300781 174.957031 C 592.96875 174.957031 612.191406 194.796875 612.191406 219.25 L 612.191406 679.789062 " fill-opacity="1" fill-rule="nonzero"/><path stroke-linecap="round" transform="matrix(0.27459, 0, 0, -0.274769, -159.021375, 1010.034113)" fill="none" stroke-linejoin="round" d="M 2808.598821 1201.901583 C 2808.598821 1112.906307 2738.593848 1040.700714 2652.399959 1040.700714 L 1403.406545 1040.700714 C 1317.098849 1040.700714 1247.193457 1112.906307 1247.193457 1201.901583 L 1247.193457 2877.998249 C 1247.193457 2966.993526 1317.098849 3039.199119 1403.406545 3039.199119 L 2652.399959 3039.199119 C 2738.593848 3039.199119 2808.598821 2966.993526 2808.598821 2877.998249 Z M 2808.598821 1201.901583 " stroke="#231f1f" stroke-width="40" stroke-opacity="1" stroke-miterlimit="10"/><path fill="#ffffff" d="M 643.769531 668.222656 L 151.871094 668.222656 C 131.742188 668.222656 112.40625 690.835938 112.40625 711.828125 L 112.40625 732.296875 L 683.222656 732.296875 L 683.222656 711.828125 C 683.222656 690.835938 663.917969 668.222656 643.765625 668.222656 " fill-opacity="1" fill-rule="nonzero"/><path stroke-linecap="round" transform="matrix(0.27459, 0, 0, -0.274769, -159.021375, 1010.034113)" fill="none" stroke-linejoin="round" d="M 2923.599877 1243.996633 L 1132.206626 1243.996633 C 1058.901277 1243.996633 988.483757 1161.697327 988.483757 1085.297868 L 988.483757 1010.803419 L 3067.280069 1010.803419 L 3067.280069 1085.297868 C 3067.280069 1161.697327 2996.976356 1243.996633 2923.585652 1243.996633 Z M 2923.599877 1243.996633 " stroke="#231f1f" stroke-width="40" stroke-opacity="1" stroke-miterlimit="10"/><path fill="#ffffff" d="M 407.980469 415.570312 C 407.980469 422.992188 407.429688 425.875 403.695312 425.875 L 392.136719 425.875 C 388.402344 425.875 387.660156 422.992188 387.660156 415.570312 L 387.660156 339.902344 C 387.660156 332.453125 389.085938 329.570312 392.792969 329.570312 L 402.816406 329.570312 C 406.550781 329.570312 407.980469 332.453125 407.980469 339.902344 L 407.980469 415.570312 " fill-opacity="1" fill-rule="nonzero"/><path stroke-linecap="round" transform="matrix(0.27459, 0, 0, -0.274769, -159.021375, 1010.034113)" fill="none" stroke-linejoin="round" d="M 2064.904458 2163.505499 C 2064.904458 2136.494153 2062.898625 2126.002378 2049.298797 2126.002378 L 2007.204769 2126.002378 C 1993.604941 2126.002378 1990.902046 2136.494153 1990.902046 2163.505499 L 1990.902046 2438.89328 C 1990.902046 2466.004141 1996.094449 2476.495916 2009.594697 2476.495916 L 2046.098001 2476.495916 C 2059.697829 2476.495916 2064.904458 2466.004141 2064.904458 2438.89328 Z M 2064.904458 2163.505499 " stroke="#231f1f" stroke-width="40" stroke-opacity="1" stroke-miterlimit="10"/><path fill="#ffffff" d="M 589.347656 239.636719 C 596.789062 239.636719 599.644531 240.214844 599.644531 243.921875 L 599.644531 255.492188 C 599.644531 259.226562 596.789062 259.996094 589.347656 259.996094 L 513.722656 259.996094 C 506.28125 259.996094 503.425781 258.542969 503.425781 254.832031 L 503.425781 244.804688 C 503.425781 241.066406 506.28125 239.636719 513.722656 239.636719 L 589.347656 239.636719 " fill-opacity="1" fill-rule="nonzero"/><path stroke-linecap="round" transform="matrix(0.27459, 0, 0, -0.274769, -159.021375, 1010.034113)" fill="none" stroke-linejoin="round" d="M 2725.406567 2803.802347 C 2752.506643 2803.802347 2762.905675 2801.698305 2762.905675 2788.206849 L 2762.905675 2746.097582 C 2762.905675 2732.50661 2752.506643 2729.70596 2725.406567 2729.70596 L 2449.995823 2729.70596 C 2422.895747 2729.70596 2412.496716 2734.994497 2412.496716 2748.50017 L 2412.496716 2784.99392 C 2412.496716 2798.599109 2422.895747 2803.802347 2449.995823 2803.802347 Z M 2725.406567 2803.802347 " stroke="#231f1f" stroke-width="40" stroke-opacity="1" stroke-miterlimit="10"/><path fill="#ffffff" d="M 587.121094 266.949219 C 582.921875 266.949219 577.621094 263.789062 577.621094 257.222656 L 577.621094 241.808594 C 577.621094 235.269531 582.921875 232.6875 587.121094 232.6875 L 722.933594 216.253906 C 731.804688 216.253906 737.101562 221.558594 737.101562 228.097656 L 737.101562 271.539062 C 737.101562 278.050781 731.804688 283.378906 722.933594 283.378906 L 587.121094 266.949219 " fill-opacity="1" fill-rule="nonzero"/><path stroke-linecap="round" transform="matrix(0.27459, 0, 0, -0.274769, -159.021375, 1010.034113)" fill="none" stroke-linejoin="round" d="M 2717.297883 2704.400594 C 2702.005189 2704.400594 2682.700831 2715.901741 2682.700831 2739.799673 L 2682.700831 2795.897974 C 2682.700831 2819.696391 2702.005189 2829.093497 2717.297883 2829.093497 L 3211.899161 2888.902303 C 3244.205866 2888.902303 3263.495999 2869.596299 3263.495999 2845.797882 L 3263.495999 2687.696209 C 3263.495999 2663.997307 3244.205866 2644.606004 3211.899161 2644.606004 Z M 2717.297883 2704.400594 " stroke="#231f1f" stroke-width="40" stroke-opacity="1" stroke-miterlimit="10"/><path fill="#ffffff" d="M 448.785156 353.667969 C 448.785156 361.113281 443.402344 367.128906 436.785156 367.128906 L 358.855469 367.128906 C 352.210938 367.128906 346.855469 361.113281 346.855469 353.667969 L 346.855469 284.34375 C 346.855469 276.894531 352.210938 270.851562 358.855469 270.851562 L 436.785156 270.851562 C 443.402344 270.851562 448.785156 276.894531 448.785156 284.34375 L 448.785156 353.667969 " fill-opacity="1" fill-rule="nonzero"/><path stroke-linecap="round" transform="matrix(0.27459, 0, 0, -0.274769, -159.021375, 1010.034113)" fill="none" stroke-linejoin="round" d="M 2213.506763 2388.794341 C 2213.506763 2361.697696 2193.903663 2339.804289 2169.805223 2339.804289 L 1886.00128 2339.804289 C 1861.80326 2339.804289 1842.299741 2361.697696 1842.299741 2388.794341 L 1842.299741 2641.094529 C 1842.299741 2668.20539 1861.80326 2690.198312 1886.00128 2690.198312 L 2169.805223 2690.198312 C 2193.903663 2690.198312 2213.506763 2668.20539 2213.506763 2641.094529 Z M 2213.506763 2388.794341 " stroke="#231f1f" stroke-width="40" stroke-opacity="1" stroke-miterlimit="10"/><path fill="#ffffff" d="M 282.875 174.957031 L 282.875 283.433594 C 282.875 300.332031 296.578125 314.015625 313.464844 314.015625 L 482.171875 314.015625 C 499.0625 314.015625 512.734375 300.332031 512.734375 283.433594 L 512.734375 174.957031 L 282.875 174.957031 " fill-opacity="1" fill-rule="nonzero"/><path stroke-linecap="round" transform="matrix(0.27459, 0, 0, -0.274769, -159.021375, 1010.034113)" fill="none" stroke-linejoin="round" d="M 1609.295992 3039.199119 L 1609.295992 2644.406973 C 1609.295992 2582.906403 1659.199963 2533.106011 1720.697931 2533.106011 L 2335.094347 2533.106011 C 2396.60654 2533.106011 2446.396706 2582.906403 2446.396706 2644.406973 L 2446.396706 3039.199119 Z M 1609.295992 3039.199119 " stroke="#231f1f" stroke-width="40" stroke-opacity="1" stroke-miterlimit="10"/><path fill="#ffffff" d="M 532.78125 528.667969 L 522.070312 580.160156 C 519.792969 588.976562 517.183594 591.972656 509.386719 591.972656 L 497.988281 591.972656 L 497.988281 515.726562 L 519.847656 515.726562 C 530.28125 515.148438 533.660156 519.324219 532.78125 528.667969 Z M 533.660156 498.441406 L 497.988281 498.441406 L 497.988281 488.109375 C 497.988281 467.859375 490.824219 469.949219 470.585938 469.949219 L 313.960938 469.949219 C 293.722656 469.949219 286.554688 467.859375 286.554688 488.109375 L 286.554688 628.433594 C 286.554688 648.714844 302.070312 668.222656 329.363281 668.222656 L 455.152344 668.222656 C 484.78125 668.222656 497.988281 648.714844 497.988281 628.433594 L 497.988281 609.257812 L 518.417969 609.257812 C 529.761719 609.257812 533.550781 604.941406 536.898438 592.082031 L 552.441406 517.234375 C 554.527344 505.476562 544.039062 498.441406 533.660156 498.441406 " fill-opacity="1" fill-rule="nonzero"/><path stroke-linecap="round" transform="matrix(0.27459, 0, 0, -0.274769, -159.021375, 1010.034113)" fill="none" stroke-linejoin="round" d="M 2519.403314 1751.895236 L 2480.396276 1564.493361 C 2472.102657 1532.406726 2462.599848 1521.502672 2434.205228 1521.502672 L 2392.694456 1521.502672 L 2392.694456 1798.994494 L 2472.301817 1798.994494 C 2510.298827 1801.098536 2522.60411 1785.901099 2519.403314 1751.895236 Z M 2522.60411 1861.902497 L 2392.694456 1861.902497 L 2392.694456 1899.505134 C 2392.694456 1973.203459 2366.604409 1965.597632 2292.900738 1965.597632 L 1722.504602 1965.597632 C 1648.800932 1965.597632 1622.696659 1973.203459 1622.696659 1899.505134 L 1622.696659 1388.805881 C 1622.696659 1314.993824 1679.201384 1243.996633 1778.59678 1243.996633 L 2236.694754 1243.996633 C 2344.597156 1243.996633 2392.694456 1314.993824 2392.694456 1388.805881 L 2392.694456 1458.594669 L 2467.095189 1458.594669 C 2508.4068 1458.594669 2522.205789 1474.303899 2534.397267 1521.10461 L 2591.001572 1793.506926 C 2598.598129 1836.298584 2560.401959 1861.902497 2522.60411 1861.902497 Z M 2522.60411 1861.902497 " stroke="#231f1f" stroke-width="40" stroke-opacity="1" stroke-miterlimit="10"/></svg>