<svg xmlns="http://www.w3.org/2000/svg" xmlns:xlink="http://www.w3.org/1999/xlink" width="1080" zoomAndPan="magnify" viewBox="0 0 810 809.999993" height="1080" preserveAspectRatio="xMidYMid meet" version="1.0"><defs><clipPath id="7b0e67407a"><path d="M 136.085938 103.546875 L 692.585938 103.546875 L 692.585938 660.046875 L 136.085938 660.046875 Z M 136.085938 103.546875 " clip-rule="nonzero"/></clipPath><clipPath id="28cc5fe61f"><path d="M 256.226562 170.742188 L 572.726562 170.742188 L 572.726562 592.992188 L 256.226562 592.992188 Z M 256.226562 170.742188 " clip-rule="nonzero"/></clipPath></defs><g clip-path="url(#7b0e67407a)"><path fill="#000000" d="M 414.335938 660.046875 C 260.609375 660.046875 136.085938 534.660156 136.085938 381.796875 C 136.085938 228.929688 260.609375 103.546875 414.335938 103.546875 C 568.058594 103.546875 692.585938 228.070312 692.585938 381.796875 C 692.585938 535.519531 567.199219 660.046875 414.335938 660.046875 Z M 414.335938 120.722656 C 270.058594 120.722656 153.261719 237.515625 153.261719 381.796875 C 153.261719 526.074219 270.058594 642.871094 414.335938 642.871094 C 558.613281 642.871094 675.410156 526.074219 675.410156 381.796875 C 675.410156 237.515625 557.753906 120.722656 414.335938 120.722656 Z M 414.335938 120.722656 " fill-opacity="1" fill-rule="nonzero"/></g><g clip-path="url(#28cc5fe61f)"><path fill="#000000" d="M 522.082031 170.890625 C 520.4375 170.894531 518.792969 170.976562 517.15625 171.136719 C 515.519531 171.300781 513.890625 171.542969 512.277344 171.867188 C 510.664062 172.1875 509.066406 172.589844 507.492188 173.070312 C 505.917969 173.546875 504.371094 174.101562 502.851562 174.734375 C 501.328125 175.363281 499.84375 176.070312 498.390625 176.84375 C 496.941406 177.621094 495.53125 178.46875 494.160156 179.382812 C 492.792969 180.296875 491.472656 181.277344 490.199219 182.320312 C 488.929688 183.367188 487.710938 184.46875 486.546875 185.632812 C 485.382812 186.796875 484.277344 188.015625 483.234375 189.289062 C 482.1875 190.5625 481.207031 191.882812 480.292969 193.25 C 479.378906 194.621094 478.53125 196.03125 477.757812 197.480469 C 476.980469 198.933594 476.277344 200.417969 475.644531 201.9375 C 475.015625 203.460938 474.457031 205.007812 473.980469 206.582031 C 473.5 208.15625 473.101562 209.753906 472.777344 211.367188 C 472.457031 212.980469 472.210938 214.605469 472.050781 216.246094 C 471.886719 217.882812 471.804688 219.523438 471.800781 221.171875 L 471.800781 407.925781 C 471.804688 409.484375 471.878906 411.035156 472.023438 412.585938 C 472.171875 414.136719 472.386719 415.675781 472.675781 417.207031 C 472.964844 418.738281 473.324219 420.25 473.753906 421.746094 C 474.183594 423.242188 474.683594 424.714844 475.25 426.167969 C 475.816406 427.617188 476.445312 429.039062 477.144531 430.429688 C 477.84375 431.820312 478.605469 433.175781 479.429688 434.5 C 480.25 435.820312 481.136719 437.097656 482.078125 438.339844 C 483.019531 439.578125 484.019531 440.769531 485.070312 441.917969 C 486.125 443.0625 487.230469 444.160156 488.382812 445.203125 C 489.539062 446.246094 490.738281 447.234375 491.988281 448.167969 C 493.234375 449.101562 494.519531 449.972656 495.847656 450.785156 C 497.175781 451.601562 498.539062 452.351562 499.933594 453.035156 C 501.332031 453.722656 502.757812 454.34375 504.214844 454.898438 C 505.667969 455.453125 507.144531 455.9375 508.644531 456.355469 C 510.144531 456.773438 511.660156 457.121094 513.195312 457.398438 C 514.726562 457.675781 516.265625 457.878906 517.820312 458.011719 L 514.898438 563.667969 L 514.898438 564.371094 C 514.898438 565.292969 514.945312 566.214844 515.035156 567.132812 C 515.125 568.050781 515.261719 568.964844 515.441406 569.867188 C 515.621094 570.773438 515.84375 571.667969 516.109375 572.550781 C 516.378906 573.433594 516.6875 574.304688 517.039062 575.15625 C 517.394531 576.007812 517.785156 576.84375 518.222656 577.65625 C 518.65625 578.472656 519.128906 579.261719 519.640625 580.03125 C 520.152344 580.800781 520.703125 581.539062 521.285156 582.253906 C 521.871094 582.96875 522.488281 583.652344 523.140625 584.304688 C 523.792969 584.960938 524.476562 585.578125 525.1875 586.167969 C 525.902344 586.753906 526.640625 587.304688 527.40625 587.816406 C 528.171875 588.332031 528.964844 588.808594 529.777344 589.242188 C 530.589844 589.679688 531.421875 590.074219 532.273438 590.429688 C 533.128906 590.785156 533.996094 591.097656 534.878906 591.367188 C 535.761719 591.636719 536.652344 591.863281 537.558594 592.042969 C 538.464844 592.226562 539.375 592.363281 540.292969 592.457031 C 541.210938 592.550781 542.132812 592.597656 543.054688 592.597656 C 543.992188 592.597656 544.925781 592.546875 545.855469 592.453125 C 546.785156 592.359375 547.710938 592.21875 548.625 592.03125 C 549.542969 591.84375 550.449219 591.613281 551.339844 591.335938 C 552.234375 591.0625 553.113281 590.742188 553.976562 590.378906 C 554.835938 590.011719 555.679688 589.609375 556.5 589.160156 C 557.320312 588.710938 558.117188 588.226562 558.890625 587.699219 C 559.664062 587.171875 560.410156 586.609375 561.125 586.007812 C 561.84375 585.40625 562.527344 584.773438 563.183594 584.101562 C 563.835938 583.433594 564.453125 582.734375 565.039062 582.003906 C 565.625 581.273438 566.167969 580.515625 566.679688 579.730469 C 567.1875 578.945312 567.65625 578.136719 568.085938 577.304688 C 568.511719 576.472656 568.898438 575.625 569.242188 574.753906 C 569.585938 573.882812 569.886719 573 570.144531 572.097656 C 570.398438 571.199219 570.609375 570.289062 570.773438 569.367188 C 570.941406 568.449219 571.058594 567.519531 571.132812 566.589844 C 571.207031 565.65625 571.234375 564.722656 571.214844 563.789062 L 571.214844 458.207031 L 572.363281 458.207031 L 572.363281 221.171875 C 572.359375 219.523438 572.277344 217.882812 572.117188 216.246094 C 571.953125 214.605469 571.710938 212.980469 571.386719 211.367188 C 571.066406 209.753906 570.664062 208.15625 570.183594 206.582031 C 569.707031 205.007812 569.152344 203.460938 568.519531 201.9375 C 567.890625 200.417969 567.183594 198.933594 566.410156 197.480469 C 565.632812 196.03125 564.785156 194.621094 563.871094 193.25 C 562.957031 191.882812 561.976562 190.5625 560.933594 189.289062 C 559.886719 188.015625 558.785156 186.796875 557.621094 185.632812 C 556.457031 184.46875 555.238281 183.367188 553.964844 182.320312 C 552.691406 181.277344 551.371094 180.296875 550.003906 179.382812 C 548.632812 178.46875 547.226562 177.621094 545.773438 176.84375 C 544.320312 176.070312 542.835938 175.363281 541.316406 174.734375 C 539.792969 174.101562 538.246094 173.546875 536.671875 173.070312 C 535.097656 172.589844 533.503906 172.1875 531.886719 171.867188 C 530.273438 171.542969 528.648438 171.300781 527.007812 171.136719 C 525.371094 170.976562 523.730469 170.894531 522.082031 170.890625 Z M 552.902344 574.070312 C 551.613281 575.402344 550.113281 576.429688 548.402344 577.152344 C 546.695312 577.875 544.914062 578.238281 543.054688 578.234375 C 542.148438 578.230469 541.25 578.136719 540.359375 577.957031 C 539.472656 577.777344 538.609375 577.511719 537.769531 577.164062 C 536.933594 576.8125 536.136719 576.382812 535.382812 575.878906 C 534.632812 575.371094 533.933594 574.796875 533.292969 574.152344 C 532.65625 573.507812 532.082031 572.808594 531.582031 572.054688 C 531.078125 571.296875 530.652344 570.5 530.308594 569.660156 C 529.960938 568.824219 529.703125 567.957031 529.527344 567.066406 C 529.351562 566.175781 529.265625 565.277344 529.265625 564.371094 L 529.265625 563.964844 L 532.183594 458.207031 L 556.847656 458.207031 L 556.847656 564.042969 C 556.898438 565.910156 556.582031 567.71875 555.898438 569.457031 C 555.210938 571.199219 554.214844 572.734375 552.902344 574.070312 Z M 557.996094 443.839844 L 522.082031 443.839844 C 520.90625 443.839844 519.734375 443.78125 518.5625 443.664062 C 517.394531 443.546875 516.230469 443.375 515.078125 443.144531 C 513.925781 442.914062 512.785156 442.628906 511.660156 442.285156 C 510.535156 441.941406 509.429688 441.546875 508.34375 441.097656 C 507.257812 440.644531 506.195312 440.144531 505.160156 439.589844 C 504.125 439.035156 503.117188 438.429688 502.140625 437.777344 C 501.160156 437.121094 500.21875 436.421875 499.308594 435.675781 C 498.402344 434.929688 497.53125 434.140625 496.699219 433.308594 C 495.867188 432.480469 495.078125 431.609375 494.332031 430.699219 C 493.585938 429.789062 492.886719 428.847656 492.234375 427.871094 C 491.578125 426.890625 490.976562 425.886719 490.421875 424.847656 C 489.867188 423.8125 489.363281 422.75 488.914062 421.664062 C 488.460938 420.578125 488.066406 419.472656 487.722656 418.347656 C 487.382812 417.222656 487.09375 416.082031 486.863281 414.929688 C 486.632812 413.777344 486.460938 412.617188 486.34375 411.445312 C 486.226562 410.277344 486.167969 409.101562 486.167969 407.925781 L 486.167969 221.171875 C 486.167969 219.996094 486.226562 218.820312 486.339844 217.652344 C 486.457031 216.480469 486.628906 215.320312 486.859375 214.164062 C 487.085938 213.011719 487.371094 211.871094 487.714844 210.746094 C 488.054688 209.621094 488.453125 208.515625 488.902344 207.429688 C 489.351562 206.339844 489.855469 205.277344 490.410156 204.242188 C 490.964844 203.203125 491.566406 202.195312 492.21875 201.21875 C 492.875 200.242188 493.574219 199.296875 494.320312 198.386719 C 495.066406 197.476562 495.855469 196.609375 496.6875 195.777344 C 497.519531 194.945312 498.390625 194.15625 499.296875 193.410156 C 500.207031 192.664062 501.152344 191.964844 502.128906 191.308594 C 503.109375 190.65625 504.113281 190.050781 505.152344 189.496094 C 506.191406 188.945312 507.25 188.441406 508.339844 187.992188 C 509.425781 187.539062 510.53125 187.144531 511.65625 186.804688 C 512.78125 186.460938 513.921875 186.175781 515.074219 185.945312 C 516.230469 185.71875 517.390625 185.546875 518.5625 185.429688 C 519.734375 185.316406 520.90625 185.257812 522.082031 185.257812 C 523.257812 185.257812 524.433594 185.316406 525.601562 185.429688 C 526.773438 185.546875 527.933594 185.71875 529.089844 185.945312 C 530.242188 186.175781 531.382812 186.460938 532.507812 186.804688 C 533.632812 187.144531 534.738281 187.539062 535.828125 187.992188 C 536.914062 188.441406 537.976562 188.945312 539.011719 189.496094 C 540.050781 190.050781 541.058594 190.65625 542.035156 191.308594 C 543.011719 191.964844 543.957031 192.664062 544.867188 193.410156 C 545.777344 194.15625 546.644531 194.945312 547.476562 195.777344 C 548.308594 196.609375 549.097656 197.476562 549.84375 198.386719 C 550.589844 199.296875 551.289062 200.242188 551.945312 201.21875 C 552.597656 202.195312 553.203125 203.203125 553.757812 204.242188 C 554.3125 205.277344 554.8125 206.339844 555.261719 207.429688 C 555.714844 208.515625 556.109375 209.621094 556.449219 210.746094 C 556.792969 211.871094 557.078125 213.011719 557.308594 214.164062 C 557.535156 215.320312 557.707031 216.480469 557.824219 217.652344 C 557.9375 218.820312 557.996094 219.996094 557.996094 221.171875 Z M 371.242188 257.085938 L 356.875 257.085938 L 356.875 178.074219 L 342.511719 178.074219 L 342.511719 257.085938 L 328.144531 257.085938 L 328.144531 178.074219 L 313.777344 178.074219 L 313.777344 257.085938 L 299.414062 257.085938 L 299.414062 178.074219 L 285.046875 178.074219 L 285.046875 257.085938 L 270.679688 257.085938 L 270.679688 178.074219 L 256.316406 178.074219 L 256.316406 293 C 256.3125 294.640625 256.371094 296.277344 256.496094 297.914062 C 256.617188 299.550781 256.800781 301.179688 257.046875 302.800781 C 257.292969 304.421875 257.601562 306.03125 257.972656 307.628906 C 258.339844 309.226562 258.769531 310.808594 259.261719 312.375 C 259.75 313.9375 260.300781 315.484375 260.90625 317.007812 C 261.515625 318.53125 262.179688 320.027344 262.902344 321.5 C 263.625 322.972656 264.398438 324.417969 265.234375 325.832031 C 266.066406 327.242188 266.949219 328.625 267.886719 329.96875 C 268.824219 331.316406 269.8125 332.625 270.847656 333.894531 C 271.886719 335.164062 272.96875 336.394531 274.101562 337.582031 C 275.230469 338.769531 276.40625 339.914062 277.625 341.011719 C 278.84375 342.109375 280.101562 343.160156 281.398438 344.160156 C 282.695312 345.164062 284.03125 346.113281 285.402344 347.015625 C 286.773438 347.917969 288.175781 348.761719 289.613281 349.554688 C 291.046875 350.351562 292.511719 351.085938 294.003906 351.769531 C 295.496094 352.449219 297.011719 353.074219 298.550781 353.640625 L 292.808594 561.65625 L 292.808594 562.359375 C 292.808594 563.28125 292.851562 564.203125 292.945312 565.121094 C 293.035156 566.039062 293.167969 566.953125 293.347656 567.855469 C 293.527344 568.761719 293.75 569.65625 294.019531 570.539062 C 294.285156 571.421875 294.597656 572.292969 294.949219 573.144531 C 295.300781 573.996094 295.695312 574.832031 296.128906 575.644531 C 296.5625 576.460938 297.035156 577.25 297.546875 578.019531 C 298.0625 578.789062 298.609375 579.527344 299.195312 580.242188 C 299.777344 580.957031 300.398438 581.640625 301.046875 582.292969 C 301.699219 582.949219 302.382812 583.566406 303.09375 584.152344 C 303.808594 584.742188 304.546875 585.292969 305.3125 585.804688 C 306.082031 586.320312 306.871094 586.792969 307.683594 587.230469 C 308.496094 587.667969 309.328125 588.0625 310.179688 588.417969 C 311.035156 588.773438 311.902344 589.085938 312.785156 589.355469 C 313.667969 589.625 314.558594 589.851562 315.464844 590.03125 C 316.371094 590.214844 317.28125 590.351562 318.199219 590.445312 C 319.117188 590.539062 320.039062 590.585938 320.960938 590.585938 C 321.898438 590.585938 322.835938 590.539062 323.765625 590.441406 C 324.699219 590.347656 325.625 590.207031 326.542969 590.019531 C 327.460938 589.832031 328.367188 589.597656 329.265625 589.320312 C 330.160156 589.042969 331.039062 588.722656 331.902344 588.355469 C 332.765625 587.992188 333.609375 587.585938 334.429688 587.136719 C 335.253906 586.6875 336.050781 586.195312 336.828125 585.667969 C 337.601562 585.140625 338.347656 584.574219 339.0625 583.96875 C 339.78125 583.367188 340.46875 582.730469 341.121094 582.058594 C 341.773438 581.386719 342.394531 580.683594 342.976562 579.949219 C 343.5625 579.21875 344.109375 578.457031 344.617188 577.667969 C 345.125 576.882812 345.59375 576.070312 346.019531 575.238281 C 346.449219 574.402344 346.832031 573.546875 347.175781 572.675781 C 347.519531 571.804688 347.816406 570.914062 348.070312 570.011719 C 348.324219 569.109375 348.53125 568.199219 348.695312 567.273438 C 348.859375 566.351562 348.976562 565.421875 349.046875 564.488281 C 349.117188 563.554688 349.140625 562.617188 349.117188 561.679688 L 343.371094 353.640625 C 344.90625 353.070312 346.421875 352.445312 347.910156 351.757812 C 349.398438 351.074219 350.859375 350.332031 352.292969 349.539062 C 353.726562 348.742188 355.128906 347.894531 356.496094 346.992188 C 357.867188 346.089844 359.199219 345.136719 360.492188 344.132812 C 361.789062 343.128906 363.046875 342.078125 364.261719 340.980469 C 365.480469 339.878906 366.652344 338.738281 367.78125 337.550781 C 368.910156 336.359375 369.996094 335.132812 371.03125 333.863281 C 372.066406 332.589844 373.054688 331.285156 373.992188 329.9375 C 374.929688 328.59375 375.8125 327.214844 376.644531 325.800781 C 377.476562 324.390625 378.253906 322.949219 378.976562 321.476562 C 379.699219 320.003906 380.367188 318.507812 380.972656 316.988281 C 381.582031 315.464844 382.132812 313.921875 382.625 312.359375 C 383.117188 310.792969 383.550781 309.214844 383.921875 307.617188 C 384.292969 306.019531 384.601562 304.414062 384.851562 302.792969 C 385.101562 301.171875 385.289062 299.546875 385.417969 297.910156 C 385.542969 296.277344 385.605469 294.640625 385.609375 293 L 385.609375 178.074219 L 371.242188 178.074219 Z M 330.808594 572.054688 C 329.519531 573.390625 328.019531 574.417969 326.308594 575.140625 C 324.601562 575.867188 322.816406 576.226562 320.960938 576.222656 C 320.054688 576.21875 319.15625 576.125 318.265625 575.945312 C 317.375 575.765625 316.511719 575.5 315.675781 575.152344 C 314.839844 574.800781 314.042969 574.371094 313.289062 573.867188 C 312.535156 573.359375 311.839844 572.785156 311.199219 572.140625 C 310.558594 571.5 309.988281 570.796875 309.484375 570.042969 C 308.984375 569.285156 308.558594 568.488281 308.214844 567.648438 C 307.867188 566.8125 307.609375 565.945312 307.433594 565.054688 C 307.257812 564.164062 307.171875 563.265625 307.171875 562.359375 L 307.171875 561.953125 L 312.828125 357.128906 C 318.253906 357.820312 323.675781 357.820312 329.101562 357.128906 L 334.757812 562.035156 C 334.808594 563.90625 334.488281 565.707031 333.804688 567.449219 C 333.117188 569.1875 332.121094 570.722656 330.808594 572.054688 Z M 371.242188 293 C 371.242188 294.367188 371.183594 295.730469 371.074219 297.09375 C 370.960938 298.457031 370.792969 299.8125 370.570312 301.160156 C 370.347656 302.511719 370.070312 303.847656 369.742188 305.171875 C 369.410156 306.5 369.023438 307.808594 368.585938 309.105469 C 368.148438 310.398438 367.65625 311.675781 367.117188 312.929688 C 366.574219 314.183594 365.980469 315.414062 365.339844 316.621094 C 364.695312 317.828125 364.003906 319.007812 363.265625 320.15625 C 362.527344 321.308594 361.746094 322.425781 360.914062 323.511719 C 360.085938 324.597656 359.210938 325.648438 358.296875 326.664062 C 357.382812 327.679688 356.425781 328.65625 355.433594 329.59375 C 354.4375 330.53125 353.40625 331.429688 352.339844 332.28125 C 351.269531 333.132812 350.167969 333.941406 349.035156 334.707031 C 347.902344 335.472656 346.738281 336.1875 345.546875 336.855469 C 344.355469 337.523438 343.136719 338.144531 341.894531 338.714844 C 340.652344 339.285156 339.390625 339.800781 338.105469 340.269531 C 336.820312 340.734375 335.515625 341.148438 334.199219 341.511719 L 334.183594 341.515625 C 332.019531 342.097656 329.832031 342.535156 327.613281 342.832031 L 327.597656 342.832031 C 327.460938 342.851562 327.328125 342.863281 327.1875 342.878906 C 324.394531 343.226562 321.59375 343.339844 318.78125 343.21875 C 315.035156 343.054688 311.355469 342.484375 307.738281 341.511719 L 307.722656 341.511719 C 306.402344 341.152344 305.097656 340.742188 303.8125 340.277344 C 302.527344 339.8125 301.261719 339.296875 300.015625 338.730469 C 298.773438 338.160156 297.550781 337.542969 296.359375 336.875 C 295.164062 336.207031 294 335.492188 292.867188 334.730469 C 291.730469 333.96875 290.628906 333.160156 289.558594 332.308594 C 288.488281 331.453125 287.457031 330.558594 286.460938 329.621094 C 285.464844 328.683594 284.507812 327.707031 283.59375 326.691406 C 282.675781 325.675781 281.804688 324.625 280.972656 323.539062 C 280.144531 322.449219 279.359375 321.332031 278.621094 320.179688 C 277.882812 319.027344 277.191406 317.847656 276.550781 316.640625 C 275.910156 315.433594 275.316406 314.203125 274.777344 312.945312 C 274.234375 311.691406 273.746094 310.414062 273.308594 309.117188 C 272.871094 307.820312 272.488281 306.511719 272.160156 305.183594 C 271.828125 303.855469 271.554688 302.515625 271.335938 301.167969 C 271.113281 299.816406 270.949219 298.460938 270.839844 297.097656 C 270.730469 295.734375 270.679688 294.367188 270.679688 293 L 270.679688 271.453125 L 371.242188 271.453125 Z M 289.90625 310.828125 C 287.289062 305.355469 285.894531 299.585938 285.726562 293.519531 L 300.089844 293.472656 C 300.277344 297.476562 301.246094 301.285156 303 304.890625 C 306.347656 311.46875 312.066406 314.667969 320.492188 314.667969 L 320.492188 329.03125 C 306.488281 329.03125 295.625 322.566406 289.90625 310.828125 Z M 289.90625 310.828125 " fill-opacity="1" fill-rule="nonzero"/></g></svg>