<svg xmlns="http://www.w3.org/2000/svg" xmlns:xlink="http://www.w3.org/1999/xlink" width="1080" zoomAndPan="magnify" viewBox="0 0 810 809.999993" height="1080" preserveAspectRatio="xMidYMid meet" version="1.0"><defs><clipPath id="0c153fc679"><path d="M 80.96875 81 L 728.96875 81 L 728.96875 708.75 L 80.96875 708.75 Z M 80.96875 81 " clip-rule="nonzero"/></clipPath></defs><path fill="#ffde59" d="M 404.980469 238.09375 C 313.371094 238.09375 239.316406 312.328125 239.316406 403.753906 C 239.316406 469.582031 277.714844 526.449219 333.484375 553.144531 L 333.484375 609.828125 L 476.65625 609.828125 L 476.65625 553.144531 C 532.246094 526.449219 570.824219 469.582031 570.824219 403.753906 C 570.644531 312.328125 496.40625 238.09375 404.980469 238.09375 Z M 404.980469 238.09375 " fill-opacity="1" fill-rule="nonzero"/><path fill="#d3d3d3" d="M 333.300781 610.011719 L 333.300781 668.707031 C 333.300781 687.90625 348.84375 703.449219 368.042969 703.449219 L 441.734375 703.449219 C 460.933594 703.449219 476.476562 687.90625 476.476562 668.707031 L 476.476562 610.011719 Z M 333.300781 610.011719 " fill-opacity="1" fill-rule="nonzero"/><g clip-path="url(#0c153fc679)"><path fill="#3f3f3f" d="M 404.980469 232.605469 C 310.628906 232.605469 233.832031 309.402344 233.832031 403.753906 C 233.832031 468.117188 270.585938 527.726562 328 556.617188 L 328 669.984375 C 328 691.011719 345.1875 708.203125 366.214844 708.203125 L 444.109375 708.203125 C 465.136719 708.203125 482.324219 691.011719 482.324219 669.984375 L 482.324219 556.800781 C 539.558594 527.910156 576.496094 468.300781 576.496094 403.9375 C 576.128906 309.402344 499.332031 232.605469 404.980469 232.605469 Z M 369.140625 441.789062 C 343.90625 438.863281 331.65625 431.183594 331.65625 412.347656 C 331.65625 395.710938 340.617188 388.03125 348.84375 388.03125 C 353.78125 388.03125 358.535156 390.589844 362.191406 394.976562 C 366.765625 400.648438 369.140625 409.058594 369.140625 419.296875 Z M 404.980469 454.222656 C 413.574219 454.222656 421.984375 454.039062 429.664062 453.671875 L 429.664062 604.523438 L 380.113281 604.523438 L 380.113281 453.671875 C 387.976562 454.039062 396.386719 454.222656 404.980469 454.222656 Z M 470.988281 615.496094 L 470.988281 633.414062 L 338.789062 633.414062 L 338.789062 615.496094 Z M 338.789062 644.386719 L 470.988281 644.386719 L 470.988281 662.304688 L 338.789062 662.304688 Z M 443.925781 697.046875 L 366.03125 697.046875 C 352.136719 697.046875 340.800781 686.625 338.972656 673.277344 L 470.804688 673.277344 C 469.160156 686.625 457.824219 697.046875 443.925781 697.046875 Z M 474.097656 548.207031 C 472.269531 549.121094 470.988281 551.132812 470.988281 553.144531 L 470.988281 604.34375 L 440.636719 604.34375 L 440.636719 452.757812 C 469.160156 449.652344 489.089844 440.324219 489.089844 412.167969 C 489.089844 389.125 474.828125 376.875 460.933594 376.875 C 452.703125 376.875 444.660156 380.898438 438.992188 388.03125 C 432.957031 395.710938 429.664062 406.496094 429.664062 419.113281 L 429.664062 442.519531 C 422.351562 442.886719 413.941406 443.066406 404.980469 443.066406 C 396.019531 443.066406 387.609375 442.886719 380.296875 442.519531 L 380.296875 419.113281 C 380.296875 406.496094 377.003906 395.710938 370.96875 388.03125 C 365.300781 380.898438 357.257812 376.875 349.027344 376.875 C 334.949219 376.875 320.867188 388.945312 320.867188 412.167969 C 320.867188 440.324219 340.800781 449.652344 369.324219 452.757812 L 369.324219 604.523438 L 338.789062 604.523438 L 338.789062 553.328125 C 338.789062 551.132812 337.507812 549.304688 335.679688 548.390625 C 280.457031 521.875 244.621094 465.191406 244.621094 403.9375 C 244.621094 315.621094 316.480469 243.761719 404.796875 243.761719 C 493.113281 243.761719 564.976562 315.621094 564.976562 403.9375 C 565.15625 465.011719 529.5 521.695312 474.097656 548.207031 Z M 440.636719 441.789062 L 440.636719 419.296875 C 440.636719 409.058594 443.011719 400.648438 447.585938 394.976562 C 451.242188 390.40625 455.996094 388.03125 460.933594 388.03125 C 469.160156 388.03125 478.121094 395.710938 478.121094 412.347656 C 478.121094 431.183594 466.050781 438.863281 440.636719 441.789062 Z M 410.464844 87.058594 L 410.464844 182.6875 C 410.464844 185.796875 408.089844 188.171875 404.980469 188.171875 C 401.871094 188.171875 399.496094 185.796875 399.496094 182.6875 L 399.496094 87.058594 C 399.496094 83.949219 401.871094 81.570312 404.980469 81.570312 C 408.089844 81.570312 410.464844 83.949219 410.464844 87.058594 Z M 183.546875 405.949219 L 86.453125 405.949219 C 83.34375 405.949219 80.96875 403.570312 80.96875 400.464844 C 80.96875 397.355469 83.34375 394.976562 86.453125 394.976562 L 183.546875 394.976562 C 186.65625 394.976562 189.035156 397.355469 189.035156 400.464844 C 189.035156 403.570312 186.65625 405.949219 183.546875 405.949219 Z M 728.992188 400.464844 C 728.992188 403.570312 726.613281 405.949219 723.507812 405.949219 L 626.414062 405.949219 C 623.304688 405.949219 620.925781 403.570312 620.925781 400.464844 C 620.925781 397.355469 623.304688 394.976562 626.414062 394.976562 L 723.507812 394.976562 C 726.433594 394.976562 728.992188 397.355469 728.992188 400.464844 Z M 252.300781 242.480469 C 254.492188 244.675781 254.492188 248.148438 252.300781 250.160156 C 251.203125 251.257812 249.738281 251.804688 248.460938 251.804688 C 246.996094 251.804688 245.71875 251.257812 244.621094 250.160156 L 175.867188 182.503906 C 173.671875 180.3125 173.671875 176.835938 175.867188 174.824219 C 178.0625 172.632812 181.535156 172.632812 183.546875 174.824219 Z M 634.09375 618.238281 C 636.285156 620.433594 636.285156 623.90625 634.09375 625.917969 C 632.996094 627.015625 631.53125 627.5625 630.253906 627.5625 C 628.789062 627.5625 627.507812 627.015625 626.414062 625.917969 L 557.660156 558.265625 C 555.464844 556.070312 555.464844 552.59375 557.660156 550.585938 C 559.855469 548.390625 563.328125 548.390625 565.339844 550.585938 Z M 252.300781 550.585938 C 254.492188 552.777344 254.3125 556.253906 252.300781 558.265625 L 183.546875 625.917969 C 182.449219 627.015625 181.171875 627.5625 179.707031 627.5625 C 178.246094 627.5625 176.78125 627.015625 175.867188 625.917969 C 173.671875 623.722656 173.855469 620.25 175.867188 618.238281 L 244.621094 550.585938 C 246.8125 548.390625 250.289062 548.390625 252.300781 550.585938 Z M 557.476562 250.34375 C 555.285156 248.148438 555.464844 244.675781 557.476562 242.664062 L 626.230469 175.007812 C 628.425781 172.8125 631.898438 172.996094 633.910156 175.007812 C 636.105469 177.203125 635.921875 180.675781 633.910156 182.6875 L 565.15625 250.34375 C 564.058594 251.441406 562.78125 251.988281 561.316406 251.988281 C 560.039062 251.988281 558.574219 251.441406 557.476562 250.34375 Z M 325.074219 196.769531 C 326.171875 199.511719 324.890625 202.800781 322.148438 203.898438 C 321.417969 204.265625 320.6875 204.265625 319.953125 204.265625 C 317.761719 204.265625 315.75 202.984375 314.835938 200.972656 L 297.464844 159.832031 C 296.367188 157.089844 297.648438 153.796875 300.390625 152.699219 C 303.132812 151.605469 306.421875 152.882812 307.519531 155.625 Z M 202.199219 488.964844 L 160.324219 505.96875 C 159.59375 506.335938 158.863281 506.335938 158.3125 506.335938 C 156.121094 506.335938 154.109375 505.054688 153.195312 502.859375 C 152.097656 500.117188 153.378906 496.824219 156.121094 495.730469 L 197.992188 478.722656 C 200.734375 477.625 204.027344 478.90625 205.125 481.648438 C 206.222656 484.757812 204.941406 487.867188 202.199219 488.964844 Z M 607.761719 311.964844 L 649.632812 294.957031 C 652.378906 293.863281 655.667969 295.140625 656.765625 297.882812 C 657.863281 300.628906 656.582031 303.917969 653.839844 305.015625 L 611.96875 322.019531 C 611.234375 322.386719 610.503906 322.386719 609.957031 322.386719 C 607.761719 322.386719 605.75 321.105469 604.835938 318.914062 C 603.554688 316.167969 605.019531 313.0625 607.761719 311.964844 Z M 512.128906 159.832031 L 494.761719 200.972656 C 493.84375 202.984375 491.835938 204.265625 489.640625 204.265625 C 488.910156 204.265625 488.175781 204.082031 487.445312 203.898438 C 484.703125 202.800781 483.421875 199.511719 484.519531 196.769531 L 501.890625 155.625 C 502.988281 152.882812 506.28125 151.605469 509.023438 152.699219 C 512.128906 153.796875 513.410156 156.90625 512.128906 159.832031 Z M 153.195312 297.882812 C 154.292969 295.140625 157.582031 293.679688 160.324219 294.957031 L 202.199219 311.964844 C 204.941406 313.0625 206.402344 316.351562 205.125 319.09375 C 204.210938 321.289062 202.199219 322.570312 200.003906 322.570312 C 199.273438 322.570312 198.542969 322.386719 197.992188 322.203125 L 156.121094 305.199219 C 153.378906 303.734375 151.914062 300.628906 153.195312 297.882812 Z M 656.765625 503.042969 C 655.851562 505.238281 653.839844 506.515625 651.644531 506.515625 C 650.914062 506.515625 650.183594 506.335938 649.632812 506.152344 L 607.761719 489.144531 C 605.019531 488.050781 603.554688 484.757812 604.835938 482.015625 C 605.933594 479.273438 609.222656 477.808594 611.96875 479.089844 L 653.839844 496.09375 C 656.582031 497.191406 657.863281 500.300781 656.765625 503.042969 Z M 656.765625 503.042969 " fill-opacity="1" fill-rule="nonzero"/></g></svg>