<svg xmlns="http://www.w3.org/2000/svg" xmlns:xlink="http://www.w3.org/1999/xlink" width="1080" zoomAndPan="magnify" viewBox="0 0 810 809.999993" height="1080" preserveAspectRatio="xMidYMid meet" version="1.0"><defs><clipPath id="a19ff1cacc"><path d="M 81 108.078125 L 690.75 108.078125 L 690.75 737.328125 L 81 737.328125 Z M 81 108.078125 " clip-rule="nonzero"/></clipPath></defs><g clip-path="url(#a19ff1cacc)"><path fill="#2ab540" d="M 645.617188 450.746094 L 582.742188 450.746094 L 582.742188 435.578125 C 582.742188 418.035156 568.472656 403.765625 550.933594 403.765625 L 477.421875 403.765625 C 459.878906 403.765625 445.609375 418.035156 445.609375 435.578125 L 445.609375 450.746094 L 427.777344 450.746094 L 427.777344 279.132812 C 427.777344 241.128906 396.859375 210.214844 358.859375 210.214844 L 339.378906 210.214844 L 339.378906 151.933594 C 348.96875 150.425781 356.355469 142.175781 356.355469 132.167969 L 356.355469 128.394531 C 356.359375 117.324219 347.347656 108.316406 336.277344 108.316406 L 172.5 108.316406 C 161.425781 108.316406 152.421875 117.324219 152.421875 128.394531 L 152.421875 132.167969 C 152.421875 142.175781 159.804688 150.425781 169.394531 151.933594 L 169.394531 210.21875 L 149.917969 210.21875 C 111.914062 210.21875 81 241.136719 81 279.132812 L 81 627.070312 C 81 655.785156 98.667969 680.433594 123.695312 690.773438 L 123.695312 715.160156 C 123.695312 727.207031 133.496094 737.003906 145.535156 737.003906 C 157.578125 737.003906 167.378906 727.207031 167.378906 715.160156 L 167.378906 695.984375 L 337.773438 695.984375 C 340.21875 718.632812 359.445312 736.332031 382.730469 736.332031 L 645.617188 736.332031 C 670.558594 736.332031 690.847656 716.039062 690.847656 691.101562 L 690.847656 495.984375 C 690.851562 471.039062 670.558594 450.746094 645.617188 450.746094 Z M 613.105469 460.726562 L 613.105469 726.351562 L 415.246094 726.351562 L 415.246094 460.726562 Z M 550.121094 450.746094 L 478.230469 450.746094 L 478.230469 444.535156 C 478.230469 438.566406 483.085938 433.714844 489.054688 433.714844 L 539.292969 433.714844 C 545.261719 433.714844 550.113281 438.566406 550.113281 444.535156 L 550.113281 450.746094 Z M 455.585938 435.578125 C 455.585938 423.539062 465.382812 413.746094 477.421875 413.746094 L 550.933594 413.746094 C 562.972656 413.746094 572.761719 423.539062 572.761719 435.578125 L 572.761719 450.746094 L 560.097656 450.746094 L 560.097656 444.535156 C 560.097656 433.066406 550.769531 423.734375 539.296875 423.734375 L 489.058594 423.734375 C 477.585938 423.734375 468.257812 433.070312 468.257812 444.535156 L 468.257812 450.746094 L 455.585938 450.746094 Z M 316.222656 210.21875 L 316.222656 152.246094 L 329.40625 152.246094 L 329.40625 210.21875 Z M 305.285156 210.21875 L 296.480469 198.515625 C 292.253906 192.890625 285.988281 189.667969 279.289062 189.667969 L 229.480469 189.667969 C 222.785156 189.667969 216.515625 192.890625 212.289062 198.515625 L 203.484375 210.226562 L 202.527344 210.226562 L 202.527344 152.246094 L 306.234375 152.246094 L 306.234375 210.21875 Z M 292.800781 210.21875 L 215.972656 210.21875 L 220.269531 204.507812 C 222.59375 201.417969 225.953125 199.640625 229.480469 199.640625 L 279.289062 199.640625 C 282.824219 199.640625 286.175781 201.414062 288.5 204.507812 Z M 162.398438 132.167969 L 162.398438 128.394531 C 162.398438 122.828125 166.929688 118.296875 172.5 118.296875 L 336.277344 118.296875 C 341.84375 118.296875 346.375 122.828125 346.375 128.394531 L 346.375 132.167969 C 346.375 137.738281 341.84375 142.265625 336.277344 142.265625 L 172.5 142.265625 C 166.929688 142.265625 162.398438 137.738281 162.398438 132.167969 Z M 179.375 152.246094 L 192.558594 152.246094 L 192.558594 210.21875 L 179.375 210.21875 Z M 90.980469 627.070312 L 90.980469 279.132812 C 90.980469 246.632812 117.417969 220.195312 149.917969 220.195312 L 358.863281 220.195312 C 391.363281 220.195312 417.800781 246.632812 417.800781 279.132812 L 417.800781 450.746094 L 387.15625 450.746094 L 387.15625 272.195312 C 387.15625 261.519531 378.46875 252.832031 367.796875 252.832031 C 357.117188 252.832031 348.429688 261.519531 348.429688 272.195312 L 348.429688 466.585938 C 341.640625 474.5 337.503906 484.761719 337.503906 495.984375 L 337.503906 686.007812 L 149.917969 686.007812 C 117.417969 686.007812 90.980469 659.566406 90.980469 627.070312 Z M 358.40625 457.914062 L 358.40625 272.199219 C 358.40625 267.027344 362.617188 262.816406 367.792969 262.816406 C 372.964844 262.816406 377.171875 267.027344 377.171875 272.199219 L 377.171875 451.132812 C 370.324219 451.96875 363.960938 454.351562 358.40625 457.914062 Z M 157.40625 715.160156 C 157.40625 721.703125 152.082031 727.027344 145.539062 727.027344 C 139 727.027344 133.679688 721.703125 133.679688 715.160156 L 133.679688 693.96875 C 138.898438 695.238281 144.316406 695.980469 149.917969 695.980469 L 157.40625 695.980469 Z M 347.535156 692.113281 C 347.625 691.746094 347.757812 691.390625 347.757812 690.992188 C 347.757812 690.503906 347.613281 690.0625 347.476562 689.613281 L 347.476562 495.984375 C 347.476562 488.785156 349.652344 482.09375 353.371094 476.503906 C 353.386719 476.503906 353.394531 476.515625 353.410156 476.515625 C 356.164062 476.515625 358.402344 474.277344 358.402344 471.523438 L 358.402344 470.53125 C 364.316406 464.875 372.195312 461.269531 380.902344 460.820312 C 381.3125 460.929688 381.710938 461.078125 382.160156 461.078125 C 382.769531 461.078125 383.332031 460.929688 383.871094 460.730469 L 405.261719 460.730469 L 405.261719 726.355469 L 382.730469 726.355469 C 363.632812 726.351562 348.078125 711.085938 347.535156 692.113281 Z M 680.871094 691.101562 C 680.871094 710.539062 665.058594 726.351562 645.621094 726.351562 L 623.085938 726.351562 L 623.085938 460.726562 L 645.621094 460.726562 C 665.058594 460.726562 680.871094 476.539062 680.871094 495.976562 Z M 680.871094 691.101562 " fill-opacity="1" fill-rule="nonzero"/></g><path fill="#2ab540" d="M 252.792969 647.242188 L 255.984375 647.242188 C 265.777344 647.242188 273.753906 639.273438 273.753906 629.472656 L 273.753906 270.597656 C 273.753906 260.804688 265.777344 252.832031 255.984375 252.832031 L 252.792969 252.832031 C 242.996094 252.832031 235.023438 260.800781 235.023438 270.597656 L 235.023438 629.480469 C 235.027344 639.273438 242.996094 647.242188 252.792969 647.242188 Z M 245.007812 270.597656 C 245.007812 266.308594 248.5 262.808594 252.796875 262.808594 L 255.988281 262.808594 C 260.285156 262.808594 263.777344 266.304688 263.777344 270.597656 L 263.777344 629.480469 C 263.777344 633.769531 260.285156 637.269531 255.988281 637.269531 L 252.796875 637.269531 C 248.503906 637.269531 245.007812 633.777344 245.007812 629.480469 Z M 245.007812 270.597656 " fill-opacity="1" fill-rule="nonzero"/><path fill="#2ab540" d="M 194.574219 647.242188 L 197.765625 647.242188 C 207.5625 647.242188 215.535156 639.273438 215.535156 629.472656 L 215.535156 270.597656 C 215.535156 260.804688 207.5625 252.832031 197.765625 252.832031 L 194.574219 252.832031 C 184.777344 252.832031 176.804688 260.800781 176.804688 270.597656 L 176.804688 629.480469 C 176.804688 639.273438 184.773438 647.242188 194.574219 647.242188 Z M 186.785156 270.597656 C 186.785156 266.308594 190.277344 262.808594 194.574219 262.808594 L 197.765625 262.808594 C 202.0625 262.808594 205.554688 266.304688 205.554688 270.597656 L 205.554688 629.480469 C 205.554688 633.769531 202.0625 637.269531 197.765625 637.269531 L 194.574219 637.269531 C 190.28125 637.269531 186.785156 633.777344 186.785156 629.480469 Z M 186.785156 270.597656 " fill-opacity="1" fill-rule="nonzero"/><path fill="#2ab540" d="M 157.3125 629.480469 L 157.3125 270.597656 C 157.3125 260.804688 149.34375 252.832031 139.542969 252.832031 L 136.347656 252.832031 C 126.554688 252.832031 118.582031 260.800781 118.582031 270.597656 L 118.582031 629.480469 C 118.582031 639.273438 126.550781 647.246094 136.347656 647.246094 L 139.542969 647.246094 C 149.34375 647.242188 157.3125 639.273438 157.3125 629.480469 Z M 147.332031 629.480469 C 147.332031 633.769531 143.839844 637.269531 139.542969 637.269531 L 136.347656 637.269531 C 132.058594 637.269531 128.5625 633.777344 128.5625 629.480469 L 128.5625 270.597656 C 128.5625 266.308594 132.054688 262.808594 136.347656 262.808594 L 139.542969 262.808594 C 143.832031 262.808594 147.332031 266.304688 147.332031 270.597656 Z M 147.332031 629.480469 " fill-opacity="1" fill-rule="nonzero"/><path fill="#2ab540" d="M 307.976562 647.242188 L 311.167969 647.242188 C 320.964844 647.242188 328.9375 639.273438 328.9375 629.472656 L 328.9375 270.597656 C 328.9375 260.804688 320.96875 252.832031 311.167969 252.832031 L 307.976562 252.832031 C 298.179688 252.832031 290.207031 260.800781 290.207031 270.597656 L 290.207031 629.480469 C 290.207031 639.273438 298.175781 647.242188 307.976562 647.242188 Z M 300.1875 270.597656 C 300.1875 266.308594 303.679688 262.808594 307.976562 262.808594 L 311.167969 262.808594 C 315.460938 262.808594 318.957031 266.304688 318.957031 270.597656 L 318.957031 629.480469 C 318.957031 633.769531 315.464844 637.269531 311.167969 637.269531 L 307.976562 637.269531 C 303.679688 637.269531 300.1875 633.777344 300.1875 629.480469 Z M 300.1875 270.597656 " fill-opacity="1" fill-rule="nonzero"/></svg>