<svg xmlns="http://www.w3.org/2000/svg" xmlns:xlink="http://www.w3.org/1999/xlink" width="1080" zoomAndPan="magnify" viewBox="0 0 810 809.999993" height="1080" preserveAspectRatio="xMidYMid meet" version="1.0"><defs><clipPath id="d27196a8d3"><path d="M 239 247 L 660.246094 247 L 660.246094 505 L 239 505 Z M 239 247 " clip-rule="nonzero"/></clipPath><clipPath id="2d40aa4d4c"><path d="M 180.246094 202.421875 L 660.246094 202.421875 L 660.246094 567.671875 L 180.246094 567.671875 Z M 180.246094 202.421875 " clip-rule="nonzero"/></clipPath></defs><g clip-path="url(#d27196a8d3)"><path fill="#000000" d="M 653.847656 443.632812 L 564.859375 443.632812 C 561.277344 443.632812 558.371094 440.726562 558.371094 437.144531 C 558.371094 433.5625 561.277344 430.652344 564.859375 430.652344 L 653.847656 430.652344 C 657.429688 430.652344 660.335938 433.5625 660.335938 437.144531 C 660.335938 440.726562 657.429688 443.632812 653.847656 443.632812 Z M 252.664062 498.300781 L 252.664062 378.054688 C 252.664062 374.46875 249.757812 371.5625 246.171875 371.5625 C 242.589844 371.5625 239.683594 374.46875 239.683594 378.054688 L 239.683594 498.300781 C 239.683594 501.882812 242.585938 504.789062 246.171875 504.789062 C 249.757812 504.789062 252.664062 501.882812 252.664062 498.300781 Z M 584.203125 303.863281 L 610.808594 296.835938 C 614.273438 295.917969 616.34375 292.367188 615.425781 288.902344 C 614.511719 285.4375 610.949219 283.375 607.496094 284.289062 L 580.894531 291.316406 C 577.429688 292.230469 575.359375 295.78125 576.273438 299.246094 C 577.042969 302.15625 579.671875 304.082031 582.542969 304.082031 C 583.09375 304.078125 583.652344 304.011719 584.203125 303.863281 Z M 589.09375 322.367188 L 615.695312 315.339844 C 619.160156 314.425781 621.230469 310.875 620.3125 307.40625 C 619.398438 303.941406 615.84375 301.878906 612.382812 302.792969 L 585.78125 309.820312 C 582.316406 310.734375 580.246094 314.285156 581.164062 317.75 C 581.929688 320.660156 584.558594 322.585938 587.433594 322.585938 C 587.980469 322.585938 588.539062 322.515625 589.09375 322.367188 Z M 574.429688 266.851562 L 601.027344 259.824219 C 604.496094 258.910156 606.5625 255.359375 605.644531 251.894531 C 604.734375 248.429688 601.167969 246.363281 597.714844 247.277344 L 571.117188 254.304688 C 567.648438 255.222656 565.582031 258.773438 566.5 262.238281 C 567.269531 265.148438 569.894531 267.070312 572.769531 267.070312 C 573.316406 267.070312 573.875 267 574.429688 266.851562 Z M 579.316406 285.359375 L 605.914062 278.328125 C 609.382812 277.414062 611.449219 273.863281 610.535156 270.398438 C 609.617188 266.933594 606.0625 264.867188 602.605469 265.78125 L 576.003906 272.808594 C 572.535156 273.726562 570.46875 277.277344 571.386719 280.742188 C 572.15625 283.652344 574.785156 285.574219 577.65625 285.574219 C 578.207031 285.574219 578.761719 285.507812 579.316406 285.359375 Z M 579.316406 285.359375 " fill-opacity="1" fill-rule="nonzero"/></g><g clip-path="url(#2d40aa4d4c)"><path fill="#000000" d="M 340.21875 326.75 L 335.921875 326.75 L 335.921875 290.445312 C 335.921875 286.863281 333.015625 283.957031 329.429688 283.957031 L 315.03125 283.957031 L 315.03125 208.933594 C 315.03125 205.347656 312.128906 202.445312 308.542969 202.445312 L 186.734375 202.445312 C 183.148438 202.445312 180.246094 205.347656 180.246094 208.933594 L 180.246094 228.414062 C 180.246094 241.675781 191.035156 252.464844 204.296875 252.464844 L 247.476562 252.464844 L 247.476562 283.957031 L 233.078125 283.957031 C 229.492188 283.957031 226.589844 286.863281 226.589844 290.445312 L 226.589844 326.75 L 222.292969 326.75 C 210.261719 326.75 200.472656 336.539062 200.472656 348.570312 L 200.472656 545.949219 C 200.472656 557.976562 210.261719 567.765625 222.292969 567.765625 L 340.21875 567.765625 C 352.25 567.765625 362.039062 557.976562 362.039062 545.949219 L 362.039062 348.570312 C 362.039062 336.539062 352.25 326.75 340.21875 326.75 Z M 260.457031 252.464844 L 277.75 252.464844 C 281.335938 252.464844 284.238281 249.5625 284.238281 245.976562 C 284.238281 242.390625 281.335938 239.488281 277.75 239.488281 L 204.296875 239.488281 C 198.191406 239.488281 193.222656 234.519531 193.222656 228.410156 L 193.222656 215.421875 L 302.054688 215.421875 L 302.054688 283.957031 L 260.457031 283.957031 Z M 239.566406 296.9375 L 322.941406 296.9375 L 322.941406 326.75 L 239.566406 326.75 Z M 349.058594 545.949219 C 349.058594 550.824219 345.09375 554.789062 340.21875 554.789062 L 222.292969 554.789062 C 217.417969 554.789062 213.453125 550.824219 213.453125 545.949219 L 213.453125 348.570312 C 213.453125 343.695312 217.417969 339.730469 222.292969 339.730469 L 340.21875 339.730469 C 345.09375 339.730469 349.058594 343.695312 349.058594 348.570312 Z M 500.171875 273.464844 C 500.171875 262.003906 491.238281 252.683594 479.988281 251.859375 L 479.988281 218.074219 C 479.988281 214.488281 477.082031 211.585938 473.496094 211.585938 L 433.382812 211.585938 C 429.800781 211.585938 426.894531 214.488281 426.894531 218.074219 L 426.894531 251.703125 L 424.226562 251.703125 C 412.226562 251.703125 402.464844 261.464844 402.464844 273.464844 L 402.464844 294.261719 L 384.160156 560.832031 C 384.035156 562.625 384.664062 564.390625 385.890625 565.703125 C 387.121094 567.019531 388.835938 567.765625 390.632812 567.765625 L 512.007812 567.765625 C 513.804688 567.765625 515.519531 567.019531 516.75 565.703125 C 517.976562 564.390625 518.605469 562.625 518.476562 560.832031 L 500.171875 294.292969 Z M 415.015625 300.980469 L 487.625 300.980469 L 501.960938 509.699219 L 400.683594 509.699219 Z M 439.875 224.5625 L 467.007812 224.5625 L 467.007812 251.703125 L 439.875 251.703125 Z M 415.445312 273.464844 C 415.445312 268.621094 419.386719 264.679688 424.230469 264.679688 L 478.410156 264.679688 C 483.253906 264.679688 487.195312 268.621094 487.195312 273.464844 L 487.195312 288 L 415.445312 288 Z M 397.585938 554.789062 L 399.789062 522.679688 L 502.851562 522.679688 L 505.058594 554.789062 Z M 653.847656 398.882812 L 593.308594 398.882812 L 556.554688 259.746094 C 555.640625 256.285156 552.074219 254.222656 548.625 255.132812 C 545.160156 256.046875 543.089844 259.597656 544.007812 263.0625 L 579.886719 398.882812 L 539.449219 398.882812 C 535.867188 398.882812 532.957031 401.789062 532.957031 405.375 L 532.957031 561.277344 C 532.957031 564.859375 535.863281 567.765625 539.449219 567.765625 L 653.847656 567.765625 C 657.429688 567.765625 660.335938 564.859375 660.335938 561.277344 L 660.335938 405.375 C 660.335938 401.789062 657.429688 398.882812 653.847656 398.882812 Z M 647.355469 554.789062 L 545.9375 554.789062 L 545.9375 411.863281 L 588.195312 411.863281 C 588.234375 411.863281 588.269531 411.882812 588.308594 411.882812 C 588.359375 411.882812 588.40625 411.863281 588.453125 411.863281 L 647.355469 411.863281 Z M 647.355469 554.789062 " fill-opacity="1" fill-rule="nonzero"/></g></svg>